<svg width="103" height="24" viewBox="0 0 103 24" fill="none" xmlns="http://www.w3.org/2000/svg">
<path fill-rule="evenodd" clip-rule="evenodd" d="M24.0584 12C24.0584 18.6147 18.66 24 12.0292 24C5.39841 24 0 18.6147 0 12C0 5.37443 5.38751 0 12.0292 0C13.8614 0 15.6063 0.413418 17.155 1.14234L15.1592 3.70988C14.1886 3.33998 13.1307 3.14415 12.0292 3.14415C7.35056 3.14415 3.50079 6.76699 3.17361 11.3581C3.16271 11.456 3.16271 11.5431 3.16271 11.641C3.16271 11.7606 3.1518 11.8803 3.1518 12.0109C3.1518 16.8957 7.13245 20.8667 12.0292 20.8667C16.9259 20.8667 20.9066 16.8957 20.9066 12.0109C20.9066 11.3581 20.8302 10.7162 20.6994 10.107L23.0223 7.12602C23.6876 8.60562 24.0584 10.2593 24.0584 12Z" fill="#FFE01A"/>
<path fill-rule="evenodd" clip-rule="evenodd" d="M21.6045 4.74349L12.4654 16.4933L6.66345 11.3147L8.76829 8.96471L12.051 11.8913L19.3688 2.49146C20.2086 3.14422 20.9611 3.8949 21.6045 4.74349Z" fill="#242424"/>
<path fill-rule="evenodd" clip-rule="evenodd" d="M29.1515 18.4841V5.71171H32.3578V7.38714H32.8268C33.034 6.94108 33.4157 6.51679 33.9937 6.11425C34.5608 5.71171 35.4224 5.505 36.5784 5.505C37.5817 5.505 38.4542 5.73347 39.1958 6.1904C39.9483 6.64734 40.5263 7.26746 40.9408 8.07254C41.3552 8.86674 41.5624 9.80237 41.5624 10.8686V18.495H38.3124V11.1297C38.3124 10.1723 38.0725 9.44335 37.6035 8.96465C37.1346 8.48596 36.4584 8.24661 35.5751 8.24661C34.5717 8.24661 33.7974 8.57299 33.2521 9.23664C32.6959 9.90028 32.4233 10.825 32.4233 12V18.495L29.1515 18.4841Z" fill="#242424"/>
<path fill-rule="evenodd" clip-rule="evenodd" d="M49.9599 15.9601C50.9633 15.9601 51.7812 15.6337 52.4355 14.9918C53.0899 14.35 53.4171 13.4252 53.4171 12.2285V11.9674C53.4171 10.7706 53.0899 9.84589 52.4465 9.204C51.803 8.56211 50.9742 8.23573 49.9599 8.23573C48.9566 8.23573 48.1386 8.56211 47.4843 9.204C46.8299 9.84589 46.5028 10.7706 46.5028 11.9674V12.2285C46.5028 13.4252 46.8299 14.35 47.4843 14.9918C48.1277 15.6337 48.9566 15.9601 49.9599 15.9601ZM49.9599 18.8432C48.6839 18.8432 47.5388 18.5821 46.5246 18.0707C45.5103 17.5594 44.7033 16.8087 44.1253 15.8296C43.5363 14.8504 43.2528 13.6754 43.2528 12.3046V11.8912C43.2528 10.5204 43.5473 9.34543 44.1253 8.36628C44.7142 7.38714 45.5103 6.63646 46.5246 6.12513C47.5388 5.61379 48.6839 5.35269 49.9599 5.35269C51.2359 5.35269 52.381 5.61379 53.3953 6.12513C54.4095 6.63646 55.2056 7.38714 55.7946 8.36628C56.3835 9.34543 56.667 10.5204 56.667 11.8912V12.3046C56.667 13.6754 56.3726 14.8504 55.7946 15.8296C55.2056 16.8087 54.4095 17.5594 53.3953 18.0707C52.3701 18.5821 51.2359 18.8432 49.9599 18.8432Z" fill="#242424"/>
<path fill-rule="evenodd" clip-rule="evenodd" d="M58.3683 18.4841V5.71171H61.5747V7.14779H62.0436C62.229 6.63646 62.5671 6.28832 63.0033 6.04897C63.4396 5.80962 63.9303 5.71171 64.5193 5.71171H66.057V8.38804H64.4538C63.5159 8.4098 62.9488 8.75794 62.4144 9.204C61.88 9.63918 61.6183 10.3137 61.6183 11.2276V18.495L58.3683 18.4841Z" fill="#242424"/>
<path fill-rule="evenodd" clip-rule="evenodd" d="M70.6266 18.4841C69.7868 18.4841 69.0997 18.223 68.5763 17.7008C68.0528 17.1786 67.791 16.4823 67.791 15.6011V8.38804H64.5847V5.71171H67.791V1.74072H71.041V5.71171H74.5527V8.38804H71.041V15.0354C71.041 15.5467 71.2809 15.8078 71.7608 15.8078H74.2364V18.4841H70.6266Z" fill="#242424"/>
<path fill-rule="evenodd" clip-rule="evenodd" d="M81.8269 15.9601C82.8302 15.9601 83.6482 15.6337 84.3025 14.9918C84.9569 14.35 85.2841 13.4252 85.2841 12.2285V11.9674C85.2841 10.7706 84.9569 9.84589 84.3134 9.204C83.67 8.56211 82.8411 8.23573 81.8269 8.23573C80.8236 8.23573 80.0056 8.56211 79.3513 9.204C78.6969 9.84589 78.3697 10.7706 78.3697 11.9674V12.2285C78.3697 13.4252 78.6969 14.35 79.3513 14.9918C80.0056 15.6337 80.8345 15.9601 81.8269 15.9601ZM81.8269 18.8432C80.5509 18.8432 79.4058 18.5821 78.3916 18.0707C77.3773 17.5594 76.5703 16.8087 75.9923 15.8296C75.4033 14.8504 75.1089 13.6754 75.1089 12.3046V11.8912C75.1089 10.5204 75.4033 9.34543 75.9923 8.36628C76.5812 7.38714 77.3773 6.63646 78.3916 6.12513C79.4058 5.61379 80.5509 5.35269 81.8269 5.35269C83.1029 5.35269 84.248 5.61379 85.2623 6.12513C86.2765 6.63646 87.0726 7.38714 87.6615 8.36628C88.2505 9.34543 88.534 10.5204 88.534 11.8912V12.3046C88.534 13.6754 88.2396 14.8504 87.6615 15.8296C87.0726 16.8087 86.2765 17.5594 85.2623 18.0707C84.248 18.5821 83.1029 18.8432 81.8269 18.8432Z" fill="#242424"/>
<path fill-rule="evenodd" clip-rule="evenodd" d="M90.2353 18.4841V5.71171H93.4417V7.38714H93.9106C94.1178 6.94108 94.4995 6.51679 95.0775 6.11425C95.6447 5.71171 96.5062 5.505 97.6622 5.505C98.6656 5.505 99.5381 5.73347 100.28 6.1904C101.032 6.64734 101.61 7.26746 102.025 8.07254C102.439 8.87762 102.646 9.80237 102.646 10.8686V18.495H99.3963V11.1297C99.3963 10.1723 99.1563 9.44335 98.6874 8.96465C98.2184 8.48596 97.5423 8.24661 96.6589 8.24661C95.6556 8.24661 94.8812 8.57299 94.3359 9.23664C93.7906 9.90028 93.5071 10.825 93.5071 12V18.495L90.2353 18.4841Z" fill="#242424"/>
</svg>
