<svg width="24" height="24" viewBox="0 0 24 24" fill="none" xmlns="http://www.w3.org/2000/svg">
<path d="M5 5C5 3.34315 6.34315 2 8 2H19C20.6569 2 22 3.34315 22 5V16C22 17.6569 20.6569 19 19 19H8C6.34315 19 5 17.6569 5 16V5ZM8 4C7.44772 4 7 4.44772 7 5V16C7 16.5523 7.44772 17 8 17H19C19.5523 17 20 16.5523 20 16V5C20 4.44772 19.5523 4 19 4H8ZM12 6C12.5523 6 13 6.44772 13 7H17C17.5523 7 18 7.44772 18 8C18 8.55228 17.5523 9 17 9H13C13 9.55228 12.5523 10 12 10C11.4477 10 11 9.55228 11 9H10C9.44772 9 9 8.55228 9 8C9 7.44772 9.44772 7 10 7H11C11 6.44772 11.4477 6 12 6ZM3 7C3.55228 7 4 7.44772 4 8V19.0021C4 19.5548 4.44539 20 4.99729 20H17C17.5523 20 18 20.4477 18 21C18 21.5523 17.5523 22 17 22H4.99729C3.34005 22 2 20.6586 2 19.0021V8C2 7.44772 2.44772 7 3 7ZM15 11C15.5523 11 16 11.4477 16 12H17C17.5523 12 18 12.4477 18 13C18 13.5523 17.5523 14 17 14H16C16 14.5523 15.5523 15 15 15C14.4477 15 14 14.5523 14 14H10C9.44772 14 9 13.5523 9 13C9 12.4477 9.44772 12 10 12H14C14 11.4477 14.4477 11 15 11Z" fill="#242424"/>
</svg>
