<svg width="608" height="240" viewBox="0 0 608 240" fill="none" xmlns="http://www.w3.org/2000/svg">
<path d="M471.996 75.7364C417.674 67.159 391.777 72.5784 351.983 75.7364C275.134 81.8351 144.61 -34.8752 72.1642 66.8933C49.3847 98.8929 44.6605 151.75 75.2533 189.335C75.6288 189.796 76.1968 190.064 76.7915 190.064H540.286C541.02 190.064 541.707 189.643 542.049 188.994C573.756 128.896 525.997 84.2633 471.996 75.7364Z" fill="#F4F1ED"/>
<path d="M463.147 189.434L450.864 119.204C450.362 116.332 447.852 114.372 445.258 114.825L440.321 115.689C437.727 116.142 436.032 118.838 436.534 121.71L448.816 191.94C449.319 194.812 451.829 196.772 454.423 196.318L459.36 195.455C461.953 195.001 463.649 192.305 463.147 189.434Z" fill="#CFE3FC"/>
<path d="M448.814 189.421L436.503 119.028C436 116.15 433.489 114.184 430.895 114.638L425.958 115.501C423.364 115.955 421.669 118.656 422.173 121.534L434.484 191.927C434.987 194.806 437.498 196.771 440.092 196.318L445.029 195.454C447.623 195.001 449.318 192.299 448.814 189.421Z" fill="#FBEECA"/>
<path d="M425.734 189.936L414.64 126.5C414.186 123.907 411.716 122.171 409.122 122.625L404.185 123.489C401.591 123.942 399.856 126.413 400.309 129.007L411.404 192.443C411.857 195.037 414.328 196.772 416.922 196.318L421.859 195.455C424.453 195.001 426.188 192.53 425.734 189.936Z" fill="#FBEECA"/>
<path d="M472.72 192.03L462.01 130.794C461.666 128.825 459.983 127.474 458.252 127.777L455.693 128.224C453.961 128.527 452.837 130.369 453.181 132.339L463.891 193.574C464.235 195.543 465.918 196.894 467.65 196.591L470.208 196.144C471.94 195.841 473.064 193.999 472.72 192.03Z" fill="#CCE5E7"/>
<path d="M434.761 192.03L424.051 130.794C423.707 128.825 422.024 127.474 420.293 127.777L417.734 128.224C416.003 128.527 414.878 130.369 415.222 132.339L425.932 193.574C426.276 195.543 427.959 196.894 429.691 196.591L432.249 196.144C433.981 195.841 435.105 193.999 434.761 192.03Z" fill="#CCE5E7"/>
<path d="M187.105 98.1451C184.969 96.4375 175.917 98.6512 172.788 100.992C167.401 105.027 159.063 109.778 156.89 118.263C153.641 124.701 169.73 123.094 172.789 122.023C178.56 120.012 183.38 115.43 185.712 109.778C186.995 106.637 189.24 99.8528 187.105 98.1451Z" fill="#D2E9CA"/>
<path d="M207.059 127.787C207.142 127.704 207.225 127.62 207.32 127.537C201.132 123.991 193.802 122.456 186.709 123.205C179.617 123.955 172.786 127.002 167.479 131.774C166.443 132.702 164.301 134.677 164.599 136.296C164.849 137.64 167.11 139.199 168.157 139.961C171.382 142.281 175.416 143.412 179.367 143.376C184.865 143.329 190.184 141.199 194.789 138.212C199.395 135.225 203.215 131.548 207.07 127.799L207.059 127.787Z" fill="#DFF2D7"/>
<path d="M138.297 129.465C131.862 128.019 119.541 128.948 119.066 130.839C118.59 132.73 131.06 140.644 134.176 141.322C137.532 142.059 148.581 143.521 150.348 138.943C151.997 134.876 144.731 130.911 138.297 129.465Z" fill="#D2E9CA"/>
<path d="M148.171 99.3972C144.383 92.9339 136.989 88.7733 129.667 87.3088C126.21 94.3777 127.454 105.257 131.506 112.006C133.29 114.978 144.867 126.026 150.878 121.982C155.806 118.667 150.476 103.309 148.171 99.3972Z" fill="#D2E9CA"/>
<path d="M172.203 64.4534C164.087 68.071 157.399 74.8065 153.853 82.9581C150.819 89.9435 149.974 98.1903 151.854 105.604C153.222 110.995 159.28 114.827 164.813 113.327C168.966 112.209 172.156 108.853 174.464 105.223C182.235 92.9543 181.283 75.7823 172.191 64.4534H172.203Z" fill="#DFF2D7"/>
<path d="M122.752 111.324C122.237 117.116 125.781 125.004 129.504 129.898C132.696 134.089 137.371 137.522 142.448 139.147C145.968 140.273 148.338 139.357 149.708 137.489C151.731 134.73 151.57 129.893 149.708 126.496C144.91 117.784 132.57 110.365 122.752 111.324Z" fill="#DFF2D7"/>
<path fill-rule="evenodd" clip-rule="evenodd" d="M157.436 138.51C157.446 137.313 157.418 136.621 157.395 136.045C157.39 135.924 157.386 135.807 157.382 135.693C157.359 135.062 157.353 134.429 157.434 133.049L157.434 133.046C157.67 128.855 158.277 124.768 158.894 120.621C159.27 118.091 159.65 115.538 159.95 112.926M157.436 138.51C157.436 138.511 157.436 138.511 157.436 138.512L157.424 140.376C157.424 140.376 157.424 140.376 157.424 140.376C157.4 144.92 157.15 153.141 156.935 157.664L156.935 157.666C156.823 159.928 156.823 161.86 156.851 163.223C156.865 163.905 156.886 164.443 156.903 164.81C156.912 164.993 156.919 165.133 156.925 165.226C156.927 165.273 156.93 165.308 156.931 165.33L156.933 165.355L156.933 165.36L157.028 166.725H152.159L152.208 165.402C152.471 158.314 152.795 154.881 153.071 152.37C153.107 152.039 153.143 151.725 153.177 151.422C153.397 149.471 153.566 147.977 153.623 145.175C153.573 144.897 153.392 144.43 153.024 143.785C152.643 143.12 152.129 142.378 151.56 141.639C150.414 140.151 149.134 138.789 148.466 138.206L148.457 138.198C147.666 137.495 147.783 136.483 148.114 135.914C148.289 135.613 148.61 135.265 149.109 135.122C149.671 134.961 150.217 135.131 150.608 135.466C151.186 135.96 152.347 137.078 153.443 138.25C153.528 138.34 153.612 138.43 153.695 138.521C153.7 137.817 153.71 137.274 153.733 136.732C153.783 135.539 153.896 134.349 154.159 131.443C153.781 129.869 152.988 128.324 152.007 126.766C151.5 125.96 150.955 125.17 150.405 124.379C150.356 124.308 150.307 124.237 150.258 124.166C149.761 123.452 149.261 122.732 148.806 122.026L148.8 122.017L148.794 122.007C148.269 121.16 148.569 120.237 149.049 119.745C149.296 119.49 149.712 119.221 150.255 119.227C150.863 119.234 151.327 119.579 151.592 119.991C152 120.624 152.444 121.272 152.911 121.95C152.941 121.993 152.971 122.037 153.001 122.08C153.437 122.713 153.89 123.371 154.331 124.042C154.524 124.336 154.716 124.635 154.905 124.938C155.09 123.556 155.284 122.177 155.477 120.802L155.482 120.77C155.866 118.038 156.247 115.323 156.56 112.598C156.677 111.591 157.515 110.988 158.362 111.024C158.77 111.041 159.215 111.208 159.545 111.581C159.89 111.971 160.003 112.465 159.95 112.926M149.448 121.371C149.448 121.37 149.448 121.371 149.448 121.371Z" fill="#E2DBCE"/>
<path d="M128.47 145.73H161.961V182.868H132.564C130.065 182.868 127.994 180.941 127.803 178.454L123.698 150.859C123.496 148.098 125.685 145.73 128.458 145.73H128.47Z" fill="#EEE7DB"/>
<path d="M142.368 145.73C153.261 145.73 181.92 145.73 181.92 145.73C184.693 145.73 186.883 148.086 186.68 150.859L182.575 178.454C182.384 180.941 180.314 182.868 177.815 182.868H146.462L142.357 145.73C142.357 145.73 131.476 145.73 142.368 145.73Z" fill="#E2DBCE"/>
<path d="M189.652 184.539L109.632 184.539C106.36 184.539 103.707 186.549 103.707 189.027L103.707 193.744C103.707 196.223 106.36 198.232 109.632 198.232L189.652 198.232C192.924 198.232 195.576 196.223 195.576 193.744L195.576 189.027C195.576 186.549 192.924 184.539 189.652 184.539Z" fill="#FBEECA"/>
<path d="M183.598 176.137L115.685 176.137C113.501 176.137 111.73 177.478 111.73 179.133L111.73 181.577C111.73 183.232 113.501 184.573 115.685 184.573L183.598 184.573C185.783 184.573 187.553 183.232 187.553 181.577L187.553 179.133C187.553 177.478 185.783 176.137 183.598 176.137Z" fill="#FFE4DD"/>
<path d="M282.898 204.443L284.757 184.924H335.733L337.945 204.835C338.229 207.391 339.054 209.858 340.365 212.07C342.155 215.089 339.978 218.908 336.469 218.908H283.658C280.254 218.908 278.223 215.115 280.112 212.283C281.674 209.939 282.631 207.246 282.898 204.443Z" fill="white"/>
<path d="M181.572 217.424H428.798C431.928 217.424 434.321 215.031 434.321 211.902V208.956C434.321 207.852 433.769 206.747 432.848 206.011L405.051 184.473V62.0563C405.051 57.4542 401.37 53.9565 396.768 53.9565H213.419C208.816 53.9565 205.135 57.6382 205.135 62.0563V184.841L177.338 206.195C176.417 206.931 175.865 208.036 175.865 209.14V212.086C175.865 215.031 178.442 217.424 181.572 217.424Z" fill="white"/>
<path d="M396.767 53.9565H213.419C208.816 53.9565 205.135 57.6382 205.135 62.0563V184.841H405.051V62.0563C405.051 57.4542 401.37 53.9565 396.767 53.9565Z" fill="white"/>
<path d="M431.676 209.025C431.676 209.722 430.94 210.594 429.652 210.594H180.545C179.257 210.594 178.521 209.897 178.521 209.025V214.78C178.521 215.478 179.257 216.35 180.545 216.35H429.652C430.94 216.35 431.676 215.652 431.676 214.78V209.025Z" fill="#242424"/>
<path opacity="0.5" d="M215.996 186.498L207.712 193.125C206.976 193.677 207.344 194.782 208.264 194.782H401.554C402.474 194.782 402.842 193.677 402.106 193.125L393.822 186.498H215.996Z" fill="#D3CFC9"/>
<path opacity="0.5" d="M334.914 199.016H276.191C275.639 199.016 275.087 199.385 274.903 199.937L273.798 203.25C273.43 204.171 274.166 205.091 275.087 205.091H335.098C336.019 205.091 336.755 204.171 336.387 203.25L334.914 199.016Z" fill="#D3CFC9"/>
<path d="M221.886 176.925C217.1 176.925 213.234 173.06 213.234 168.273V70.7082C213.234 65.9219 217.1 62.0562 221.886 62.0562H388.483C393.27 62.0562 397.135 65.9219 397.135 70.7082V168.273C397.135 173.06 393.27 176.925 388.483 176.925H221.886Z" fill="#A5CAF9"/>
<path d="M389.471 64.9112C392.068 64.9112 394.109 66.952 394.109 69.5494V169.304C394.109 171.901 392.068 173.942 389.471 173.942H220.706C218.108 173.942 216.067 171.901 216.067 169.304V69.5494C216.067 66.952 218.108 64.9112 220.706 64.9112H389.471ZM389.471 56.748H220.706C213.656 56.748 207.904 62.4994 207.904 69.5494V169.304C207.904 176.354 213.656 182.105 220.706 182.105H389.471C396.521 182.105 402.272 176.354 402.272 169.304V69.5494C402.272 62.4994 396.521 56.748 389.471 56.748Z" fill="white"/>
<g opacity="0.15">
<path d="M217.903 63.3311H271.033L353.227 175.453H293.251L213.326 67.2196C213.615 65.1935 215.453 63.3311 217.903 63.3311Z" fill="white"/>
<path d="M213.234 76.7891L285.574 175.433H240.507L213.234 138.248V76.7891Z" fill="white"/>
</g>
<path fill-rule="evenodd" clip-rule="evenodd" d="M405.34 187.917H205.348V182.581H405.34V187.917Z" fill="#242424"/>
<path fill-rule="evenodd" clip-rule="evenodd" d="M202.467 62.0563C202.467 56.1259 207.382 51.2886 213.419 51.2886H396.768C402.764 51.2886 407.719 55.9027 407.719 62.0563V183.165L434.482 203.902C434.493 203.91 434.504 203.919 434.515 203.928C436.019 205.131 436.989 206.981 436.989 208.956V211.902C436.989 216.505 433.401 220.092 428.798 220.092H181.572C177.145 220.092 173.197 216.675 173.197 212.086V209.14C173.197 207.165 174.167 205.315 175.671 204.112C175.685 204.101 175.699 204.09 175.713 204.079L202.467 183.526V62.0563ZM213.419 56.6246C210.251 56.6246 207.803 59.1506 207.803 62.0563V184.841C207.803 185.67 207.418 186.452 206.76 186.957L178.989 208.291C178.664 208.558 178.533 208.911 178.533 209.14V212.086C178.533 213.387 179.74 214.756 181.572 214.756H428.798C430.454 214.756 431.653 213.558 431.653 211.902V208.956C431.653 208.726 431.521 208.372 431.193 208.104C431.189 208.101 431.186 208.097 431.182 208.094L403.417 186.582C402.765 186.077 402.383 185.298 402.383 184.473V62.0563C402.383 59.0056 399.975 56.6246 396.768 56.6246H213.419Z" fill="#242424"/>
<path d="M257.408 37.8548L302.556 24.0663C303.367 23.7944 304.354 23.6687 305.21 23.6655C306.066 23.6687 307.061 23.7944 307.871 24.0663L353.019 37.8548C356.578 38.9542 358.992 42.0464 358.992 45.5736V67.0581C358.992 100.315 340.099 131.557 309.626 148.529C308.373 149.227 306.758 149.652 305.214 149.652C303.669 149.652 302.054 149.227 300.801 148.529C270.329 131.557 251.436 100.315 251.436 67.0581V45.5736C251.436 42.0464 253.849 38.9542 257.408 37.8548Z" fill="#FEEB29"/>
<path fill-rule="evenodd" clip-rule="evenodd" d="M253.885 26.3838L298.938 12.6243C301.188 11.899 303.424 11.6722 305.165 11.6657L305.21 11.6655L305.255 11.6657C306.985 11.6722 309.231 11.8964 311.489 12.6242L356.543 26.3838L356.561 26.3894C364.683 28.8982 370.992 36.311 370.992 45.5737V67.0581C370.992 104.911 349.524 140.043 315.465 159.013L309.626 148.529C340.099 131.557 358.992 100.315 358.992 67.0581V45.5737C358.992 42.0464 356.578 38.9543 353.019 37.8549L307.871 24.0664C307.061 23.7945 306.066 23.6688 305.21 23.6656C304.354 23.6688 303.367 23.7945 302.556 24.0664L257.408 37.8549C253.849 38.9543 251.436 42.0464 251.436 45.5737V67.0581C251.436 100.315 270.329 131.557 300.801 148.529C302.054 149.227 303.669 149.652 305.214 149.652C306.758 149.652 308.373 149.227 309.626 148.529L315.465 159.013C312.385 160.729 308.753 161.652 305.214 161.652C301.674 161.652 298.042 160.729 294.962 159.013C260.903 140.043 239.436 104.911 239.436 67.0581V45.5737C239.436 36.311 245.745 28.8982 253.867 26.3894L253.885 26.3838Z" fill="white"/>
<path d="M257.408 37.8548L302.556 24.0663C303.367 23.7944 304.354 23.6687 305.21 23.6655C306.066 23.6687 307.061 23.7944 307.871 24.0663L353.019 37.8548C356.578 38.9542 358.992 42.0464 358.992 45.5736V67.0581C358.992 100.315 340.099 131.557 309.626 148.529C308.373 149.227 306.758 149.652 305.214 149.652C303.669 149.652 302.054 149.227 300.801 148.529C270.329 131.557 251.436 100.315 251.436 67.0581V45.5736C251.436 42.0464 253.849 38.9542 257.408 37.8548Z" fill="#FEEB29"/>
<path fill-rule="evenodd" clip-rule="evenodd" d="M255.353 31.1634L300.439 17.394C302.094 16.8551 303.812 16.6708 305.184 16.6656L305.21 16.6655L305.236 16.6656C306.602 16.6707 308.328 16.8536 309.989 17.394L355.074 31.1634L355.085 31.1667C361.306 33.0882 365.992 38.7007 365.992 45.5737V67.0581C365.992 102.996 345.597 136.507 313.032 154.645L309.626 148.529C340.099 131.557 358.992 100.315 358.992 67.0581V45.5737C358.992 42.0464 356.578 38.9543 353.019 37.8549L307.871 24.0664C307.061 23.7944 306.066 23.6688 305.21 23.6656C304.354 23.6688 303.367 23.7944 302.556 24.0664L257.408 37.8549C253.849 38.9543 251.436 42.0464 251.436 45.5737V67.0581C251.436 100.315 270.329 131.557 300.801 148.529C302.054 149.227 303.669 149.652 305.214 149.652C306.758 149.652 308.373 149.227 309.626 148.529L313.032 154.645C310.713 155.936 307.922 156.652 305.214 156.652C302.505 156.652 299.714 155.936 297.395 154.645C264.83 136.507 244.436 102.996 244.436 67.0581V45.5737C244.436 38.7007 249.122 33.0882 255.342 31.1667L255.353 31.1634Z" fill="#242424"/>
<path d="M285.562 78.5317C283.193 76.1625 279.396 76.1625 277.091 78.5317C274.722 80.9009 274.722 84.6982 277.091 87.0025L289.781 99.6924C291.437 101.348 293.611 102.256 295.948 102.256C295.948 102.256 295.948 102.256 295.98 102.256C296.013 102.256 295.98 102.256 296.013 102.256C298.35 102.256 300.524 101.348 302.179 99.6924L333.336 68.5355C335.705 66.1663 335.705 62.3691 333.336 60.0648C330.967 57.6955 327.17 57.6955 324.865 60.0648L296.013 88.9173L285.562 78.5317Z" fill="#242424"/>
<path d="M213.75 48.2181C213.75 65.9209 199.399 80.2717 181.696 80.2717C163.993 80.2717 149.643 65.9209 149.643 48.2181C149.643 30.5154 163.993 16.1646 181.696 16.1646C199.399 16.1646 213.75 30.5154 213.75 48.2181Z" fill="#FEEB29"/>
<path fill-rule="evenodd" clip-rule="evenodd" d="M217.75 48.2181C217.75 68.13 201.608 84.2717 181.696 84.2717C161.784 84.2717 145.643 68.13 145.643 48.2181C145.643 28.3063 161.784 12.1646 181.696 12.1646C201.608 12.1646 217.75 28.3063 217.75 48.2181ZM181.696 80.2717C199.399 80.2717 213.75 65.9209 213.75 48.2181C213.75 30.5154 199.399 16.1646 181.696 16.1646C163.993 16.1646 149.643 30.5154 149.643 48.2181C149.643 65.9209 163.993 80.2717 181.696 80.2717Z" fill="white"/>
<path fill-rule="evenodd" clip-rule="evenodd" d="M181.212 29.2603C170.637 29.2603 162.064 37.8332 162.064 48.4084C162.064 58.9837 170.637 67.5566 181.212 67.5566C191.788 67.5566 200.361 58.9837 200.361 48.4084C200.361 37.8332 191.788 29.2603 181.212 29.2603ZM158.592 48.4084C158.592 35.9154 168.719 25.7878 181.212 25.7878C193.705 25.7878 203.833 35.9154 203.833 48.4084C203.833 60.9014 193.705 71.029 181.212 71.029C168.719 71.029 158.592 60.9014 158.592 48.4084Z" fill="#242424"/>
<path fill-rule="evenodd" clip-rule="evenodd" d="M179.637 34.8909C177.21 37.977 175.969 41.5281 175.098 45.0488C174.236 48.5373 173.773 51.7414 173.901 55.9965C173.969 58.1707 174.182 60.5275 174.684 62.5493C175.203 64.6414 175.949 66.0288 176.819 66.6748L176.824 66.6786C177.633 67.2838 178.884 67.4756 180.358 67.024C181.815 66.5774 183.295 65.5439 184.322 64.0454C185.356 62.5211 185.983 60.4342 186.394 58.0369C186.699 56.2627 186.866 54.4601 187.029 52.7054C187.087 52.0828 187.144 51.4662 187.207 50.8591L187.207 50.8556C187.381 49.1978 187.578 47.7859 187.761 46.4744C188.095 44.079 188.382 42.0182 188.401 39.405C188.416 37.406 188.267 35.1918 187.863 33.3791C187.66 32.4717 187.408 31.7314 187.121 31.188C186.828 30.6326 186.571 30.4173 186.429 30.3438L186.419 30.3391L186.419 30.3391C186.14 30.1931 185.314 30.145 183.775 31.0851C182.371 31.9426 180.861 33.3451 179.637 34.8909ZM188.022 27.2584C185.986 26.1988 183.66 27.0863 181.965 28.1217C180.134 29.24 178.329 30.949 176.913 32.7379L176.913 32.7379L176.91 32.7419C174.036 36.3951 172.645 40.5021 171.727 44.2152C170.801 47.961 170.291 51.4831 170.43 56.1018L170.43 56.1043C170.502 58.3879 170.727 61.0219 171.313 63.3856C171.882 65.6784 172.875 68.0703 174.747 69.4611C176.688 70.9115 179.175 71.0185 181.375 70.3441C183.592 69.6648 185.722 68.1478 187.189 66.0042L187.193 65.9985C188.646 63.8586 189.377 61.1862 189.816 58.6244C190.146 56.7052 190.332 54.7025 190.498 52.915C190.553 52.3217 190.605 51.7521 190.661 51.2171C190.808 49.8164 190.988 48.5112 191.165 47.2363C191.517 44.686 191.853 42.2573 191.873 39.4302C191.889 37.2866 191.735 34.7862 191.252 32.6228C191.011 31.5421 190.673 30.479 190.192 29.5675C189.719 28.6692 189.031 27.7794 188.022 27.2584Z" fill="#242424"/>
<path fill-rule="evenodd" clip-rule="evenodd" d="M190.242 39.7416C187.946 39.8483 185.591 40.306 183.645 41.1203C181.725 41.924 180.109 43.1177 178.437 44.6019C177.664 45.2882 176.898 46.019 176.08 46.7991C176.009 46.867 175.938 46.9354 175.865 47.0041C174.975 47.8536 174.028 48.7514 172.998 49.6518L172.997 49.6519C171.975 50.545 170.881 51.4303 169.847 52.2637C169.794 52.3063 169.741 52.3488 169.689 52.3911C168.703 53.1858 167.784 53.9266 166.993 54.6138C166.244 55.2648 165.677 55.8101 165.306 56.2509C165.853 56.3905 166.616 56.499 167.575 56.5699C169.73 56.7293 172.463 56.6742 174.993 56.6055L175.001 56.6053L175.001 56.6053C180.073 56.4914 183.598 56.3375 186.499 55.3129L186.506 55.3103C189.378 54.3105 191.807 52.4065 194.194 50.2569L194.205 50.2472L194.205 50.2473C195.418 49.1728 196.516 48.1355 197.374 47.1087C198.239 46.0724 198.766 45.1562 198.967 44.3409C199.163 43.5474 199.069 42.8124 198.699 42.1886C198.326 41.5605 197.569 40.8717 196.128 40.3888L196.12 40.3859C194.658 39.8878 192.55 39.6343 190.242 39.7416ZM164.895 56.3791C164.895 56.38 164.895 56.381 164.896 56.3819L164.894 56.3764C164.894 56.3773 164.894 56.3782 164.895 56.3791ZM197.236 37.0977C195.243 36.4193 192.674 36.1523 190.081 36.2728C187.474 36.394 184.704 36.9132 182.305 37.917C179.881 38.9313 177.935 40.4043 176.131 42.0052C175.309 42.735 174.499 43.5085 173.691 44.2796C173.617 44.3501 173.543 44.4207 173.469 44.4911C172.579 45.3398 171.68 46.1911 170.712 47.037M197.236 37.0977C199.278 37.7831 200.798 38.9211 201.685 40.4171C202.576 41.9185 202.725 43.6066 202.339 45.1728C201.957 46.7172 201.063 48.1093 200.039 49.3348C199.009 50.5679 197.752 51.7442 196.512 52.842C194.063 55.0473 191.208 57.3493 187.652 58.5884C184.131 59.8309 180.019 59.9659 175.084 60.0768C172.583 60.1446 169.676 60.2073 167.319 60.0329C166.15 59.9465 165.012 59.7954 164.091 59.5161C163.63 59.3765 163.141 59.1809 162.711 58.8878C162.281 58.5944 161.806 58.1295 161.586 57.4335C161.362 56.7361 161.482 56.0817 161.665 55.5937C161.848 55.1083 162.134 54.6689 162.425 54.2926C163.007 53.5409 163.837 52.7556 164.715 51.9924C165.557 51.2615 166.523 50.4829 167.491 49.7025C167.55 49.6551 167.609 49.6077 167.668 49.5603C168.706 48.7228 169.749 47.8785 170.712 47.0372" fill="#242424"/>
<path d="M457.045 153.857C457.045 171.56 442.694 185.91 424.991 185.91C407.288 185.91 392.938 171.56 392.938 153.857C392.938 136.154 407.288 121.803 424.991 121.803C442.694 121.803 457.045 136.154 457.045 153.857Z" fill="#FEEB29"/>
<path fill-rule="evenodd" clip-rule="evenodd" d="M461.045 153.857C461.045 173.769 444.903 189.91 424.991 189.91C405.079 189.91 388.938 173.769 388.938 153.857C388.938 133.945 405.079 117.803 424.991 117.803C444.903 117.803 461.045 133.945 461.045 153.857ZM424.991 185.91C442.694 185.91 457.045 171.56 457.045 153.857C457.045 136.154 442.694 121.803 424.991 121.803C407.288 121.803 392.938 136.154 392.938 153.857C392.938 171.56 407.288 185.91 424.991 185.91Z" fill="white"/>
<path d="M437.471 151.674L445.216 154.399C445.471 154.486 445.645 154.744 445.642 155.035V159.277C445.642 165.518 442.557 171.375 437.595 174.56L437.593 174.562L437.589 174.566L437.586 174.567C437.491 174.626 437.384 174.654 437.28 174.654C437.173 174.654 437.07 174.626 436.975 174.568L436.972 174.564L436.968 174.562L436.967 174.56L436.962 174.558C432.001 171.373 428.918 165.518 428.918 159.277V155.035C428.918 154.744 429.089 154.49 429.344 154.399L437.086 151.674C437.093 151.673 437.101 151.673 437.109 151.673C437.117 151.673 437.125 151.673 437.132 151.671C437.181 151.659 437.228 151.659 437.277 151.659C437.326 151.659 437.373 151.659 437.422 151.671C437.429 151.673 437.437 151.672 437.444 151.672C437.454 151.671 437.463 151.671 437.471 151.674Z" fill="#242424"/>
<path fill-rule="evenodd" clip-rule="evenodd" d="M403.77 143.179C403.77 139.638 406.64 136.768 410.18 136.768H439.336C442.877 136.768 445.747 139.638 445.747 143.179V148.28C445.747 149.461 444.79 150.417 443.61 150.417C442.43 150.417 441.473 149.461 441.473 148.28V143.179C441.473 141.999 440.516 141.042 439.336 141.042H410.18C409 141.042 408.043 141.999 408.043 143.179V160.665C408.043 161.845 409 162.801 410.18 162.801H415.012C416.782 162.801 418.217 164.237 418.217 166.007V169.364L423.467 163.512C424.255 162.633 425.606 162.56 426.484 163.348C427.363 164.136 427.436 165.487 426.648 166.365L419.535 174.296C417.572 176.485 413.944 175.096 413.944 172.156V167.075H410.18C406.64 167.075 403.77 164.205 403.77 160.665V143.179Z" fill="#242424"/>
<path d="M532.168 117.178C532.168 134.88 517.817 149.231 500.114 149.231C482.411 149.231 468.061 134.88 468.061 117.178C468.061 99.4749 482.411 85.124 500.114 85.124C517.817 85.124 532.168 99.4749 532.168 117.178Z" fill="#FEEB29"/>
<path fill-rule="evenodd" clip-rule="evenodd" d="M536.168 117.178C536.168 137.089 520.026 153.231 500.114 153.231C480.202 153.231 464.061 137.089 464.061 117.178C464.061 97.2658 480.202 81.124 500.114 81.124C520.026 81.124 536.168 97.2658 536.168 117.178ZM500.114 149.231C517.817 149.231 532.168 134.88 532.168 117.178C532.168 99.4749 517.817 85.124 500.114 85.124C482.411 85.124 468.061 99.4749 468.061 117.178C468.061 134.88 482.411 149.231 500.114 149.231Z" fill="white"/>
<path fill-rule="evenodd" clip-rule="evenodd" d="M486.498 113.099C489.247 108.583 493.801 105.231 500.112 105.231V109.505C495.548 109.505 492.265 111.844 490.148 115.322C487.989 118.868 487.11 123.535 487.567 127.736L483.318 128.198C482.772 123.18 483.79 117.547 486.498 113.099Z" fill="#242424"/>
<path fill-rule="evenodd" clip-rule="evenodd" d="M500.547 96.8945C509.152 97.1124 517.944 102.669 517.944 112.273C517.944 121.605 509.126 129.025 500.113 129.025V124.752C507.153 124.752 513.671 118.875 513.671 112.273C513.671 105.878 507.734 101.352 500.439 101.167L500.547 96.8945Z" fill="#242424"/>
<path fill-rule="evenodd" clip-rule="evenodd" d="M494.422 111.639C494.545 114.283 495.296 117.059 496.512 119.444C497.507 121.398 498.757 122.982 500.114 124.036C501.471 122.982 502.721 121.398 503.717 119.444C504.932 117.059 505.683 114.283 505.807 111.639C504.191 110.281 502.222 109.505 500.114 109.505C498.006 109.505 496.037 110.281 494.422 111.639ZM491.507 108.508C493.854 106.474 496.842 105.231 500.114 105.231C503.386 105.231 506.375 106.474 508.721 108.508C509.655 109.317 510.128 110.494 510.083 111.674C509.954 114.999 509.03 118.43 507.525 121.384C506.029 124.319 503.872 126.951 501.152 128.462L500.114 129.039L499.076 128.462C496.356 126.951 494.199 124.319 492.703 121.384C491.198 118.43 490.275 114.999 490.146 111.674C490.1 110.494 490.573 109.317 491.507 108.508Z" fill="#242424"/>
<path fill-rule="evenodd" clip-rule="evenodd" d="M500.114 101.168C491.272 101.168 484.104 108.335 484.104 117.177C484.104 126.019 491.272 133.187 500.114 133.187C508.956 133.187 516.124 126.019 516.124 117.177C516.124 108.335 508.956 101.168 500.114 101.168ZM479.83 117.177C479.83 105.975 488.911 96.8938 500.114 96.8938C511.316 96.8938 520.397 105.975 520.397 117.177C520.397 128.38 511.316 137.461 500.114 137.461C488.911 137.461 479.83 128.38 479.83 117.177Z" fill="#242424"/>
<path d="M237.189 131.176C237.189 148.879 222.838 163.23 205.136 163.23C187.433 163.23 173.082 148.879 173.082 131.176C173.082 113.473 187.433 99.1226 205.136 99.1226C222.838 99.1226 237.189 113.473 237.189 131.176Z" fill="#FEEB29"/>
<path fill-rule="evenodd" clip-rule="evenodd" d="M241.189 131.176C241.189 151.088 225.047 167.23 205.136 167.23C185.224 167.23 169.082 151.088 169.082 131.176C169.082 111.264 185.224 95.1226 205.136 95.1226C225.047 95.1226 241.189 111.264 241.189 131.176ZM205.136 163.23C222.838 163.23 237.189 148.879 237.189 131.176C237.189 113.473 222.838 99.1226 205.136 99.1226C187.433 99.1226 173.082 113.473 173.082 131.176C173.082 148.879 187.433 163.23 205.136 163.23Z" fill="white"/>
<path fill-rule="evenodd" clip-rule="evenodd" d="M206.238 111.532C205.518 111.326 204.755 111.326 204.035 111.532L189.911 115.567C189.538 120.346 190.001 127.423 192.227 134.185C194.507 141.112 198.542 147.447 205.137 150.86C211.731 147.447 215.766 141.112 218.046 134.185C220.272 127.423 220.735 120.346 220.362 115.567L206.238 111.532ZM202.861 107.422C204.348 106.998 205.925 106.998 207.412 107.422L222.148 111.633C223.426 111.998 224.42 113.101 224.558 114.505C225.079 119.805 224.639 127.825 222.105 135.522C219.572 143.218 214.846 150.865 206.593 154.912C205.676 155.361 204.597 155.361 203.68 154.912C195.427 150.865 190.701 143.218 188.168 135.522C185.634 127.825 185.194 119.805 185.715 114.505C185.853 113.101 186.847 111.998 188.125 111.633L202.861 107.422Z" fill="#242424"/>
<path d="M201.26 129.972C200.84 128.928 200.608 127.787 200.608 126.593C200.608 123.965 201.727 121.599 203.514 119.945C199.832 120.611 196.925 123.503 196.236 127.176C197.382 128.759 199.193 129.828 201.26 129.972Z" fill="#242424"/>
<path d="M202.565 132.216C202.293 132.24 202.018 132.253 201.74 132.253C199.656 132.253 197.736 131.549 196.205 130.365C196.923 134.649 200.649 137.913 205.137 137.913C207.511 137.913 209.672 136.999 211.287 135.504C210.761 135.599 210.219 135.649 209.665 135.649C206.788 135.649 204.224 134.307 202.565 132.216Z" fill="#242424"/>
<path d="M208.533 123.196C208.533 126.29 206.464 128.901 203.634 129.721C203.148 128.785 202.872 127.721 202.872 126.593C202.872 123.573 204.843 121.014 207.568 120.13C207.66 120.156 207.752 120.183 207.844 120.212C208.285 121.112 208.533 122.125 208.533 123.196Z" fill="#242424"/>
<path d="M210.672 121.688C210.754 122.179 210.797 122.682 210.797 123.196C210.797 127.015 208.434 130.281 205.09 131.613C206.297 132.714 207.903 133.385 209.665 133.385C211.122 133.385 212.471 132.926 213.577 132.146C213.975 131.126 214.193 130.017 214.193 128.857C214.193 125.939 212.814 123.344 210.672 121.688Z" fill="#242424"/>
<path d="M169.578 174.436C169.578 192.139 155.227 206.49 137.524 206.49C119.822 206.49 105.471 192.139 105.471 174.436C105.471 156.733 119.822 142.382 137.524 142.382C155.227 142.382 169.578 156.733 169.578 174.436Z" fill="#FEEB29"/>
<path fill-rule="evenodd" clip-rule="evenodd" d="M173.578 174.436C173.578 194.348 157.436 210.49 137.524 210.49C117.612 210.49 101.471 194.348 101.471 174.436C101.471 154.524 117.612 138.382 137.524 138.382C157.436 138.382 173.578 154.524 173.578 174.436ZM137.524 206.49C155.227 206.49 169.578 192.139 169.578 174.436C169.578 156.733 155.227 142.382 137.524 142.382C119.822 142.382 105.471 156.733 105.471 174.436C105.471 192.139 119.822 206.49 137.524 206.49Z" fill="white"/>
<path d="M154.134 174.704L147.515 172.375C147.503 172.37 147.488 172.375 147.473 172.373C147.431 172.362 147.391 172.362 147.349 172.362C147.307 172.362 147.267 172.362 147.225 172.373C147.213 172.375 147.198 172.373 147.186 172.375L140.569 174.704C140.351 174.782 140.205 174.999 140.205 175.248V178.873C140.205 184.207 142.84 189.211 147.08 191.933L147.084 191.935L147.085 191.936L147.089 191.938L147.091 191.941C147.172 191.991 147.261 192.015 147.352 192.015C147.441 192.015 147.532 191.991 147.613 191.94L147.615 191.94L147.62 191.937L147.621 191.935C151.862 189.213 154.498 184.207 154.498 178.873V175.248C154.501 174.999 154.352 174.779 154.134 174.704Z" fill="#242424"/>
<path fill-rule="evenodd" clip-rule="evenodd" d="M147.351 175.715L143.41 177.102V178.873C143.41 182.508 144.928 185.883 147.352 188.108C149.775 185.882 151.293 182.507 151.293 178.873V177.102L147.351 175.715ZM147.08 191.933C142.84 189.211 140.205 184.207 140.205 178.873V175.248C140.205 174.999 140.351 174.782 140.569 174.704L147.186 172.375C147.192 172.374 147.199 172.374 147.205 172.374C147.212 172.374 147.219 172.374 147.225 172.373C147.267 172.362 147.307 172.362 147.349 172.362C147.391 172.362 147.431 172.362 147.473 172.373C147.479 172.374 147.486 172.374 147.492 172.373C147.5 172.373 147.508 172.372 147.515 172.375L154.134 174.704C154.352 174.779 154.501 174.999 154.498 175.248M147.08 191.933L147.084 191.935L147.08 191.933ZM147.085 191.936L147.125 191.887L147.091 191.941L147.38 191.695L147.596 191.913L147.615 191.94L147.611 191.928L147.62 191.937L147.608 191.921L147.488 191.602L149.527 189.858L149.267 189.554L149.012 189.373L148.662 189.094M147.487 191.298L147.416 191.413L147.487 191.298ZM147.353 175.567C147.352 175.567 147.35 175.567 147.349 175.567C147.348 175.567 147.347 175.567 147.346 175.567M147.349 175.567C147.35 175.567 147.352 175.567 147.353 175.567L147.349 175.567Z" fill="#242424"/>
<path fill-rule="evenodd" clip-rule="evenodd" d="M120.505 161.516C121.439 160.602 122.716 160.039 124.125 160.039H149.138C150.54 160.039 151.813 160.597 152.745 161.503C152.762 161.519 152.779 161.536 152.796 161.553C153.734 162.49 154.314 163.785 154.314 165.215V170.575C154.314 171.46 153.596 172.178 152.711 172.178C151.826 172.178 151.109 171.46 151.109 170.575V165.215C151.109 165.149 151.105 165.083 151.099 165.018L139.616 173.11C139.616 173.11 139.616 173.11 139.615 173.111M148.05 163.245L137.768 170.491C137.087 170.972 136.176 170.972 135.495 170.491L125.196 163.245H148.05ZM120.505 161.516C120.488 161.532 120.472 161.548 120.455 161.565C119.524 162.501 118.949 163.791 118.949 165.215V183.082C118.949 184.503 119.524 185.793 120.45 186.727C121.386 187.67 122.689 188.258 124.125 188.258H138.418C139.303 188.258 140.021 187.54 140.021 186.655C140.021 185.77 139.303 185.052 138.418 185.052H124.195L134.301 173.503C135.99 174.355 138.037 174.225 139.615 173.111M131.628 171.69L122.163 165.03C122.157 165.091 122.155 165.153 122.155 165.215V182.517L131.628 171.69Z" fill="#242424"/>
<path d="M146.844 101.176C146.844 118.879 132.493 133.23 114.79 133.23C97.0872 133.23 82.7363 118.879 82.7363 101.176C82.7363 83.4734 97.0872 69.1226 114.79 69.1226C132.493 69.1226 146.844 83.4734 146.844 101.176Z" fill="#FEEB29"/>
<path fill-rule="evenodd" clip-rule="evenodd" d="M150.844 101.176C150.844 121.088 134.702 137.23 114.79 137.23C94.8781 137.23 78.7363 121.088 78.7363 101.176C78.7363 81.2643 94.8781 65.1226 114.79 65.1226C134.702 65.1226 150.844 81.2643 150.844 101.176ZM114.79 133.23C132.493 133.23 146.844 118.879 146.844 101.176C146.844 83.4734 132.493 69.1226 114.79 69.1226C97.0872 69.1226 82.7363 83.4734 82.7363 101.176C82.7363 118.879 97.0872 133.23 114.79 133.23Z" fill="white"/>
<path fill-rule="evenodd" clip-rule="evenodd" d="M104.007 85.1357C104.007 83.9555 104.964 82.9988 106.144 82.9988H128.046C131.242 82.9988 133.833 85.5898 133.833 88.7861V107.038C133.833 108.218 132.877 109.175 131.696 109.175C130.516 109.175 129.559 108.218 129.559 107.038V88.7861C129.559 87.9502 128.882 87.2726 128.046 87.2726H106.144C104.964 87.2726 104.007 86.3159 104.007 85.1357ZM103.049 100.44C103.049 99.2601 104.006 98.3034 105.186 98.3034H117.962C119.142 98.3034 120.099 99.2601 120.099 100.44C120.099 101.62 119.142 102.577 117.962 102.577H105.186C104.006 102.577 103.049 101.62 103.049 100.44ZM103.049 107.741C103.049 106.561 104.006 105.604 105.186 105.604H110.661C111.841 105.604 112.798 106.561 112.798 107.741C112.798 108.921 111.841 109.878 110.661 109.878H105.186C104.006 109.878 103.049 108.921 103.049 107.741Z" fill="#242424"/>
<path fill-rule="evenodd" clip-rule="evenodd" d="M95.748 93.4506C95.748 91.0902 97.6615 89.1768 100.022 89.1768H123.126C125.486 89.1768 127.4 91.0902 127.4 93.4506V112.904C127.4 115.265 125.486 117.178 123.126 117.178H100.022C97.6615 117.178 95.748 115.265 95.748 112.904V93.4506ZM123.126 93.4506L100.022 93.4506V112.904H123.126V93.4506Z" fill="#242424"/>
<path fill-rule="evenodd" clip-rule="evenodd" d="M97.166 93.8502C97.166 92.9651 97.8836 92.2476 98.7687 92.2476H124.362C125.247 92.2476 125.965 92.9651 125.965 93.8502C125.965 94.7354 125.247 95.4529 124.362 95.4529H98.7687C97.8836 95.4529 97.166 94.7354 97.166 93.8502Z" fill="#242424"/>
<path d="M464.556 65.8456C464.556 83.5483 450.206 97.8992 432.503 97.8992C414.8 97.8992 400.449 83.5483 400.449 65.8456C400.449 48.1429 414.8 33.792 432.503 33.792C450.206 33.792 464.556 48.1429 464.556 65.8456Z" fill="#FEEB29"/>
<path fill-rule="evenodd" clip-rule="evenodd" d="M468.556 65.8456C468.556 85.7574 452.415 101.899 432.503 101.899C412.591 101.899 396.449 85.7574 396.449 65.8456C396.449 45.9337 412.591 29.792 432.503 29.792C452.415 29.792 468.556 45.9337 468.556 65.8456ZM432.503 97.8992C450.206 97.8992 464.556 83.5483 464.556 65.8456C464.556 48.1429 450.206 33.792 432.503 33.792C414.8 33.792 400.449 48.1429 400.449 65.8456C400.449 83.5483 414.8 97.8992 432.503 97.8992Z" fill="white"/>
<path d="M441.505 63.9292L449.453 66.7251C449.714 66.8152 449.893 67.079 449.89 67.3782V71.7314C449.89 78.137 446.724 84.1479 441.632 87.4169L441.63 87.4187L441.625 87.4224L441.623 87.4232C441.525 87.484 441.415 87.5128 441.308 87.5128C441.199 87.5128 441.093 87.4843 440.995 87.4242L440.992 87.4207L440.989 87.418L440.987 87.4166L440.982 87.4147C435.891 84.1455 432.727 78.1363 432.727 71.7314V67.3782C432.727 67.079 432.902 66.8184 433.164 66.7251L441.109 63.9292C441.116 63.9276 441.125 63.9276 441.133 63.9276C441.141 63.9276 441.149 63.9276 441.157 63.926C441.207 63.9131 441.255 63.9131 441.305 63.9131C441.356 63.9131 441.403 63.9131 441.454 63.926C441.462 63.9273 441.469 63.9269 441.477 63.9265C441.487 63.926 441.496 63.9255 441.505 63.9292Z" fill="#242424"/>
<path fill-rule="evenodd" clip-rule="evenodd" d="M445.616 69.906V71.7314C445.616 75.8365 443.96 79.6483 441.308 82.2365C438.656 79.6487 437 75.8372 437 71.7314V69.9057L441.307 68.3902L445.616 69.906ZM441.109 63.9292C441.116 63.9276 441.125 63.9276 441.133 63.9276C441.141 63.9276 441.149 63.9276 441.157 63.926C441.207 63.9131 441.255 63.9131 441.305 63.9131C441.356 63.9131 441.403 63.9131 441.454 63.926C441.462 63.9273 441.469 63.9269 441.477 63.9265C441.487 63.926 441.496 63.9255 441.505 63.9292L449.453 66.7251C449.714 66.8152 449.893 67.079 449.89 67.3782V71.7314C449.89 78.137 446.724 84.1479 441.632 87.4169L441.63 87.4187L441.625 87.4224L441.623 87.4232C441.525 87.484 441.415 87.5128 441.308 87.5128C441.199 87.5128 441.093 87.4843 440.995 87.4242L440.992 87.4207L440.989 87.418L440.987 87.4166L440.982 87.4147C435.891 84.1455 432.727 78.1363 432.727 71.7314V67.3782C432.727 67.079 432.902 66.8184 433.164 66.7251L441.109 63.9292Z" fill="#242424"/>
<path fill-rule="evenodd" clip-rule="evenodd" d="M416.697 48.6083C416.697 46.2479 418.611 44.3345 420.971 44.3345H439.172C441.532 44.3345 443.446 46.2479 443.446 48.6083V59.7345C443.446 60.9147 442.489 61.8714 441.309 61.8714C440.129 61.8714 439.172 60.9147 439.172 59.7345V55.3625H420.971V76.5105H427.677C428.857 76.5105 429.814 77.4672 429.814 78.6474C429.814 79.8275 428.857 80.7843 427.677 80.7843H420.971V83.5116H430.071C431.252 83.5116 432.208 84.4683 432.208 85.6485C432.208 86.8287 431.252 87.7854 430.071 87.7854H420.971C418.611 87.7854 416.697 85.872 416.697 83.5116V48.6083ZM420.971 51.0887H439.172V48.6083L420.971 48.6083V51.0887Z" fill="#242424"/>
</svg>
