<svg width="264" height="144" viewBox="0 0 264 144" fill="none" xmlns="http://www.w3.org/2000/svg">
<path opacity="0.75" d="M72.4326 115.7C55.0471 109.466 28.6133 106.068 28.6133 77.8714C28.6133 49.6751 65.8064 37.9898 75.1359 33.4372C106.458 18.1492 107.33 36.3567 138.652 21.0687C146.579 17.2063 155.408 13.1236 166.297 12.6757C181.637 12.0516 186.187 10.6155 202.644 16.8899C219.101 23.1643 238.588 33.3921 239.139 57.076C239.69 80.7598 223.155 94.1479 195.441 97.6088C167.728 101.07 175.234 126.745 131.06 131.914C86.8856 137.084 83.0642 119.511 72.4326 115.7Z" fill="#F4F1ED"/>
<g opacity="0.2">
<path fill-rule="evenodd" clip-rule="evenodd" d="M220.816 50.5783C221.137 50.1424 221.736 49.6754 222.574 49.6754H237.86C238.698 49.6754 239.297 50.1424 239.618 50.5783C239.941 51.0166 240.086 51.5337 240.086 52.0251C240.086 52.5144 239.942 53.0341 239.615 53.4761C239.289 53.9179 238.688 54.3748 237.86 54.3748H222.574C221.736 54.3748 221.137 53.9077 220.816 53.4718C220.493 53.0335 220.348 52.5165 220.348 52.0251C220.348 51.5337 220.493 51.0166 220.816 50.5783Z" fill="#CBB99B"/>
<path fill-rule="evenodd" clip-rule="evenodd" d="M211.417 59.9771C211.738 59.5412 212.337 59.0741 213.175 59.0741H228.461C229.299 59.0741 229.898 59.5412 230.219 59.9771C230.542 60.4154 230.687 60.9324 230.687 61.4238C230.687 61.9132 230.544 62.4329 230.217 62.8748C229.89 63.3167 229.289 63.7735 228.461 63.7735H213.175C212.337 63.7735 211.738 63.3065 211.417 62.8706C211.094 62.4323 210.949 61.9152 210.949 61.4238C210.949 60.9324 211.094 60.4154 211.417 59.9771Z" fill="#CBB99B"/>
<path fill-rule="evenodd" clip-rule="evenodd" d="M207.662 126.708C207.341 126.272 206.742 125.805 205.904 125.805H190.618C189.78 125.805 189.181 126.272 188.86 126.708C188.537 127.147 188.392 127.664 188.392 128.155C188.392 128.644 188.536 129.164 188.863 129.606C189.189 130.048 189.79 130.505 190.618 130.505H205.904C206.742 130.505 207.341 130.038 207.662 129.602C207.985 129.164 208.13 128.646 208.13 128.155C208.13 127.664 207.985 127.147 207.662 126.708Z" fill="#CBB99B"/>
<path fill-rule="evenodd" clip-rule="evenodd" d="M64.8008 127.648C64.4798 127.212 63.8807 126.745 63.0428 126.745H47.7571C46.9192 126.745 46.3201 127.212 45.999 127.648C45.6762 128.086 45.5312 128.604 45.5312 129.095C45.5312 129.584 45.6744 130.104 46.0014 130.546C46.3282 130.988 46.9287 131.445 47.7571 131.445H63.0428C63.8807 131.445 64.4798 130.978 64.8008 130.542C65.1236 130.103 65.2686 129.586 65.2686 129.095C65.2686 128.604 65.1236 128.086 64.8008 127.648Z" fill="#CBB99B"/>
<path fill-rule="evenodd" clip-rule="evenodd" d="M194.032 35.2666C194.032 33.882 195.156 32.7576 196.541 32.7576H215.785C217.169 32.7576 218.294 33.882 218.294 35.2666V35.2773L218.294 35.288C218.278 36.6481 217.181 37.7756 215.785 37.7756H196.541C195.156 37.7756 194.032 36.6513 194.032 35.2666Z" fill="#CBB99B"/>
<path fill-rule="evenodd" clip-rule="evenodd" d="M28.9195 117.607C29.0915 117.275 29.6644 116.407 30.8189 116.407H45.2055C46.36 116.407 46.9329 117.275 47.1049 117.607C47.3278 118.037 47.411 118.503 47.411 118.916C47.411 119.328 47.3289 119.795 47.1034 120.229C46.9251 120.572 46.3497 121.425 45.2055 121.425H30.8189C29.6644 121.425 29.0915 120.557 28.9195 120.224C28.6966 119.794 28.6134 119.329 28.6134 118.916C28.6134 118.503 28.6966 118.037 28.9195 117.607Z" fill="#CBB99B"/>
<path fill-rule="evenodd" clip-rule="evenodd" d="M23.9141 28.5282C23.9141 27.1566 25.0523 26.1785 26.2842 26.1785H41.2813C42.5133 26.1785 43.6515 27.1566 43.6515 28.5282V28.5393L43.6513 28.5505C43.6354 29.8953 42.5263 30.8779 41.2813 30.8779H26.2842C25.0523 30.8779 23.9141 29.8997 23.9141 28.5282Z" fill="#CBB99B"/>
<path fill-rule="evenodd" clip-rule="evenodd" d="M32.3729 18.1895C32.3729 16.6317 33.7425 15.8398 34.8008 15.8398H51.5623C52.6206 15.8398 53.9901 16.6318 53.9901 18.1895V18.202L53.9899 18.2144C53.9697 19.742 52.6376 20.5392 51.5623 20.5392H34.8008C33.7425 20.5392 32.3729 19.7473 32.3729 18.1895Z" fill="#CBB99B"/>
</g>
<path d="M68.9676 118.459H190.217C196.405 118.459 201.437 113.435 201.437 107.239V30.7209C201.437 24.5255 196.412 19.5014 190.217 19.5014H68.9676C62.7722 19.5014 57.748 24.5255 57.748 30.7209V107.239C57.748 113.435 62.7722 118.459 68.9676 118.459Z" fill="white"/>
<path d="M58.7656 32.7498C58.7656 26.0244 64.5089 20.5723 71.5936 20.5723H188.633C195.718 20.5723 201.461 26.0243 201.461 32.7498V35.3163H188.613H126.529H58.7656V32.7498Z" fill="#555551"/>
<path d="M73.4754 28.9008C73.4754 31.0141 71.7622 32.7274 69.6488 32.7274C67.5355 32.7274 65.8223 31.0141 65.8223 28.9008C65.8223 26.7874 67.5355 25.0742 69.6488 25.0742C71.7622 25.0742 73.4754 26.7874 73.4754 28.9008Z" fill="#D2E9CA"/>
<path d="M85.1805 28.9008C85.1805 31.0141 83.4673 32.7274 81.3539 32.7274C79.2406 32.7274 77.5273 31.0141 77.5273 28.9008C77.5273 26.7874 79.2406 25.0742 81.3539 25.0742C83.4673 25.0742 85.1805 26.7874 85.1805 28.9008Z" fill="#FEEB29"/>
<path d="M96.8836 28.9008C96.8836 31.0141 95.1704 32.7274 93.057 32.7274C90.9437 32.7274 89.2305 31.0141 89.2305 28.9008C89.2305 26.7874 90.9437 25.0742 93.057 25.0742C95.1704 25.0742 96.8836 26.7874 96.8836 28.9008Z" fill="#F48162"/>
<path fill-rule="evenodd" clip-rule="evenodd" d="M190.43 22.6055H68.8691C63.8986 22.6055 59.8691 26.6349 59.8691 31.6055V69.3588V107.112C59.8691 112.083 63.8986 116.112 68.8691 116.112H190.43C195.4 116.112 199.43 112.083 199.43 107.112V31.6055C199.43 26.6349 195.4 22.6055 190.43 22.6055ZM68.8691 18.6055C61.6894 18.6055 55.8691 24.4258 55.8691 31.6055V107.112C55.8691 114.292 61.6894 120.112 68.8691 120.112H190.43C197.609 120.112 203.43 114.292 203.43 107.112V31.6055C203.43 24.4258 197.609 18.6055 190.43 18.6055H68.8691Z" fill="#242424"/>
<path d="M64.8223 39.8467V105.461C64.8223 109.095 67.782 112.055 71.4157 112.055H186.769C190.402 112.055 193.362 109.095 193.362 105.461V39.8467H64.8223Z" fill="#CFE3FC"/>
<rect x="70.3926" y="45.2461" width="20.559" height="18.9453" rx="3" fill="#BDD8FB"/>
<rect x="93.5254" y="45.2461" width="20.559" height="18.9453" rx="3" fill="#ABCDFA"/>
<rect x="116.656" y="66.4688" width="20.559" height="18.9453" rx="3" fill="#ABCDFA"/>
<rect x="139.787" y="66.4688" width="20.559" height="18.9453" rx="3" fill="#BDD8FB"/>
<rect x="116.574" y="45.2422" width="43.7723" height="18.9453" rx="3" fill="#BDD8FB"/>
<rect x="116.574" y="87.707" width="43.7723" height="18.9453" rx="3" fill="#BDD8FB"/>
<rect x="168.17" y="66.5391" width="21.6656" height="40.1122" rx="3" fill="#ABCDFA"/>
<rect x="168.17" y="45.2598" width="21.6656" height="18.9325" rx="3" fill="#BDD8FB"/>
<rect x="70.3926" y="66.4844" width="43.6906" height="40.1488" rx="3" fill="#BDD8FB"/>
<path d="M177.065 67.0598C177.065 63.0727 176.308 59.3137 174.775 55.8011C173.242 52.2975 171.171 49.2228 168.553 46.6043C165.925 43.9858 162.868 41.9146 159.356 40.3819C155.852 38.8582 152.093 38.0918 148.097 38.0918C144.101 38.0918 140.342 38.8491 136.811 40.3545C133.28 41.869 130.205 43.931 127.587 46.5495C124.968 49.1772 122.906 52.2428 121.392 55.7646C119.886 59.2955 119.129 63.0545 119.129 67.0507C119.129 71.0469 119.886 74.7968 121.419 78.3095C122.943 81.8221 125.023 84.8877 127.641 87.5063C130.26 90.1248 133.326 92.1959 136.838 93.7287C140.342 95.2523 144.101 96.0187 148.097 96.0187C152.093 96.0187 155.843 95.2615 159.356 93.7287C162.859 92.205 165.925 90.1248 168.553 87.5063C171.171 84.8877 173.242 81.8221 174.775 78.3095C176.299 74.8059 177.065 71.0469 177.065 67.0507" fill="#CFE3FC"/>
<path d="M177.778 55.7363H154.858C153.7 55.7363 152.76 56.6761 152.76 57.8348C152.76 58.9935 153.7 59.9333 154.858 59.9333H177.778C178.937 59.9333 179.868 58.9935 179.868 57.8348C179.868 56.6761 178.928 55.7363 177.778 55.7363Z" fill="#87B8F7"/>
<path d="M179.082 64.5605H154.858C153.7 64.5605 152.76 65.5003 152.76 66.659C152.76 67.8178 153.7 68.7575 154.858 68.7575H179.082C180.241 68.7575 181.172 67.8178 181.172 66.659C181.172 65.5003 180.232 64.5605 179.082 64.5605Z" fill="#87B8F7"/>
<path d="M168.781 73.3926H154.858C153.7 73.3926 152.76 74.3323 152.76 75.4819C152.76 76.6315 153.7 77.5804 154.858 77.5804H168.781C169.94 77.5804 170.87 76.6406 170.87 75.4819C170.87 74.3232 169.931 73.3926 168.781 73.3926Z" fill="#87B8F7"/>
<path d="M146.428 73.5825C146.136 71.7669 145.224 70.0516 143.865 68.8108C142.131 67.2415 139.695 66.466 137.368 66.7671C139.658 66.6941 141.812 65.0426 142.487 62.8529C143.153 60.6632 142.286 58.0903 140.434 56.7491C138.573 55.4079 135.863 55.3988 133.993 56.7217C132.122 58.0447 131.237 60.6176 131.894 62.8164C132.551 65.0153 134.695 66.6758 136.985 66.7671C134.321 66.4112 131.502 67.5152 129.777 69.5863C128.509 71.11 127.87 73.1263 127.962 75.1062C127.98 75.5532 128.035 76.0003 128.135 76.4383C128.199 76.7394 128.245 77.1408 128.564 77.2868C128.993 77.4784 129.549 77.4966 130.015 77.5331C130.571 77.5787 131.137 77.5788 131.693 77.5788C135.753 77.5788 139.823 77.5787 143.883 77.5879C144.494 77.5879 145.151 77.5787 145.662 77.2229C146.319 76.7667 146.52 75.8817 146.538 75.0788C146.556 74.577 146.519 74.0752 146.437 73.5825H146.428Z" fill="#87B8F7"/>
<path d="M172.304 87.3069L166.205 93.4062L173.518 100.625L179.617 94.5252L172.304 87.3069Z" fill="white"/>
<path fill-rule="evenodd" clip-rule="evenodd" d="M184.147 67.0557C184.147 86.9158 168.047 103.016 148.187 103.016C128.326 103.016 112.227 86.9158 112.227 67.0557C112.227 47.1955 128.326 31.0957 148.187 31.0957C168.047 31.0957 184.147 47.1955 184.147 67.0557ZM148.187 99.0157C165.838 99.0157 180.147 84.7067 180.147 67.0557C180.147 49.4047 165.838 35.0957 148.187 35.0957C130.536 35.0957 116.227 49.4047 116.227 67.0557C116.227 84.7067 130.536 99.0157 148.187 99.0157Z" fill="white"/>
<path fill-rule="evenodd" clip-rule="evenodd" d="M148.186 38.7344C132.545 38.7344 119.865 51.4141 119.865 67.0554C119.865 82.6966 132.545 95.3764 148.186 95.3764C163.827 95.3764 176.507 82.6966 176.507 67.0554C176.507 51.4141 163.827 38.7344 148.186 38.7344ZM115.865 67.0554C115.865 49.205 130.336 34.7344 148.186 34.7344C166.037 34.7344 180.507 49.205 180.507 67.0554C180.507 84.9058 166.037 99.3764 148.186 99.3764C130.336 99.3764 115.865 84.9058 115.865 67.0554Z" fill="#242424"/>
<path opacity="0.5" d="M162.648 52.2803C154.685 44.4442 141.878 44.5467 134.042 52.5092L162.877 80.8862C170.713 72.9236 170.61 60.1163 162.648 52.2803Z" fill="white"/>
<path fill-rule="evenodd" clip-rule="evenodd" d="M213.891 123.64C214.341 124.704 214.566 125.776 214.566 126.96C214.566 128.145 214.341 129.269 213.891 130.326C213.441 131.383 212.826 132.313 212.039 133.092C211.252 133.879 210.33 134.494 209.273 134.944C208.216 135.393 207.062 135.618 205.908 135.618C204.753 135.618 203.644 135.393 202.587 134.944C201.53 134.494 200.6 133.872 199.798 133.062L174.916 108.187C173.718 106.989 173.045 105.364 173.045 103.67C173.045 101.976 173.718 100.351 174.916 99.1531L178.1 95.9687C179.298 94.7707 180.923 94.0977 182.617 94.0977C184.312 94.0977 185.937 94.7707 187.135 95.9687L212.017 120.851C212.811 121.653 213.441 122.583 213.891 123.64ZM215.566 136.636C216.847 135.366 217.811 133.884 218.492 132.284C219.214 130.586 219.566 128.794 219.566 126.96C219.566 125.093 219.201 123.361 218.497 121.694L218.492 121.682C217.791 120.036 216.803 118.578 215.569 117.332L215.561 117.324L190.67 92.4332C188.534 90.2975 185.638 89.0977 182.617 89.0977C179.597 89.0977 176.7 90.2975 174.565 92.4332L171.38 95.6176C169.245 97.7532 168.045 100.65 168.045 103.67C168.045 106.691 169.245 109.588 171.381 111.723L196.246 136.581C196.249 136.584 196.252 136.587 196.256 136.59C197.529 137.873 199.002 138.852 200.629 139.544C202.31 140.26 204.086 140.618 205.908 140.618C207.702 140.618 209.526 140.27 211.231 139.544C212.846 138.857 214.307 137.893 215.566 136.636Z" fill="white"/>
<path d="M170.95 88.6614L167.582 92.0293L174.873 99.2687L178.241 95.9008L170.95 88.6614Z" fill="#242424"/>
<path d="M182.617 94.0977C180.923 94.0977 179.298 94.7707 178.1 95.9687L174.916 99.1531C173.718 100.351 173.045 101.976 173.045 103.67C173.045 105.364 173.718 106.989 174.916 108.187L199.798 133.062C200.6 133.872 201.53 134.494 202.587 134.944C203.644 135.393 204.753 135.618 205.908 135.618C207.062 135.618 208.216 135.393 209.273 134.944C210.33 134.494 211.252 133.879 212.039 133.092C212.826 132.313 213.441 131.383 213.891 130.326C214.341 129.269 214.566 128.145 214.566 126.96C214.566 125.776 214.341 124.704 213.891 123.64C213.441 122.583 212.812 121.653 212.017 120.851L187.135 95.9687C185.937 94.7707 184.312 94.0977 182.617 94.0977Z" fill="#FEEB29"/>
<path fill-rule="evenodd" clip-rule="evenodd" d="M182.617 96.0977C181.454 96.0977 180.337 96.56 179.514 97.3829L176.33 100.567C175.507 101.39 175.045 102.506 175.045 103.67C175.045 104.834 175.507 105.95 176.33 106.773L201.219 131.655C201.832 132.273 202.543 132.751 203.37 133.103C204.177 133.447 205.02 133.618 205.908 133.618C206.806 133.618 207.693 133.443 208.49 133.103C209.323 132.749 210.028 132.275 210.625 131.678L210.632 131.671C211.22 131.089 211.694 130.381 212.051 129.543C212.391 128.742 212.566 127.885 212.566 126.96C212.566 126.05 212.397 125.243 212.05 124.42C211.701 123.601 211.216 122.885 210.599 122.262L210.596 122.259L185.72 97.3829C184.897 96.56 183.781 96.0977 182.617 96.0977ZM176.686 94.5545C178.259 92.9814 180.393 92.0977 182.617 92.0977C184.842 92.0977 186.976 92.9814 188.549 94.5545L213.438 119.444C214.408 120.423 215.181 121.564 215.731 122.857L215.733 122.861C216.285 124.167 216.566 125.503 216.566 126.96C216.566 128.404 216.29 129.796 215.731 131.109C215.189 132.383 214.435 133.534 213.451 134.509C212.475 135.485 211.337 136.239 210.056 136.784C208.74 137.344 207.318 137.618 205.908 137.618C204.486 137.618 203.11 137.34 201.804 136.784C200.519 136.237 199.372 135.472 198.381 134.474L198.378 134.47L173.502 109.602C171.929 108.029 171.045 105.895 171.045 103.67C171.045 101.445 171.929 99.3119 173.502 97.7389L176.686 94.5545Z" fill="#242424"/>
</svg>
