<svg width="394" height="120" viewBox="0 0 394 120" fill="none" xmlns="http://www.w3.org/2000/svg">
<g clip-path="url(#clip0_14693_14068)">
<path d="M-11.166 74C13.0622 74 19.438 45.1879 48.7669 47C108.343 50.681 142.155 44.0995 160.278 37.6985C173.338 33.0857 185.668 25.6745 198.78 21.2127L209.845 17.4477C236.431 8.40102 265.255 8.34885 291.873 17.2993L343.58 34.6855C357.723 39.4407 373.003 39.6199 387.253 35.1975L394.334 33" stroke="#2F7000"/>
<path d="M48.7669 47C19.438 45.1879 13.0622 74 -11.166 74V85.5H394.334V33L387.253 35.1975C373.003 39.6199 357.723 39.4407 343.58 34.6855L291.873 17.2993C265.255 8.34885 236.431 8.40102 209.845 17.4477L198.78 21.2127C185.668 25.6745 173.338 33.0857 160.278 37.6985C142.155 44.0995 108.343 50.681 48.7669 47Z" fill="url(#paint0_linear_14693_14068)"/>
<path d="M-11.166 79C13.0622 79 48.1293 64.7254 89.5722 70.1399C128.863 75.2733 136.634 58.2848 172.652 59.0235C176.752 59.1075 180.882 59.0282 184.944 58.4674L296.021 43.1327C313.246 40.7547 330.793 43.0506 346.827 49.7803L395.334 70.1399" stroke="#2D69B4"/>
<path d="M89.5722 70.1399C48.1293 64.7254 13.0622 79 -11.166 79V86H395.334V70.1399L346.827 49.7803C330.793 43.0506 313.246 40.7547 296.021 43.1327L184.944 58.4674C180.882 59.0282 176.752 59.1075 172.652 59.0235C136.634 58.2848 128.863 75.2733 89.5722 70.1399Z" fill="url(#paint1_linear_14693_14068)"/>
<rect x="69" y="-8" width="1" height="92" fill="white" fill-opacity="0.08"/>
<rect x="150" y="-8" width="1" height="92" fill="white" fill-opacity="0.08"/>
<rect x="231" y="-8" width="1" height="92" fill="white" fill-opacity="0.08"/>
<rect x="312" y="-8" width="1" height="92" fill="white" fill-opacity="0.08"/>
<path d="M24.9324 112.096H23.9604L18.8364 104.872V112H17.9484V103.504H18.9204L24.0564 110.728V103.6H24.9324V112.096ZM27.0632 109.204C27.0632 107.428 28.2392 106.228 29.8472 106.228C31.4552 106.228 32.6432 107.428 32.6432 109.204C32.6432 110.968 31.4552 112.18 29.8472 112.18C28.2392 112.18 27.0632 110.968 27.0632 109.204ZM27.9032 109.204C27.9032 110.464 28.6592 111.424 29.8472 111.424C31.0472 111.424 31.7912 110.464 31.7912 109.204C31.7912 107.932 31.0472 106.984 29.8472 106.984C28.6592 106.984 27.9032 107.932 27.9032 109.204ZM36.6696 112.096H35.9016L33.5976 106.408H34.5216L36.3096 111.004H36.3336L38.1336 106.408H38.9856L36.6696 112.096Z" fill="white" fill-opacity="0.5"/>
<path d="M105.009 107.8C105.009 110.692 102.993 112 100.605 112H98.2414V103.6H100.713C103.233 103.6 105.009 105.208 105.009 107.8ZM104.097 107.8C104.097 105.688 102.681 104.416 100.737 104.416H99.1294V111.184H100.749C102.693 111.184 104.097 109.912 104.097 107.8ZM111.753 110.692C111.309 111.652 110.505 112.18 109.437 112.18C107.745 112.18 106.641 110.896 106.641 109.216C106.641 107.548 107.661 106.228 109.305 106.228C110.697 106.228 111.921 107.2 111.969 109.108V109.396H107.493C107.565 110.596 108.285 111.472 109.449 111.472C110.169 111.472 110.721 111.124 111.045 110.476L111.753 110.692ZM109.317 106.9C108.261 106.9 107.613 107.644 107.505 108.796H111.093C111.009 107.452 110.181 106.9 109.317 106.9ZM116.045 106.228C117.329 106.228 118.181 106.852 118.541 108.04L117.725 108.172C117.461 107.428 116.921 106.984 116.069 106.984C114.869 106.984 114.233 107.968 114.233 109.204C114.233 110.452 114.869 111.424 116.069 111.424C116.921 111.424 117.449 110.968 117.713 110.224L118.505 110.428C118.145 111.556 117.293 112.18 116.081 112.18C114.413 112.18 113.393 110.884 113.393 109.204C113.393 107.476 114.449 106.228 116.045 106.228Z" fill="white" fill-opacity="0.5"/>
<path d="M180.199 112.12C179.803 112.12 179.359 111.988 179.131 111.856V111.016C179.347 111.172 179.731 111.304 180.091 111.304C181.003 111.304 181.855 110.86 181.855 109.144V104.416H179.599V103.6H182.743V109.228C182.743 111.256 181.759 112.12 180.199 112.12ZM189.537 112H188.733V111.292H188.709C188.397 111.832 187.701 112.168 186.909 112.168C185.745 112.168 184.953 111.472 184.953 110.464C184.953 109.372 185.853 108.652 187.257 108.652C187.857 108.652 188.397 108.784 188.697 108.952V108.304C188.697 107.44 188.205 106.924 187.365 106.924C186.693 106.924 186.213 107.26 186.021 107.836L185.181 107.752C185.457 106.792 186.297 106.228 187.425 106.228C188.745 106.228 189.537 107.008 189.537 108.304V112ZM185.805 110.392C185.805 111.04 186.333 111.484 187.077 111.484C187.929 111.484 188.709 110.872 188.709 110.212V109.624C188.397 109.42 187.869 109.288 187.341 109.288C186.381 109.288 185.805 109.72 185.805 110.392ZM196.424 112H195.584V108.628C195.584 107.572 195.092 106.984 194.264 106.984C193.316 106.984 192.608 107.74 192.608 108.772V112H191.768V106.408H192.56V107.284H192.608C192.92 106.636 193.604 106.228 194.444 106.228C195.656 106.228 196.424 107.08 196.424 108.436V112Z" fill="white" fill-opacity="0.5"/>
<path d="M264.426 103.6V104.416H259.95V107.368H263.334V108.184H259.95V112H259.062V103.6H264.426ZM270.101 110.692C269.657 111.652 268.853 112.18 267.785 112.18C266.093 112.18 264.989 110.896 264.989 109.216C264.989 107.548 266.009 106.228 267.653 106.228C269.045 106.228 270.269 107.2 270.317 109.108V109.396H265.841C265.913 110.596 266.633 111.472 267.797 111.472C268.517 111.472 269.069 111.124 269.393 110.476L270.101 110.692ZM267.665 106.9C266.609 106.9 265.961 107.644 265.853 108.796H269.441C269.357 107.452 268.529 106.9 267.665 106.9ZM277.681 109.216C277.681 110.968 276.577 112.18 275.029 112.18C274.153 112.18 273.373 111.796 273.001 111.112H272.977V112H272.197V103.6H273.037V107.308C273.397 106.636 274.105 106.228 275.005 106.228C276.565 106.228 277.681 107.44 277.681 109.216ZM276.829 109.216C276.829 107.98 276.097 106.984 274.897 106.984C273.733 106.984 273.013 107.896 273.013 109.216C273.013 110.512 273.733 111.424 274.897 111.424C276.097 111.424 276.829 110.44 276.829 109.216Z" fill="white" fill-opacity="0.5"/>
<path d="M346.725 112H345.849V104.824H345.801L342.885 112H342.105L339.213 104.824H339.165V112H338.277V103.6H339.633L342.501 110.656H342.549L345.417 103.6H346.725V112ZM353.668 112H352.864V111.292H352.84C352.528 111.832 351.832 112.168 351.04 112.168C349.876 112.168 349.084 111.472 349.084 110.464C349.084 109.372 349.984 108.652 351.388 108.652C351.988 108.652 352.528 108.784 352.828 108.952V108.304C352.828 107.44 352.336 106.924 351.496 106.924C350.824 106.924 350.344 107.26 350.152 107.836L349.312 107.752C349.588 106.792 350.428 106.228 351.556 106.228C352.876 106.228 353.668 107.008 353.668 108.304V112ZM349.936 110.392C349.936 111.04 350.464 111.484 351.208 111.484C352.06 111.484 352.84 110.872 352.84 110.212V109.624C352.528 109.42 352 109.288 351.472 109.288C350.512 109.288 349.936 109.72 349.936 110.392ZM355.899 106.408H356.691V107.332H356.739C357.027 106.684 357.651 106.264 358.335 106.264C358.527 106.264 358.695 106.3 358.803 106.348V107.176C358.683 107.116 358.515 107.092 358.335 107.092C357.399 107.092 356.739 107.872 356.739 109.144V112H355.899V106.408Z" fill="white" fill-opacity="0.5"/>
</g>
<defs>
<linearGradient id="paint0_linear_14693_14068" x1="191.834" y1="21" x2="191.584" y2="85.5" gradientUnits="userSpaceOnUse">
<stop stop-color="#B4EB6B" stop-opacity="0.72"/>
<stop offset="0.778846" stop-color="#AFE06A" stop-opacity="0"/>
</linearGradient>
<linearGradient id="paint1_linear_14693_14068" x1="192.084" y1="39.5" x2="192.084" y2="86" gradientUnits="userSpaceOnUse">
<stop stop-color="#63A9FF"/>
<stop offset="1" stop-color="#80BAFF" stop-opacity="0"/>
</linearGradient>
<clipPath id="clip0_14693_14068">
<rect width="394" height="120" fill="white"/>
</clipPath>
</defs>
</svg>
