<svg width="416" height="312" viewBox="0 0 416 312" fill="none" xmlns="http://www.w3.org/2000/svg">
<path d="M73.5445 256.802C76.8602 254.962 80.5901 253.996 84.3824 253.996H336.976C341.061 253.996 345.067 255.116 348.56 257.235L394.411 285.055C397.63 287.008 396.245 291.958 392.48 291.958H24.5839C20.7428 291.958 19.4192 286.847 22.7776 284.983L73.5445 256.802Z" fill="#E1D3D9"/>
<path opacity="0.75" d="M281.36 46.3942H303.437C305.565 46.3942 307.286 44.6811 307.286 42.5633V24.9169C307.286 22.7991 305.565 21.0859 303.437 21.0859H281.36C279.232 21.0859 277.511 22.7991 277.511 24.9169V42.5633C277.511 44.6811 279.238 46.3942 281.36 46.3942Z" fill="#ECE6DD"/>
<g opacity="0.75">
<path d="M338.575 35.0942V61.693H320.621V35.0942H338.575ZM342.105 27.7188H317.081C314.958 27.7188 313.241 29.4362 313.241 31.5592V65.228C313.241 67.351 314.958 69.0685 317.081 69.0685H342.105C344.228 69.0685 345.945 67.351 345.945 65.228V31.5592C345.951 29.4414 344.228 27.7188 342.105 27.7188Z" fill="#ECE6DD"/>
</g>
<path opacity="0.75" d="M298.182 67.2363H286.615C284.463 67.2363 282.722 68.9577 282.722 71.0857V85.7177C282.722 87.8457 284.463 89.5672 286.615 89.5672H298.182C300.335 89.5672 302.076 87.8457 302.076 85.7177V71.0857C302.076 68.9577 300.329 67.2363 298.182 67.2363Z" fill="#ECE6DD"/>
<g opacity="0.8">
<path d="M173.178 16.0859H111.156C106.381 16.0859 102.511 19.9564 102.511 24.7307V85.7543C102.511 90.5287 106.381 94.3991 111.156 94.3991H173.178C177.952 94.3991 181.823 90.5287 181.823 85.7543V24.7307C181.823 19.9564 177.952 16.0859 173.178 16.0859Z" fill="white"/>
<path d="M258.98 100.891H196.958C192.184 100.891 188.313 104.761 188.313 109.535V168.951C188.313 173.725 192.184 177.596 196.958 177.596H258.98C263.755 177.596 267.625 173.725 267.625 168.951V109.535C267.625 104.761 263.755 100.891 258.98 100.891Z" fill="white"/>
<path d="M258.98 16.0859H196.958C192.184 16.0859 188.313 19.9564 188.313 24.7307V85.7543C188.313 90.5287 192.184 94.3991 196.958 94.3991H258.98C263.755 94.3991 267.625 90.5287 267.625 85.7543V24.7307C267.625 19.9564 263.755 16.0859 258.98 16.0859Z" fill="white"/>
<path d="M173.178 100.891H111.156C106.381 100.891 102.511 104.761 102.511 109.535V168.951C102.511 173.725 106.381 177.596 111.156 177.596H173.178C177.952 177.596 181.823 173.725 181.823 168.951V109.535C181.823 104.761 177.952 100.891 173.178 100.891Z" fill="white"/>
<path opacity="0.7" d="M173.178 16.0859H111.156C106.381 16.0859 102.511 19.9564 102.511 24.7307V85.7543C102.511 90.5287 106.381 94.3991 111.156 94.3991H173.178C177.952 94.3991 181.823 90.5287 181.823 85.7543V24.7307C181.823 19.9564 177.952 16.0859 173.178 16.0859Z" fill="#CFE3FC"/>
<path opacity="0.7" d="M258.98 100.891H196.958C192.184 100.891 188.313 104.761 188.313 109.535V168.951C188.313 173.725 192.184 177.596 196.958 177.596H258.98C263.755 177.596 267.625 173.725 267.625 168.951V109.535C267.625 104.761 263.755 100.891 258.98 100.891Z" fill="#CFE3FC"/>
<path opacity="0.7" d="M259.667 16H197.644C192.87 16 189 19.8704 189 24.6448V85.6684C189 90.4427 192.87 94.3132 197.644 94.3132H259.667C264.441 94.3132 268.312 90.4427 268.312 85.6684V24.6448C268.312 19.8704 264.441 16 259.667 16Z" fill="#CFE3FC"/>
<path opacity="0.7" d="M173.178 100.891H111.156C106.381 100.891 102.511 104.761 102.511 109.535V168.951C102.511 173.725 106.381 177.596 111.156 177.596H173.178C177.952 177.596 181.823 173.725 181.823 168.951V109.535C181.823 104.761 177.952 100.891 173.178 100.891Z" fill="#CFE3FC"/>
<path d="M104.058 45.6826C106.132 45.2731 108.615 46.0196 110.427 47.4357C113.37 41.1655 120.573 36.7679 128.695 36.9343C136.363 37.0921 142.677 41.2722 145.125 47.103C149.528 45.7722 154.051 45.5675 157.255 46.8258C161.035 48.3101 162.001 51.4281 160.275 54.7765C166.533 54.03 179.135 55.813 175.583 59.2765H108.443C109.895 60.7097 111.05 62.3775 111.819 64.2073C116.222 62.8765 120.745 62.6718 123.949 63.9301C127.729 65.4144 128.695 68.5325 126.969 71.8808C133.227 71.1344 145.829 72.9173 142.277 76.3808H102.511V59.2808V55.4632V46.2968C102.941 46.0153 103.452 45.802 104.058 45.6826Z" fill="white"/>
</g>
<path d="M92.6163 142.316C93.2145 142.309 93.6969 142.8 93.6924 143.398C93.5132 166.911 71.4441 182.43 63.2608 173.688C57.1539 167.165 65.2165 152.995 78.1866 146.157C78.5698 145.955 79.0193 146.257 78.9872 146.689L78.4243 154.269C78.3777 154.897 79.2427 155.112 79.4954 154.536L84.1676 143.878C84.2332 143.728 84.361 143.614 84.5178 143.568C87.1203 142.799 89.8386 142.352 92.6163 142.316Z" fill="#D2E9CA"/>
<path d="M74.9458 103.58C75.9681 103.117 77.1491 103.666 77.476 104.74C85.4476 130.93 67.3561 157.646 55.2855 151.579C49.0499 148.445 48.7508 138.294 52.9243 127.878C53.1087 127.418 54.4278 128.662 55.8915 130.255C56.6673 131.1 58.2324 130.181 57.8411 129.104C56.6571 125.842 55.516 122.42 55.7655 121.98C57.5183 118.882 59.6524 115.877 62.1277 113.148C62.3984 112.85 63.0305 115.116 63.6799 117.883C63.9529 119.047 65.8789 118.888 65.9456 117.695C66.1911 113.302 66.5569 108.887 67.0469 108.492C69.4644 106.543 72.1053 104.869 74.9458 103.58Z" fill="#D2E9CA"/>
<path d="M29.5379 131.62C30.2123 130.723 31.5122 130.638 32.3142 131.424C51.8722 150.579 48.8142 182.7 35.3126 183.167C28.3379 183.408 23.2062 174.645 21.8714 163.504C21.8124 163.011 23.5667 163.47 25.6153 164.166C26.701 164.535 27.6337 162.978 26.7734 162.22C24.1698 159.926 21.5273 157.472 21.5347 156.965C21.5868 153.406 22.0176 149.746 22.8806 146.164C22.975 145.772 24.6169 147.458 26.514 149.574C27.3116 150.464 28.9253 149.401 28.4116 148.322C26.5196 144.349 24.7228 140.3 24.9632 139.719C26.1494 136.849 27.6637 134.114 29.5379 131.62Z" fill="#D2E9CA"/>
<path d="M57.5796 149.596C48.9014 161.353 41.6229 188.508 50.3011 221.821" stroke="#D2E9CA" stroke-width="3"/>
<path d="M38.4272 152.502C33.6844 166.324 34.9045 194.411 53.1946 223.575" stroke="#D2E9CA" stroke-width="3"/>
<path d="M86.3843 178.591C87.7038 178.852 88.2374 180.38 87.4281 181.455C83.562 186.587 78.9635 191.006 74.5067 193.98C74.3169 194.107 74.0894 194.162 73.8623 194.139L69.9796 193.754C69.074 193.665 68.739 194.911 69.5678 195.287C70.1832 195.567 70.196 196.426 69.5732 196.689C64.8469 198.68 60.71 198.518 58.3854 195.179C53.1937 187.722 70.428 175.436 86.3843 178.591Z" fill="#D2E9CA"/>
<path d="M62.6187 186.547C56.4093 193.234 54.4096 198.42 51.141 210.062" stroke="#D2E9CA" stroke-width="3"/>
<path d="M63.6104 170.703C50.581 183.747 48.3414 196.065 50.301 220.98" stroke="#D2E9CA" stroke-width="3"/>
<path d="M65.4452 206.225C65.7952 204.223 64.255 202.391 62.2233 202.391H33.1709C31.1392 202.391 29.599 204.223 29.949 206.225L35.0879 235.611C35.3389 237.047 36.5856 238.094 38.043 238.094H57.3512C58.8087 238.094 60.0553 237.047 60.3064 235.611L65.4452 206.225Z" fill="#E1DDD6"/>
<path d="M65.1826 207.727H30.2124L31.4462 214.782H63.9489L65.1826 207.727Z" fill="#EFEFEF"/>
<path d="M105.185 266.01C122.82 266.01 137.88 266.787 150.365 268.351C162.85 269.915 169.082 271.79 169.082 273.997C169.082 276.203 162.839 278.079 150.365 279.643C137.88 281.207 122.82 281.984 105.185 281.984C87.5502 281.984 72.4902 281.207 60.0051 279.643C47.5199 278.079 41.2878 276.203 41.2878 273.997C41.2878 271.79 47.5304 269.915 60.0051 268.351C72.4902 266.787 87.5502 266.01 105.185 266.01Z" fill="black" fill-opacity="0.1"/>
<path d="M383.864 96.6129C375.451 103.435 370.671 110.773 367.78 113.12C364.81 115.531 359.034 115.457 359.034 115.457C356.534 110.079 355.619 106.891 355.518 100.581L359.778 105.194C360.911 93.807 376.153 81.0493 384.583 80.9535C391.238 80.8779 399.186 84.0415 402.237 85.3769C402.588 85.5301 402.491 86.0247 402.109 86.0491L391.139 86.7518C390.808 86.7729 390.668 87.1824 390.916 87.4018L392.34 88.6631C392.702 88.9838 392.667 89.5594 392.268 89.8336L386.927 93.5081C386.748 93.6311 386.525 93.6699 386.315 93.6145L381.399 92.3147C381.019 92.2145 380.763 92.6931 381.057 92.9532L383.894 95.4657C384.241 95.7733 384.225 96.3207 383.864 96.6129Z" fill="#D8C3CC"/>
<path d="M372.513 82.085C369.144 71.978 361.381 66.8469 359.016 65.4797C358.743 65.3218 358.439 65.5884 358.512 65.8954C366.515 99.501 350.998 94.2213 349.154 111.652C347.296 129.219 351.003 121.04 351.003 121.04C357.271 120.912 360.722 120.3 366.759 117.461L360.399 115.562C370.681 109.192 376.513 94.0847 372.513 82.085Z" fill="#E1D3D9"/>
<path d="M340.045 104.418L340.182 107.153C340.187 107.26 340.24 107.361 340.323 107.428C343.705 110.148 344.564 112.247 347.867 114.938C349.004 115.864 351.673 115.59 351.673 115.59C353.342 113.144 354.071 111.717 354.724 108.965L352.317 111.152C352.89 106.241 347.094 101.321 343.218 101.632C340.64 101.838 337.418 103.084 335.549 103.895C335.183 104.054 335.306 104.562 335.705 104.55L340.045 104.418Z" fill="#E1D3D9"/>
<path d="M382.433 108.269C374.076 110.828 366.161 116.103 363.337 117.013C360.512 117.922 352.808 114.635 352.808 114.635C352.521 110.2 356.038 109.162 357.81 104.96C357.906 104.732 358.189 104.646 358.389 104.792L360.896 106.623C361.081 106.758 361.343 106.695 361.455 106.495C365.697 98.8744 378.499 96.2104 384.522 98.471C389.17 100.216 393.84 104.461 395.821 106.406C396.094 106.674 395.828 107.098 395.463 106.983L387.825 104.566C387.51 104.466 387.23 104.797 387.382 105.091L387.868 106.035C388.09 106.465 387.848 106.989 387.378 107.1L382.433 108.269Z" fill="#E1D3D9"/>
<path d="M381.987 120.393L380.472 122.382C380.389 122.49 380.254 122.545 380.119 122.525C371.464 121.254 362.81 123.054 354.27 122.119C351.189 121.781 347.941 118.411 347.941 118.411C349.616 113.906 350.931 111.562 354.509 107.91L354.278 112.992C361.485 107.158 377.52 108.672 382.378 113.475C386.093 117.147 388.747 123.25 389.791 125.919C389.93 126.275 389.513 126.553 389.227 126.299L382.531 120.341C382.369 120.197 382.118 120.221 381.987 120.393Z" fill="#E1D3D9"/>
<path d="M347.113 98.8278C348.266 106.406 347.361 110.983 347.815 113.705C348.3 116.613 351.695 119.522 351.695 119.522C355.667 117.804 359.5 116.917 362.693 113.828C362.926 113.602 362.761 113.22 362.437 113.22H356.545C361.748 106.07 359.455 90.9197 354.605 86.5566C350.739 83.0786 344.407 80.8328 341.997 80.0648C341.666 79.9593 341.401 80.3258 341.593 80.6151C342.574 82.0919 344.56 85.1626 345.39 87.0414C346.204 88.8855 346.602 91.1136 346.76 92.1995C346.821 92.6188 347.041 93.0012 347.383 93.2503L351.379 96.155C351.657 96.357 351.536 96.7956 351.194 96.8267L348.466 97.0746C347.595 97.1538 346.981 97.9633 347.113 98.8278Z" fill="#D8C3CC"/>
<path fill-rule="evenodd" clip-rule="evenodd" d="M342.913 128.83L347.626 116.12C347.969 115.195 349.1 114.854 349.898 115.434L357.361 120.868C358.194 121.475 358.174 122.724 357.321 123.303L346.084 130.934L323.007 163.241C322.397 164.095 321.209 164.293 320.355 163.683C319.5 163.072 319.302 161.885 319.912 161.03L342.913 128.83Z" fill="#555551"/>
<circle cx="10.0183" cy="10.0183" r="10.0183" transform="matrix(-1 8.20367e-10 8.20367e-10 1 73.7949 244.35)" fill="#FEEB29"/>
<path d="M137.863 233.774C138.976 222.086 134.885 205.843 134.885 205.843L110.529 193.145C93.2289 210.649 63.4009 236.766 62.169 257.707C61.8674 262.835 63.5272 267.799 65.1111 271.271C66.5355 274.393 69.785 276.074 73.2166 276.074L106.757 276.074C107.387 276.074 107.949 275.677 108.098 275.065C108.343 274.053 108.611 272.45 108.303 271.064C108.259 270.867 108.063 269.037 108.242 268.942L109.478 268.282L114.048 275.39C114.321 275.817 114.793 276.074 115.3 276.074L124.686 276.074C125.509 276.074 126.175 275.408 126.175 274.585L126.175 272.178C126.175 272.178 123.392 269.395 122.836 268.282C122.279 267.169 120.053 264.386 120.609 262.16C120.906 260.973 121.659 258.681 122.298 256.798C122.551 256.053 123.627 256.165 123.727 256.945C123.949 258.662 124.235 260.821 124.505 262.716C124.975 266.003 129.802 272.459 131.3 274.398C131.576 274.755 132.004 274.961 132.456 274.961L141.308 274.961C141.917 274.961 142.469 274.591 142.615 274C142.84 273.087 143.006 271.755 142.316 271.065C141.203 269.952 138.42 268.282 137.307 267.726C136.193 267.169 134.524 265.499 133.967 261.603C133.411 257.707 136.75 245.463 137.863 233.774Z" fill="#FEEB29"/>
<path d="M126.819 164.905L134.004 165.552C135.933 165.724 136.915 167.952 135.741 169.493L131.107 175.598C130.066 176.971 127.933 176.711 127.254 175.127L124.333 168.327C123.598 166.614 124.959 164.733 126.817 164.898L126.819 164.905Z" fill="#242424"/>
<path d="M142.729 203.907C160.399 192.633 151.441 172.732 140.76 175.402C132.864 166.728 108.958 168.16 104.659 180.131C95.0365 206.925 125.06 215.181 142.729 203.907Z" fill="#FEEB29"/>
<path d="M101.116 177.254L98.8048 186.858C98.1828 189.438 100.643 191.688 103.156 190.841L113.109 187.506C115.347 186.758 115.944 183.877 114.187 182.301L106.646 175.53C104.747 173.825 101.71 174.765 101.109 177.249L101.116 177.254Z" fill="#242424"/>
<path d="M143.75 174.716L140.328 176.422C139.409 176.88 139.302 178.056 140.138 178.502L143.445 180.276C144.188 180.676 145.192 180.139 145.259 179.307L145.548 175.732C145.621 174.832 144.635 174.272 143.749 174.713L143.75 174.716Z" fill="#242424"/>
<path d="M149.155 181.709C148.618 181.671 142.201 185.058 142.201 185.058C140.261 187.641 140.479 189.886 142.733 190.694C146.231 191.934 150.082 190.208 151.507 187.503C152.729 185.181 152.049 181.915 149.155 181.709Z" fill="#FF9176"/>
<path d="M144.807 177.179C144.419 177.655 144.135 178.143 143.927 178.635C143.411 178.482 142.844 178.401 142.242 178.407C138.564 178.435 134.721 181.434 133.653 185.112C132.594 188.785 134.712 191.745 138.382 191.721C142.06 191.693 145.903 188.693 146.962 185.02C150.964 186.69 155.439 182.407 154.676 178.65C153.912 174.893 148.867 172.204 144.807 177.179Z" fill="#242424"/>
<path d="M75.606 241.625L83.8398 241.625C93.2286 241.625 100.84 249.236 100.84 258.625L100.84 265.259C100.84 266.364 101.735 267.259 102.84 267.259L107.649 267.259" stroke="#242424" stroke-width="4" stroke-linecap="round"/>
<path d="M135.953 229.34C132.007 239.405 129.259 245.026 122.602 254.974" stroke="#242424" stroke-width="4" stroke-linecap="round"/>
<path d="M276.686 261.855C300.918 261.855 321.613 262.912 338.769 265.038C355.926 267.164 364.489 269.713 364.489 272.713C364.489 275.712 355.911 278.261 338.769 280.388C321.613 282.514 300.918 283.57 276.686 283.57C252.453 283.57 231.758 282.514 214.602 280.388C197.446 278.261 188.882 275.712 188.882 272.713C188.882 269.713 197.46 267.164 214.602 265.038C231.758 262.912 252.453 261.855 276.686 261.855Z" fill="black" fill-opacity="0.1"/>
<path d="M216.261 217.008C227.457 219.859 240.738 228.542 274.325 230.226C307.911 231.91 346.116 216.562 346.116 216.562C346.116 216.562 344.041 235.026 333.706 244.527C323.372 254.029 277.97 264.417 277.97 264.417C277.97 264.417 226.062 259.096 207.977 249.595C203.043 244.527 201.85 244.466 199.267 232.114C196.683 219.763 207.724 227.097 216.261 217.008Z" fill="#242424"/>
<path d="M326.044 277.124C320.439 277.249 309.911 276.782 307.077 275.444C304.788 274.363 299.511 270.557 297.564 269.131C297.07 268.77 296.539 268.467 295.975 268.23L292.185 266.642C291.432 266.326 290.768 265.832 290.249 265.203L290.198 265.141C289.08 263.785 288.776 261.935 289.4 260.294C290.449 257.536 293.684 256.328 296.283 257.724L306.25 263.078C306.985 263.472 307.774 263.742 308.597 263.875C312.165 264.454 322.472 266.111 326.511 266.597C331.432 267.188 338.503 267.674 338.565 272.638C338.626 277.603 331.65 276.999 326.044 277.124Z" fill="#E5BD9C" stroke="#242424" stroke-width="4"/>
<path d="M229.726 277.124C235.332 277.249 245.86 276.782 248.694 275.444C250.982 274.363 256.259 270.557 258.207 269.131C258.7 268.77 259.231 268.467 259.796 268.23L263.586 266.642C264.338 266.326 265.003 265.832 265.522 265.203L265.573 265.141C266.69 263.785 266.994 261.935 266.37 260.294C265.322 257.536 262.087 256.328 259.487 257.724L249.52 263.078C248.785 263.472 247.996 263.742 247.173 263.875C243.606 264.454 233.298 266.111 229.26 266.597C224.339 267.188 217.267 267.674 217.206 272.638C217.145 277.603 224.12 276.999 229.726 277.124Z" fill="#E5BD9C" stroke="#242424" stroke-width="4"/>
<path d="M298.4 284.985C298.4 284.985 236.032 264.949 212.484 254.301C188.937 243.654 187.319 220.785 201.627 216.536C215.935 212.288 222.756 219.371 231.839 223.145C240.922 226.918 306.425 262.798 306.425 262.798C308.266 270.704 301.704 283.097 298.4 284.985Z" fill="#242424"/>
<path d="M256.386 284.514C256.386 284.514 321.587 265.422 345.134 254.774C368.682 244.127 369.794 220.7 355.486 216.451C341.177 212.202 334.357 219.286 325.274 223.06C316.191 226.833 248.833 261.383 248.833 261.383C246.992 269.289 253.082 282.626 256.386 284.514Z" fill="#242424"/>
<path d="M252.138 262.8L276.213 250.999M296.984 240.613L276.213 250.999M276.213 250.999L254.97 240.613" stroke="white" stroke-width="4" stroke-linecap="round"/>
<path d="M264.046 119.26C262.438 120.318 258.301 122.324 256.225 123.311C255.445 123.682 254.848 124.364 254.675 125.21C251.798 139.266 265.797 156.577 277.507 159.451C294.094 163.522 305.313 161.864 319.518 147.336C320.274 146.562 320.342 145.353 319.676 144.5C316.261 140.128 311.942 134.966 313.153 129.039C316.268 113.793 305.288 99.3018 289.838 102.848C269.975 99.5655 272.987 113.374 264.046 119.26Z" fill="#242424"/>
<path d="M288.024 154.386C287.683 149.687 288.11 146.315 290.155 141.048C290.155 141.048 293.807 139.874 295.187 137.793C296.566 135.711 295.532 130.388 295.532 130.388C295.532 130.388 294.825 130.732 291.032 130.388C287.239 130.044 282.412 125.923 281.347 122.467C280.282 119.012 281.347 110.07 281.347 110.07C281.347 110.07 269.451 119.773 266.826 123.925C265.204 126.489 264.745 131.868 264.632 135.605C264.557 138.066 266.001 140.279 268.209 141.368L272.872 143.666C273.994 144.219 274.651 145.415 274.515 146.66L273.765 153.53C273.542 155.578 271.946 157.208 269.902 157.474L265.01 158.111C265.01 158.111 254.641 162.541 263.102 167.235C268.091 170.002 289.256 162.404 294.771 159.136C294.08 158.963 292.589 158.56 291.214 158.183C289.459 157.703 288.155 156.201 288.024 154.386Z" fill="#E5BD9C"/>
<path d="M218.656 193.326L251.792 181.955L244.186 166.362L225.559 173.473C224.33 173.943 222.963 173.252 222.611 171.984L211.603 132.299L173.062 134.1L198.561 140.941C201.031 141.604 202.909 143.616 203.4 146.127L211.851 189.396C212.457 192.5 215.665 194.352 218.656 193.326Z" fill="#E5BD9C" stroke="#242424" stroke-width="4"/>
<path d="M329.775 188.058L323.264 178.766L308.843 186.139L329.894 209.566C331.47 211.32 333.833 212.147 336.158 211.76C339.318 211.233 341.699 208.6 341.907 205.404L344.876 159.675L347.17 139.324C347.477 136.601 347.096 133.845 346.062 131.308L344.242 126.845C343.39 124.755 340.614 124.336 339.183 126.08L333.263 133.295C331.863 135.002 331.92 137.475 333.396 139.116L335.229 141.152C336.48 142.543 336.733 144.566 335.86 146.221L333.999 149.754C333.362 150.964 333.314 152.4 333.869 153.65L335.332 156.942C335.684 157.733 335.798 158.609 335.661 159.464L331.119 187.749C331.013 188.409 330.159 188.606 329.775 188.058Z" fill="#E5BD9C" stroke="#242424" stroke-width="4"/>
<path d="M293.249 203.636C293.249 195.086 303.138 184.999 303.138 184.999L309.604 192.606L328.307 180.207L318.376 167.854C315.262 163.98 310.823 161.398 305.917 160.606L292.108 158.375C292.108 158.375 271.57 167.884 265.993 166.159C260.415 164.434 270.809 157.234 270.809 157.234L263.54 157.754C257.793 158.164 252.182 159.702 247.029 162.278L235.818 167.884L247.983 184.169C247.294 197.043 251.182 202.586 251.182 227.688C272.251 230.868 282.984 231.664 304.451 228.086C304.451 228.086 293.249 212.186 293.249 203.636Z" fill="#87B8F7"/>
<path d="M231.172 65.0859H150.196C148.163 65.0859 146.516 66.7835 146.516 68.8776V119.255H234.852V68.8776C234.852 66.7835 233.205 65.0859 231.172 65.0859Z" fill="white"/>
<path d="M136.978 134.419H244.39C246.235 134.419 247.735 132.878 247.735 130.974C247.735 130.178 247.38 129.427 246.774 128.933L235.187 119.526C234.975 119.356 234.852 119.094 234.852 118.817V69.7822C234.852 67.1884 232.811 65.0859 230.293 65.0859H151.075C148.557 65.0859 146.516 67.1884 146.516 69.7822V118.817C146.516 119.094 146.393 119.356 146.181 119.526L134.593 128.933C133.987 129.424 133.633 130.178 133.633 130.974C133.633 132.875 135.129 134.419 136.978 134.419Z" fill="white"/>
<path fill-rule="evenodd" clip-rule="evenodd" d="M144.516 69.7822C144.516 66.14 147.397 63.0859 151.075 63.0859H230.293C233.971 63.0859 236.852 66.14 236.852 69.7822V118.302L248.038 127.383C249.117 128.263 249.735 129.586 249.735 130.974C249.735 133.928 247.394 136.419 244.39 136.419H136.978C133.968 136.419 131.633 133.923 131.633 130.974C131.633 129.59 132.248 128.26 133.333 127.38L144.516 118.302V69.7822ZM236.439 117.967C236.442 117.969 236.445 117.971 236.448 117.974L236.439 117.967ZM151.075 67.0859C149.717 67.0859 148.516 68.2368 148.516 69.7822V118.817C148.516 119.677 148.135 120.519 147.438 121.082C147.436 121.083 147.434 121.085 147.432 121.086L135.854 130.486C135.727 130.588 135.633 130.767 135.633 130.974C135.633 131.828 136.29 132.419 136.978 132.419H244.39C245.077 132.419 245.735 131.829 245.735 130.974C245.735 130.77 245.644 130.592 245.511 130.484C245.511 130.483 245.51 130.483 245.51 130.483L233.935 121.086C233.934 121.085 233.932 121.083 233.93 121.082C233.233 120.52 232.852 119.678 232.852 118.817V69.7822C232.852 68.2368 231.651 67.0859 230.293 67.0859H151.075Z" fill="#242424"/>
<path d="M151.365 120.064L147.68 123.102C147.375 123.354 147.549 123.856 147.937 123.856H233.336C233.724 123.856 233.897 123.351 233.593 123.102L229.907 120.064H151.365Z" fill="#E2DBCE"/>
<path d="M203.873 125.891H177.94C177.675 125.891 177.441 126.067 177.354 126.326L176.846 127.898C176.712 128.309 177.011 128.733 177.432 128.733H203.94C204.362 128.733 204.658 128.309 204.527 127.898L203.873 125.891Z" fill="#E2DBCE"/>
<path fill-rule="evenodd" clip-rule="evenodd" d="M144.516 114.586H152.011V117.255H230.511V114.586H236.852V121.255H144.516V114.586Z" fill="#242424"/>
<path d="M152.454 116.426C150.698 116.426 149.271 114.996 149.271 113.243V71.0599C149.271 69.3037 150.701 67.877 152.454 67.877H228.863C230.619 67.877 232.046 69.3065 232.046 71.0599V113.243C232.046 114.999 230.617 116.426 228.863 116.426H152.454Z" fill="#87B8F7"/>
<path d="M228.863 69.1301C229.927 69.1301 230.79 69.9956 230.79 71.0566V113.24C230.79 114.303 229.924 115.166 228.863 115.166H152.455C151.391 115.166 150.528 114.301 150.528 113.24V71.0594C150.528 69.9956 151.394 69.1329 152.455 69.1329H228.863M228.863 66.6172H152.455C150.003 66.6172 148.015 68.6052 148.015 71.0566V113.24C148.015 115.691 150.003 117.679 152.455 117.679H228.863C231.315 117.679 233.303 115.691 233.303 113.24V71.0594C233.303 68.6052 231.315 66.6172 228.863 66.6172Z" fill="white"/>
<g opacity="0.35">
<path d="M228.285 69.166H207.085L173.359 114.881H197.968L230.555 70.7128C230.153 69.7998 229.29 69.166 228.285 69.166Z" fill="white"/>
<path d="M230.801 74.6465L201.118 114.881H219.61L230.801 99.714V74.6465Z" fill="white"/>
</g>
<path d="M217.938 70.5508V83.2861C217.938 91.1441 211.568 97.5145 203.71 97.5146H177.24C169.382 97.5146 163.011 91.1442 163.011 83.2861V70.5508H217.938Z" stroke="white" stroke-width="7"/>
<path d="M203.71 44.0859C210.74 44.0861 216.438 49.7849 216.438 56.8145V83.2852C216.438 90.3146 210.74 96.0126 203.71 96.0127H177.24C170.21 96.0127 164.511 90.3146 164.511 83.2852V56.8145C164.511 49.7848 170.21 44.0859 177.24 44.0859H203.71Z" fill="#FEEB29" stroke="#242424" stroke-width="4"/>
<g clip-path="url(#clip0_9576_8141)">
<path d="M166.511 56.8304C166.511 50.8964 171.322 46.0859 177.256 46.0859H203.767C209.701 46.0859 214.511 50.8964 214.511 56.8305V83.3414C214.511 89.2755 209.701 94.0859 203.767 94.0859H177.256C171.322 94.0859 166.511 89.2754 166.511 83.3414V56.8304Z" fill="#FEEB29"/>
<path fill-rule="evenodd" clip-rule="evenodd" d="M182.816 54.0372C181.979 52.9388 180.265 53.1666 179.744 54.4454C179.415 55.2531 178.55 55.7045 177.7 55.5129C176.353 55.2094 175.186 56.4854 175.609 57.8C175.876 58.6302 175.504 59.5318 174.729 59.9319C173.502 60.5653 173.429 62.2926 174.598 63.0277C175.336 63.492 175.63 64.422 175.294 65.2265C174.761 66.5005 175.815 67.8708 177.183 67.6826C178.047 67.5637 178.87 68.0868 179.13 68.9194C179.541 70.2378 181.229 70.6099 182.156 69.5864C182.741 68.94 183.708 68.8115 184.442 69.2826C185.604 70.0285 187.137 69.2284 187.189 67.8485C187.222 66.977 187.88 66.257 188.745 66.1461C190.115 65.9706 190.774 64.3725 189.927 63.2819C189.392 62.5931 189.434 61.6186 190.025 60.9776C190.962 59.9627 190.44 58.3145 189.09 58.0235C188.237 57.8397 187.643 57.0665 187.684 56.1954C187.748 54.8161 186.289 53.8889 185.068 54.5337C184.297 54.9409 183.344 54.7309 182.816 54.0372ZM182.285 66.6697C184.972 66.6697 187.151 64.4909 187.151 61.8034C187.151 59.1158 184.972 56.9371 182.285 56.9371C179.597 56.9371 177.419 59.1158 177.419 61.8034C177.419 64.4909 179.597 66.6697 182.285 66.6697Z" fill="#242424"/>
<path d="M184.11 61.8032C184.11 60.7954 183.293 59.9784 182.285 59.9784C181.277 59.9784 180.46 60.7954 180.46 61.8032C180.46 62.8111 181.277 63.6281 182.285 63.6281C183.293 63.6281 184.11 62.8111 184.11 61.8032Z" fill="#242424"/>
<path fill-rule="evenodd" clip-rule="evenodd" d="M198.246 66.2376C197.402 64.8728 195.417 64.8728 194.573 66.2376L194.378 66.5515C193.853 67.401 192.813 67.7793 191.865 67.4664L191.514 67.3507C189.99 66.848 188.469 68.124 188.7 69.7122L188.753 70.0775C188.896 71.0661 188.343 72.024 187.416 72.394L187.073 72.5308C185.582 73.1253 185.237 75.0803 186.435 76.1488L186.71 76.3946C187.455 77.0596 187.647 78.149 187.175 79.0288L187 79.354C186.24 80.7676 187.233 82.4868 188.837 82.5356L189.206 82.5468C190.204 82.5772 191.052 83.2882 191.255 84.2662L191.33 84.6276C191.657 86.1989 193.522 86.8778 194.782 85.8841L195.072 85.6556C195.856 85.0371 196.963 85.0371 197.747 85.6556L198.037 85.8841C199.297 86.8778 201.162 86.1989 201.489 84.6276L201.564 84.2662C201.767 83.2882 202.615 82.5772 203.613 82.5468L203.982 82.5356C205.586 82.4868 206.579 80.7676 205.819 79.354L205.644 79.0288C205.171 78.149 205.364 77.0596 206.109 76.3946L206.384 76.1488C207.582 75.0803 207.237 73.1253 205.746 72.5308L205.403 72.394C204.476 72.024 203.923 71.0661 204.066 70.0775L204.119 69.7122C204.35 68.124 202.829 66.848 201.305 67.3507L200.954 67.4664C200.006 67.7793 198.966 67.401 198.441 66.5515L198.246 66.2376ZM196.409 82.7336C200.105 82.7336 203.101 79.7379 203.101 76.0425C203.101 72.347 200.105 69.3513 196.409 69.3513C192.714 69.3513 189.718 72.347 189.718 76.0425C189.718 79.7379 192.714 82.7336 196.409 82.7336Z" fill="#242424"/>
<path d="M198.234 76.0425C198.234 75.0347 197.417 74.2177 196.409 74.2177C195.402 74.2177 194.585 75.0347 194.585 76.0425C194.585 77.0504 195.402 77.8674 196.409 77.8674C197.417 77.8674 198.234 77.0504 198.234 76.0425Z" fill="#242424"/>
</g>
<defs>
<clipPath id="clip0_9576_8141">
<rect width="48" height="48" fill="white" transform="translate(166.511 46.0859)"/>
</clipPath>
</defs>
</svg>
