<svg width="608" height="241" viewBox="0 0 608 241" fill="none" xmlns="http://www.w3.org/2000/svg">
<path d="M572.787 213.152C572.787 225.303 562.938 235.152 550.787 235.152H430.521C430.515 235.152 430.509 235.153 430.502 235.153H94.8101L94.7912 235.152L57 235.153C44.8497 235.153 35 225.303 35 213.153V32.4212C35 20.271 44.8497 10.4213 57 10.4213H94.7911L94.8101 10.4211H430.502C430.509 10.4211 430.516 10.4211 430.522 10.4213L550.787 10.4209C562.938 10.4209 572.787 20.2706 572.787 32.4209V213.152Z" fill="#F4F1ED"/>
<path d="M148.965 81.5126H90.9128C86.444 81.5126 82.8188 78.4348 82.8188 74.6408V26.154C82.8188 22.36 86.444 19.2822 90.9128 19.2822H148.965C153.433 19.2822 157.059 22.36 157.059 26.154V74.6468C157.059 78.4407 153.433 81.5126 148.965 81.5126Z" fill="white"/>
<path d="M227.691 81.5126H170.492C166.089 81.5126 162.518 78.4348 162.518 74.6408V26.154C162.518 22.36 166.089 19.2822 170.492 19.2822H227.691C232.094 19.2822 235.666 22.36 235.666 26.154V74.6468C235.666 78.4407 232.094 81.5126 227.691 81.5126Z" fill="white"/>
<path d="M148.965 148.11H90.9128C86.444 148.11 82.8188 145.032 82.8188 141.238V92.7516C82.8188 88.9577 86.444 85.8799 90.9128 85.8799H148.965C153.433 85.8799 157.059 88.9577 157.059 92.7516V141.244C157.059 145.038 153.433 148.11 148.965 148.11Z" fill="white"/>
<path d="M227.691 148.11H170.492C166.089 148.11 162.518 145.032 162.518 141.238V92.7516C162.518 88.9577 166.089 85.8799 170.492 85.8799H227.691C232.094 85.8799 235.666 88.9577 235.666 92.7516V141.244C235.666 145.038 232.094 148.11 227.691 148.11Z" fill="white"/>
<path opacity="0.7" d="M148.965 81.5126H90.9128C86.444 81.5126 82.8188 78.4348 82.8188 74.6408V26.154C82.8188 22.36 86.444 19.2822 90.9128 19.2822H148.965C153.433 19.2822 157.059 22.36 157.059 26.154V74.6468C157.059 78.4407 153.433 81.5126 148.965 81.5126Z" fill="#CFE3FC"/>
<path opacity="0.7" d="M227.691 81.5126H170.492C166.089 81.5126 162.518 78.4348 162.518 74.6408V26.154C162.518 22.36 166.089 19.2822 170.492 19.2822H227.691C232.094 19.2822 235.666 22.36 235.666 26.154V74.6468C235.666 78.4407 232.094 81.5126 227.691 81.5126Z" fill="#CFE3FC"/>
<path opacity="0.7" d="M148.965 148.11H90.9128C86.444 148.11 82.8188 145.032 82.8188 141.238V92.7516C82.8188 88.9577 86.444 85.8799 90.9128 85.8799H148.965C153.433 85.8799 157.059 88.9577 157.059 92.7516V141.244C157.059 145.038 153.433 148.11 148.965 148.11Z" fill="#CFE3FC"/>
<path opacity="0.7" d="M227.691 148.11H170.492C166.089 148.11 162.518 145.032 162.518 141.238V92.7516C162.518 88.9577 166.089 85.8799 170.492 85.8799H227.691C232.094 85.8799 235.666 88.9577 235.666 92.7516V141.244C235.666 145.038 232.094 148.11 227.691 148.11Z" fill="#CFE3FC"/>
<path d="M194.183 65.5123C187.447 64.9083 177.468 66.4602 182.398 70.5957H235.666V44.3934C228.472 45.8642 225.269 50.4362 222.491 56.4422C220.362 54.7508 217.441 53.8587 214.999 54.3512C212.502 54.853 211.221 56.6559 211.535 58.7934C206.457 57.0834 201.14 56.7581 197.538 58.2729C194.119 59.7041 193.05 62.4642 194.183 65.5123Z" fill="white"/>
<path d="M111.537 104.538C115.855 104.161 122.253 105.131 119.092 107.715H82.8189V91.3389C87.4299 92.2581 91.6108 95.1156 93.3916 98.8693C94.7561 97.8122 96.6286 97.2546 98.1939 97.5625C99.7947 97.8761 100.616 99.0029 100.415 100.339C103.67 99.2701 107.078 99.0668 109.387 100.014C111.579 100.908 112.264 102.633 111.537 104.538Z" fill="white"/>
<path d="M236.2 111.128C236.2 109.471 234.857 108.128 233.2 108.128H216.168C214.511 108.128 213.168 109.471 213.168 111.128V142.734C213.168 144.391 214.511 145.734 216.168 145.734H233.2C234.857 145.734 236.2 144.391 236.2 142.734V111.128Z" fill="white"/>
<path d="M215.727 121.201C215.727 119.544 214.384 118.201 212.727 118.201H201.666C200.009 118.201 198.666 119.544 198.666 121.201V142.734C198.666 144.391 200.009 145.734 201.666 145.734H212.727C214.384 145.734 215.727 144.391 215.727 142.734V121.201Z" fill="white"/>
<path d="M226.816 135.975C226.816 134.318 225.473 132.975 223.816 132.975H183.752C182.095 132.975 180.752 134.318 180.752 135.975V142.734C180.752 144.391 182.095 145.734 183.752 145.734H223.816C225.473 145.734 226.816 144.391 226.816 142.734V135.975Z" fill="white"/>
<path d="M195.254 114.485C195.254 112.828 193.911 111.485 192.254 111.485H180.34C178.683 111.485 177.34 112.828 177.34 114.485V145.734H192.254C193.911 145.734 195.254 144.391 195.254 142.734V114.485Z" fill="white"/>
<path d="M139.975 128.407C139.975 126.75 138.632 125.407 136.975 125.407H124.68C123.023 125.407 121.68 126.75 121.68 128.407V145.735H136.975C138.632 145.735 139.975 144.392 139.975 142.735V128.407Z" fill="white"/>
<path d="M118.631 119.258C118.631 117.601 117.288 116.258 115.631 116.258H112.483C110.827 116.258 109.483 117.601 109.483 119.258V145.733H115.631C117.288 145.733 118.631 144.39 118.631 142.733V119.258Z" fill="white"/>
<path d="M243.308 145.381C243.308 143.27 241.597 141.56 239.487 141.56H75.723C73.6127 141.56 71.9019 143.27 71.9019 145.381C71.9019 147.491 73.6126 149.202 75.723 149.202H239.487C241.597 149.202 243.308 147.491 243.308 145.381Z" fill="#EBE5DD"/>
<circle cx="112.297" cy="46.5756" r="16.3764" fill="#FEEB29"/>
<path d="M411.586 59.5157C411.586 57.5066 409.957 55.8779 407.948 55.8779H351.971C349.962 55.8779 348.333 57.5066 348.333 59.5157C348.333 61.5247 349.962 63.1534 351.971 63.1534H407.948C409.957 63.1534 411.586 61.5247 411.586 59.5157Z" fill="#EBE5DD"/>
<path d="M362.712 48.8953C362.712 48.8953 365.862 39.6699 366.132 36.9023M365.517 16.9141C365.517 20.7587 363.597 23.1052 364.021 26.4469M366.132 36.9023C364.287 33.8272 363.456 33.7177 361.519 32.5972M366.132 36.9023C366.402 34.1347 366.271 33.301 365.288 30.4446M365.288 30.4446C365.108 29.9199 364.881 29.3153 364.594 28.5995C364.286 27.8285 364.106 27.1177 364.021 26.4469M365.288 30.4446C366.303 28.7622 366.983 27.9482 369.207 27.677M364.021 26.4469C363.067 23.7557 362.157 23.1696 360.904 21.8343" stroke="#E2DBCE" stroke-width="2"/>
<path d="M376.791 13.4402C376.668 12.9482 376.428 12.5054 376.023 12.1794C375.352 11.6382 374.393 11.5767 373.569 11.8227C372.744 12.0687 372.031 12.5915 371.367 13.1388C370.155 14.129 369.048 15.2361 368.003 16.3985C367.08 17.4194 365.616 18.6863 365.05 19.9471C363.851 22.6102 370.34 21.6754 371.557 21.1895C373.858 20.2731 375.733 18.3296 376.57 15.9987C376.853 15.1992 376.988 14.252 376.791 13.4402Z" fill="#B4D8A2"/>
<path d="M385.505 23.4527C385.535 23.4158 385.572 23.3789 385.603 23.3482C383.032 22.0259 380.037 21.5339 377.177 21.9644C374.317 22.3949 371.605 23.7479 369.539 25.7775C369.133 26.1711 368.302 27.0137 368.45 27.6595C368.573 28.2007 369.52 28.7911 369.957 29.0802C371.304 29.9597 372.958 30.3472 374.557 30.261C376.784 30.1442 378.899 29.1848 380.714 27.8932C382.491 26.6201 384.01 25.0395 385.505 23.4527Z" fill="#CBEDBB"/>
<path d="M362.952 33.2981C362.989 33.0521 362.909 32.7877 362.822 32.5478C361.814 29.774 359.729 27.4062 357.109 26.0593C354.489 24.7124 351.352 24.3864 348.505 25.1737C347.49 25.4566 346.389 26.0101 346.149 27.0372C345.872 28.1996 347.035 29.731 347.779 30.5736C348.825 31.7606 350.627 32.5908 352.06 33.1813C355.141 34.4482 358.603 34.8111 361.863 34.1161C362.275 34.03 362.736 33.8762 362.902 33.4888C362.927 33.4211 362.945 33.3596 362.952 33.2981Z" fill="#B4D8A2"/>
<path d="M361.856 23.3212C362.17 22.5648 361.961 19.1821 361.899 18.807C361.641 17.1341 361.032 15.5166 360.116 14.0959C358.332 11.3406 355.325 9.43401 352.09 8.92969C350.712 12.0909 351.05 15.941 352.951 18.8131C354.851 21.6914 358.265 23.4996 361.715 23.4689C361.77 23.4689 361.813 23.4135 361.856 23.3212Z" fill="#B4D8A2"/>
<path d="M369.655 0C366.433 1.61136 363.843 4.45892 362.558 7.8231C361.451 10.7076 361.26 14.0594 362.152 17.03C362.804 19.1887 365.326 20.6341 367.54 19.9268C369.2 19.3979 370.436 17.9833 371.304 16.4765C374.225 11.3656 373.53 4.43432 369.655 0Z" fill="#CBEDBB"/>
<path fill-rule="evenodd" clip-rule="evenodd" d="M372.139 37.2541H358.491C358.394 37.2541 358.297 37.2854 358.207 37.3413C358.205 37.3413 358.201 37.3435 358.198 37.3458C358.178 37.3592 358.159 37.377 358.139 37.3927C357.894 37.5871 357.719 37.9691 357.752 38.407L358.964 54.7233C359.011 55.3534 359.298 55.8784 359.703 55.8784H370.928C371.334 55.8784 371.622 55.3534 371.667 54.7233L372.878 38.407C372.925 37.777 372.546 37.252 372.139 37.252V37.2541Z" fill="#FBEECA"/>
<path fill-rule="evenodd" clip-rule="evenodd" d="M393.587 42.6675C391.927 42.9899 389.911 42.9227 387.81 42.3819C385.708 41.8411 383.862 40.9189 382.482 39.8145C384.142 39.4921 386.158 39.5593 388.259 40.1001C390.361 40.6409 392.207 41.563 393.587 42.6675Z" fill="#B4D8A2"/>
<path fill-rule="evenodd" clip-rule="evenodd" d="M393.685 42.6929C392.803 42.8647 391.732 42.8276 390.616 42.5413C389.499 42.255 388.517 41.7639 387.784 41.1768C388.666 41.005 389.737 41.0422 390.854 41.3285C391.971 41.6148 392.952 42.1058 393.684 42.6936L393.685 42.6929Z" fill="#B4D8A2"/>
<path fill-rule="evenodd" clip-rule="evenodd" d="M396.124 45.1209C393.339 44.079 390.345 42.1441 387.619 39.4477C384.893 36.7496 382.879 33.7285 381.725 30.8721C384.51 31.9139 387.504 33.8488 390.23 36.5453C392.956 39.2433 394.97 42.2645 396.124 45.1209Z" fill="#B4D8A2"/>
<path fill-rule="evenodd" clip-rule="evenodd" d="M393.915 43.0255C396.301 42.5006 398.954 41.2639 401.472 39.3687C403.99 37.4734 405.965 35.2256 407.219 33.0103C404.833 33.5352 402.18 34.7719 399.662 36.6672C397.144 38.5625 395.169 40.8103 393.915 43.0255Z" fill="#B4D8A2"/>
<path fill-rule="evenodd" clip-rule="evenodd" d="M391.461 45.1738C393.886 43.196 395.951 40.3017 397.212 36.7797C398.474 33.2578 398.725 29.6829 398.123 26.5701C395.698 28.5479 393.633 31.4422 392.371 34.9642C391.11 38.4861 390.859 42.0611 391.461 45.1738Z" fill="#B4D8A2"/>
<path fill-rule="evenodd" clip-rule="evenodd" d="M395.551 44.8191C395.486 41.9355 394.593 38.6752 392.833 35.5177C391.075 32.3598 388.737 29.8193 386.262 28.1389C386.327 31.0225 387.22 34.2828 388.979 37.4403C390.737 40.5982 393.074 43.1391 395.551 44.8191Z" fill="#B4D8A2"/>
<path fill-rule="evenodd" clip-rule="evenodd" d="M395.743 51.4015C395.921 48.7624 395.424 45.3117 394.321 42.1629C393.219 39.0139 391.623 36.3405 389.853 34.4276C389.675 37.0668 390.103 40.1771 391.206 43.3258C392.308 46.4748 393.972 49.4906 395.743 51.4015Z" fill="#CBEDBB"/>
<path fill-rule="evenodd" clip-rule="evenodd" d="M392.361 46.5298C394.527 45.0109 396.901 42.458 398.659 39.6221C400.418 36.7874 401.496 33.8659 401.873 31.2873C399.707 32.8062 397.555 35.0922 395.798 37.928C394.039 40.7627 392.736 43.9514 392.361 46.5298Z" fill="#CBEDBB"/>
<path fill-rule="evenodd" clip-rule="evenodd" d="M396.299 42.8411C397.967 43.1161 399.98 42.9915 402.065 42.3911C404.151 41.7907 405.97 40.8164 407.317 39.6731C405.649 39.3981 403.636 39.5227 401.551 40.1231C399.466 40.7235 397.646 41.6978 396.299 42.8411Z" fill="#B4D8A2"/>
<path fill-rule="evenodd" clip-rule="evenodd" d="M395.996 42.7166C397.256 42.9239 398.776 42.829 400.352 42.3765C401.928 41.924 403.301 41.1863 404.319 40.3237C403.059 40.1164 401.539 40.2114 399.963 40.6639C398.387 41.1163 397.013 41.854 395.996 42.7166Z" fill="#B4D8A2"/>
<path fill-rule="evenodd" clip-rule="evenodd" d="M401.465 42.3682H387.406C387.306 42.3682 387.206 42.3963 387.114 42.4464C387.111 42.4464 387.107 42.4484 387.104 42.4504C387.084 42.4624 387.064 42.4785 387.044 42.4925C386.791 42.667 386.61 43.0098 386.645 43.4028L387.893 54.8412C387.942 55.4066 388.237 55.8778 388.655 55.8778H400.218C400.636 55.8778 400.933 55.4066 400.98 54.8412L402.227 43.4028C402.275 42.8374 401.885 42.3662 401.465 42.3662V42.3682Z" fill="#FBEECA"/>
<path d="M467.305 93.5352C467.305 91.5261 465.676 89.8975 463.667 89.8975H379.48C377.47 89.8975 375.842 91.5261 375.842 93.5352C375.842 95.5443 377.47 97.173 379.48 97.173H463.667C465.676 97.173 467.305 95.5443 467.305 93.5352Z" fill="#EBE5DD"/>
<path d="M426.293 89.6576H384.157C382.432 89.6576 381.039 88.2648 381.039 86.5395V83.2655C381.039 81.5402 382.432 80.1475 384.157 80.1475H426.293C428.018 80.1475 429.411 81.5402 429.411 83.2655V86.5395C429.411 88.2544 428.008 89.6576 426.293 89.6576Z" fill="#FBEECA"/>
<path d="M389.479 78.0899V76.3854C389.479 75.2421 390.414 74.3066 391.557 74.3066H427.321C428.465 74.3066 429.4 75.2421 429.4 76.3854V78.0899C429.4 79.2332 428.465 80.1686 427.321 80.1686H391.557C390.414 80.1686 389.479 79.2436 389.479 78.0899Z" fill="#FFE4DD"/>
<path d="M435.426 55.9844L437.894 55.9844C439.549 55.9844 440.903 56.7798 440.903 57.7519L440.903 88.162C440.903 89.1341 439.549 89.9295 437.894 89.9295L435.426 89.9295C433.771 89.9295 432.417 89.1341 432.417 88.162L432.417 57.7519C432.417 56.7798 433.756 55.9844 435.426 55.9844Z" fill="#FFE4DD"/>
<path d="M442.97 55.9844L445.438 55.9844C447.093 55.9844 448.447 56.7798 448.447 57.7519L448.447 88.162C448.447 89.1341 447.093 89.9295 445.438 89.9295L442.97 89.9295C441.315 89.9295 439.961 89.1341 439.961 88.162L439.961 57.7519C439.961 56.7798 441.3 55.9844 442.97 55.9844Z" fill="#FFE4DD"/>
<path d="M450.179 55.9844L452.373 55.9844C453.844 55.9844 455.048 56.7798 455.048 57.7519L455.048 88.162C455.048 89.1341 453.844 89.9295 452.373 89.9295L450.179 89.9295C448.708 89.9295 447.504 89.1341 447.504 88.162L447.504 57.7519C447.504 56.7798 448.695 55.9844 450.179 55.9844Z" fill="#FFE4DD"/>
<g opacity="0.7">
<path d="M340.985 134.581C340.985 129.61 345.015 125.581 349.985 125.581H485.474C490.445 125.581 494.474 129.61 494.474 134.581V182.824C494.474 187.794 490.445 191.824 485.474 191.824H349.985C345.015 191.824 340.985 187.794 340.985 182.824V134.581Z" fill="#FF9176"/>
<path d="M345.025 194.36C345.025 189.39 349.055 185.36 354.025 185.36H478.205C483.175 185.36 487.205 189.39 487.205 194.36V220.791C487.205 225.762 483.175 229.791 478.205 229.791H354.025C349.055 229.791 345.025 225.762 345.025 220.791V194.36Z" fill="#FFBAA9"/>
<path d="M356.643 174.72V225.233C356.643 230.756 352.166 235.233 346.643 235.233H333.796C328.273 235.233 323.796 230.756 323.796 225.233V187.316C319.359 187.316 314.623 186.714 311.61 183.456C306.919 178.383 305.992 170.678 309.652 164.179C313.065 158.12 320.745 156.72 327.699 156.72H338.643C348.584 156.72 356.643 164.779 356.643 174.72Z" fill="#FFBAA9"/>
<path d="M470.162 174.72V225.233C470.162 230.756 474.639 235.233 480.162 235.233H493.009C498.532 235.233 503.009 230.756 503.009 225.233V187.316H504.247C509.516 187.316 515.256 186.64 518.512 182.497C522.481 177.445 523.088 170.281 519.652 164.179C516.239 158.12 508.559 156.72 501.605 156.72H488.162C478.221 156.72 470.162 164.779 470.162 174.72Z" fill="#FFBAA9"/>
<path d="M345.025 192.631C345.025 188.615 348.28 182.36 352.296 182.36H479.934C483.949 182.36 487.204 188.615 487.204 192.631V222.521C487.204 226.536 483.949 235.791 479.934 235.791L350.296 234.791C346.28 234.791 345.025 226.536 345.025 222.521V192.631Z" fill="#FFBAA9"/>
<path d="M470.162 171.261V227.155C470.162 231.617 473.778 235.234 478.24 235.234H494.93C499.392 235.234 503.009 231.617 503.009 227.155V187.317H505.782C510.038 187.317 514.562 186.731 517.505 183.656C522.79 178.137 523.507 169.355 518.553 162.46C515.275 157.897 509.265 156.72 503.647 156.72H484.703C476.672 156.72 470.162 163.23 470.162 171.261Z" fill="#FFBAA9"/>
<path d="M427.379 178.775C427.379 177.671 428.274 176.775 429.379 176.775H464.406C465.511 176.775 466.406 177.671 466.406 178.775V180.476C466.406 181.581 465.511 182.476 464.406 182.476H429.379C428.274 182.476 427.379 181.581 427.379 180.476V178.775Z" fill="#CFE3FC"/>
<path d="M427.379 173.295C427.379 172.19 428.274 171.295 429.379 171.295H464.406C465.511 171.295 466.406 172.19 466.406 173.295V174.996C466.406 176.1 465.511 176.996 464.406 176.996H429.379C428.274 176.996 427.379 176.1 427.379 174.996V173.295Z" fill="#80BDC4"/>
<path d="M427.379 167.815C427.379 166.711 428.274 165.815 429.379 165.815H464.406C465.511 165.815 466.406 166.711 466.406 167.815V169.516C466.406 170.621 465.511 171.516 464.406 171.516H429.379C428.274 171.516 427.379 170.621 427.379 169.516V167.815Z" fill="#9E677D"/>
<path d="M427.379 162.335C427.379 161.23 428.274 160.335 429.379 160.335H464.406C465.511 160.335 466.406 161.23 466.406 162.335V164.036C466.406 165.14 465.511 166.036 464.406 166.036H429.379C428.274 166.036 427.379 165.14 427.379 164.036V162.335Z" fill="#FFE4DD"/>
</g>
<path d="M48.1564 139.755C48.2174 139.053 48.85 138.544 49.5511 138.62C77.1049 141.582 92.7211 169.28 81.5117 177.854C73.1465 184.252 57.4723 173.138 50.9719 157.127C50.7799 156.654 51.1861 156.162 51.689 156.25L60.5129 157.798C61.2438 157.926 61.5972 156.937 60.9505 156.573L48.9986 149.846C48.8307 149.752 48.7121 149.588 48.6762 149.399C48.0794 146.257 47.8728 143.017 48.1564 139.755Z" fill="#B4D8A2"/>
<path d="M115.333 140.727C115.794 140.299 116.532 140.47 116.77 141.052C119.926 148.766 121.688 156.955 121.82 163.854C121.822 163.961 121.787 164.064 121.721 164.148L116.945 170.268C116.62 170.685 117.128 171.236 117.57 170.946L120.846 168.796C121.174 168.58 121.602 168.842 121.552 169.231C120.708 175.737 117.906 180.194 112.855 180.418C101.8 180.91 100.69 154.298 115.333 140.727Z" fill="#B4D8A2"/>
<path fill-rule="evenodd" clip-rule="evenodd" d="M92.4452 233.066C106.991 195.524 102.092 163.185 93.7625 148.672L96.0867 147.338C104.903 162.7 109.715 195.912 94.9439 234.034L92.4452 233.066Z" fill="#CBEDBB"/>
<path d="M72.3651 135.399C72.5173 134.897 73.0683 134.638 73.556 134.831C95.5232 143.521 103.454 170.346 92.8354 174.991C87.4106 177.364 80.6212 172.059 76.0817 163.691C75.7912 163.155 79.1216 163.003 81.7598 162.966C82.2955 162.958 82.4277 162.153 81.9211 161.979C78.7074 160.871 73.9679 159.161 73.7699 158.64C72.6973 155.817 71.8913 152.796 71.451 149.701C71.3342 148.88 71.0762 143.967 71.0762 143.967C71.1172 141.074 71.5209 138.185 72.3651 135.399Z" fill="#CBEDBB"/>
<path d="M82.0173 100.171C81.5579 99.918 80.9808 100.112 80.7584 100.588C66.7637 130.482 84.6411 165.305 99.8166 159.749C107.54 156.922 109.261 145.078 105.781 132.319C105.533 131.41 101.236 135.288 98.5098 137.866C98.1205 138.234 97.4774 137.75 97.7244 137.274C99.8568 133.17 103.58 125.806 103.251 125.029C101.617 121.166 99.5242 117.359 96.9946 113.83C96.5415 113.198 94.0245 120.49 92.4381 125.292C92.2629 125.822 91.4272 125.657 91.4696 125.1C91.9313 119.026 92.6153 108.478 91.8638 107.714C88.958 104.762 85.6696 102.184 82.0173 100.171Z" fill="#CBEDBB"/>
<path fill-rule="evenodd" clip-rule="evenodd" d="M92.389 223.963C99.1496 195.83 93.4241 173.085 86.8589 163.443L89.0739 161.935C96.1616 172.344 101.887 195.908 94.9946 224.589L92.389 223.963Z" fill="#CBEDBB"/>
<path fill-rule="evenodd" clip-rule="evenodd" d="M110.411 181.47C113.609 167.539 113.512 156.281 110.399 148.69L112.878 147.673C116.3 156.017 116.269 167.925 113.023 182.07C109.767 196.256 103.237 212.866 93.4402 230.734L91.0904 229.446C100.799 211.737 107.223 195.36 110.411 181.47Z" fill="#B4D8A2"/>
<path d="M39.4123 189.085C38.987 189.547 39.1608 190.284 39.7435 190.52C47.4707 193.645 55.666 195.374 62.5663 195.478C62.6729 195.479 62.7759 195.444 62.8597 195.378L68.9604 190.577C69.3758 190.251 69.9293 190.757 69.6409 191.2L67.5034 194.483C67.2893 194.812 67.5529 195.24 67.942 195.188C74.4438 194.318 78.8899 191.498 79.094 186.446C79.5406 175.389 52.9249 174.386 39.4123 189.085Z" fill="#CBEDBB"/>
<path fill-rule="evenodd" clip-rule="evenodd" d="M75.3466 185.493C75.2801 185.452 75.2131 185.411 75.1458 185.369L76.5505 183.087C76.677 183.165 76.8023 183.242 76.9264 183.319C81.2596 185.985 84.1439 187.76 86.8058 190.352C89.547 193.021 92.0085 196.508 95.7064 202.616L93.414 204.003C89.7309 197.92 87.4161 194.686 84.9363 192.271C82.4897 189.889 79.8399 188.258 75.3466 185.493Z" fill="#CBEDBB"/>
<path fill-rule="evenodd" clip-rule="evenodd" d="M92.8711 196.333C90.6489 187.387 86.2932 180.122 78.7559 172.576L80.6518 170.682C88.4705 178.51 93.1127 186.19 95.4718 195.687C97.8169 205.128 97.8827 216.277 96.7256 230.989L94.0541 230.779C95.2065 216.127 95.1074 205.336 92.8711 196.333Z" fill="#B4D8A2"/>
<path d="M77.7163 196.431C77.3663 194.43 78.9065 192.597 80.9382 192.597H116.045C118.076 192.597 119.617 194.43 119.267 196.431L113.102 231.685C112.851 233.121 111.604 234.168 110.146 234.168H86.8364C85.3789 234.168 84.1323 233.121 83.8812 231.685L77.7163 196.431Z" fill="#FBEECA"/>
<path d="M78.1323 198.812H118.85L117.413 207.026H79.5688L78.1323 198.812Z" fill="#E4CB9B" fill-opacity="0.3"/>
<circle cx="494.502" cy="70.5422" r="9.25414" fill="white"/>
<path d="M512.783 83.7102C514.727 84.7754 517.2 84.062 517.932 81.9697C519.655 77.0426 519.813 71.6607 518.327 66.5864C516.461 60.2168 512.155 54.8535 506.357 51.6765C500.559 48.4995 493.743 47.7691 487.41 49.6458C482.353 51.1443 477.934 54.2067 474.75 58.3483C473.408 60.0939 474.144 62.5389 476.075 63.5969L512.783 83.7102Z" fill="#EBE5DD"/>
<path d="M498.609 50.1619C497.173 49.3192 497.335 47.1919 498.884 46.5776L507.186 43.2843C510.838 41.8353 514.874 44.23 515.353 48.1301L516.429 56.8855C516.63 58.5297 514.861 59.6925 513.432 58.8545L498.609 50.1619Z" fill="#EBE5DD"/>
<path fill-rule="evenodd" clip-rule="evenodd" d="M505.16 59.5691C505.161 59.5685 505.161 59.5678 502.783 58.7965C500.405 58.0252 500.405 58.0244 500.405 58.0234L500.408 58.0156L500.413 57.9993L500.43 57.9475C500.445 57.9045 500.465 57.8449 500.492 57.7697C500.544 57.6195 500.62 57.407 500.721 57.1421C500.921 56.6127 501.219 55.8704 501.617 54.9934C502.408 53.2497 503.617 50.9235 505.274 48.6702C508.524 44.2501 514.043 39.4593 521.853 41.2616C529.338 42.9889 532.988 48.6364 534.723 53.4424C535.594 55.8539 536.023 58.1436 536.237 59.8204C536.344 60.663 536.398 61.362 536.426 61.8585C536.44 62.1071 536.447 62.3057 536.451 62.4471C536.452 62.5179 536.453 62.5744 536.454 62.6157L536.454 62.6663L536.455 62.6829L536.455 62.689V62.6915C536.455 62.6926 536.455 62.6936 533.955 62.6936H536.455V229.268H531.455V62.6953L531.454 62.6791C531.454 62.6594 531.454 62.6253 531.452 62.5776C531.45 62.4821 531.445 62.3326 531.434 62.1359C531.412 61.742 531.367 61.1624 531.277 60.4525C531.095 59.0241 530.732 57.1128 530.02 55.1406C528.59 51.1792 525.908 47.3287 520.729 46.1336C515.875 45.0136 512.14 47.7722 509.302 51.6322C507.915 53.5188 506.871 55.5153 506.17 57.0593C505.823 57.8261 505.565 58.4689 505.396 58.9137C505.312 59.1358 505.251 59.3076 505.211 59.4199C505.192 59.4761 505.178 59.5172 505.169 59.5423L505.16 59.5691Z" fill="#EBE5DD"/>
<path d="M511.549 232.19C511.549 230.576 512.857 229.268 514.471 229.268H552.462C554.076 229.268 555.384 230.576 555.384 232.19C555.384 233.804 554.076 235.112 552.462 235.112H514.471C512.857 235.112 511.549 233.804 511.549 232.19Z" fill="#EBE5DD"/>
<rect x="551.47" y="189.597" width="14.2336" height="14.2336" rx="2" fill="#EBE5DD"/>
<rect x="553.936" y="192.062" width="9.30298" height="9.30298" rx="1" fill="#F4F1ED"/>
<path fill-rule="evenodd" clip-rule="evenodd" d="M320.471 158.287C328.183 148.158 333.136 139.345 330.29 129.142L335.106 127.799C338.668 140.568 332.146 151.208 324.449 161.316C322.915 163.331 321.329 165.334 319.737 167.344C313.123 175.697 306.397 184.19 302.778 194.325C300.437 200.88 301.93 206.787 305.7 209.852C309.403 212.862 316.304 213.914 326.463 208.578C330.211 206.086 333.755 204.107 337.376 203.388C341.194 202.629 344.879 203.307 348.753 205.664L346.154 209.935C343.236 208.16 340.815 207.802 338.35 208.292C335.723 208.814 332.84 210.336 329.128 212.81L329.023 212.88L328.91 212.94C317.759 218.834 308.443 218.525 302.546 213.731C296.702 208.981 295.221 200.617 298.069 192.643C301.995 181.651 309.376 172.347 316.029 163.961C317.566 162.024 319.064 160.136 320.471 158.287Z" fill="#B6B4B0"/>
<path d="M412.653 211.647C420.058 210.061 429.143 213.069 424.32 221.61C415.909 236.508 445.891 234.212 470.483 234.212H526.359C547.21 234.212 538.791 199.996 557.374 196.795" stroke="#B6B4B0" stroke-width="2.5"/>
<path d="M395.491 230.732C402.454 229.763 416.052 224.045 414.735 208.926C414.122 201.896 409.968 189.547 391.196 188.268C367.731 186.67 352.231 203.596 346.874 218.702C342.588 230.787 351.986 234.338 357.221 234.603L395.491 230.732Z" fill="#FEEB29"/>
<path d="M357.22 234.603L395.49 230.732C400.143 230.085 407.757 227.317 411.905 221.042C411.905 221.042 349.01 228.39 346.704 228.623C348.769 232.904 353.855 234.433 357.22 234.603Z" fill="#555551"/>
<circle cx="392.586" cy="220.888" r="14.3597" fill="#242424"/>
<circle cx="392.586" cy="220.888" r="10.517" fill="#555551"/>
<path d="M348.132 205.638C348.739 204.715 349.979 204.46 350.902 205.067L355.078 207.817C356.001 208.425 356.256 209.665 355.649 210.588L353.196 214.313C352.588 215.236 351.348 215.491 350.425 214.883L346.249 212.133C345.326 211.526 345.071 210.286 345.678 209.363L348.132 205.638Z" fill="#555551"/>
<path d="M407.773 198.91C409.419 198.726 410.903 199.912 411.088 201.558L411.413 204.47C411.598 206.116 410.412 207.6 408.766 207.785L408.495 207.815C406.849 207.999 405.365 206.814 405.181 205.167L404.855 202.256C404.671 200.609 405.856 199.125 407.503 198.941L407.773 198.91Z" fill="#E2D01E"/>
<rect x="413.179" y="208.451" width="3.43921" height="5.61768" rx="1" fill="#FEEB29"/>
<rect x="556.037" y="194.13" width="5.20923" height="5.17017" rx="1" fill="#B6B4B0"/>
<path d="M286.665 218.516C284.579 216.273 280.23 217.217 277.213 218.902C275.438 219.893 274.183 221.496 272.413 222.495C270.319 223.676 267.861 224.359 265.588 225.221C264.002 225.822 262.3 226.513 261.142 227.804C260.187 228.869 259.419 230.715 260.16 232.08C260.608 232.905 261.556 233.339 262.655 233.553C265.072 234.024 267.692 233.627 270.129 233.509C274.015 233.321 277.899 233.131 281.785 232.943C283.634 232.854 285.941 233.087 287.586 232.106C289.246 231.118 289.093 229.134 288.547 226.301C288.258 224.803 287.929 223.312 287.586 221.82C287.401 221.001 287.346 219.212 286.672 218.496L286.665 218.516Z" fill="#242424"/>
<path fill-rule="evenodd" clip-rule="evenodd" d="M287.237 217.671C285.897 216.363 283.991 216.068 282.193 216.241C280.302 216.423 278.328 217.134 276.726 218.029C275.746 218.576 274.921 219.284 274.18 219.92L274.16 219.937C273.39 220.597 272.707 221.181 271.922 221.624C270.497 222.427 268.932 222.974 267.288 223.548C266.615 223.783 265.929 224.022 265.234 224.286C263.673 224.877 261.741 225.639 260.398 227.137C259.829 227.771 259.318 228.631 259.054 229.554C258.79 230.476 258.745 231.57 259.281 232.557C259.948 233.786 261.28 234.304 262.464 234.535C263.786 234.792 265.135 234.807 266.429 234.751C267.077 234.723 267.722 234.675 268.347 234.629L268.438 234.622C269.036 234.578 269.612 234.535 270.177 234.508C271.896 234.425 273.614 234.341 275.332 234.258C277.499 234.152 279.665 234.047 281.833 233.942C282.204 233.924 282.593 233.92 283.015 233.915C283.093 233.915 283.172 233.914 283.252 233.913C283.756 233.907 284.296 233.896 284.836 233.856C285.905 233.777 287.077 233.574 288.098 232.966C289.261 232.273 289.763 231.208 289.888 229.998C290.006 228.86 289.8 227.52 289.529 226.112C289.237 224.598 288.905 223.094 288.562 221.599C288.526 221.442 288.494 221.222 288.45 220.915L288.446 220.883C288.406 220.6 288.358 220.267 288.295 219.933C288.23 219.588 288.142 219.212 288.012 218.859C287.886 218.513 287.698 218.127 287.4 217.81C287.35 217.758 287.296 217.711 287.237 217.671ZM286.007 219.269C285.981 219.246 285.956 219.222 285.933 219.197C285.193 218.402 283.964 218.079 282.384 218.232C280.824 218.382 279.115 218.985 277.701 219.775C276.915 220.214 276.231 220.795 275.462 221.455L275.421 221.491C274.687 222.12 273.87 222.821 272.904 223.366C271.314 224.263 269.486 224.901 267.778 225.497C267.144 225.719 266.526 225.935 265.943 226.156C264.33 226.767 262.86 227.388 261.887 228.472C261.501 228.902 261.15 229.498 260.976 230.105C260.802 230.714 260.834 231.225 261.039 231.603C261.267 232.023 261.832 232.374 262.847 232.572C263.942 232.785 265.112 232.807 266.341 232.753C266.955 232.726 267.572 232.681 268.199 232.635L268.298 232.627C268.889 232.583 269.489 232.539 270.081 232.51C271.797 232.427 273.514 232.344 275.231 232.26C277.4 232.155 279.568 232.049 281.737 231.945C282.148 231.925 282.581 231.92 283.001 231.915C283.077 231.915 283.153 231.914 283.228 231.913C283.728 231.907 284.214 231.897 284.688 231.862C285.646 231.79 286.45 231.619 287.075 231.247C287.572 230.951 287.823 230.53 287.899 229.792C287.983 228.984 287.839 227.915 287.565 226.491C287.279 225.009 286.953 223.531 286.612 222.044L286.611 222.041C286.554 221.79 286.511 221.484 286.471 221.205L286.468 221.179C286.426 220.886 286.385 220.593 286.33 220.306C286.274 220.012 286.211 219.755 286.134 219.546C286.087 219.419 286.043 219.329 286.007 219.269Z" fill="#242424"/>
<path d="M334.471 226.247C333.497 223.104 332.375 220.002 331.105 216.962C330.603 215.76 330.478 214.88 329.102 214.752C327.463 214.598 325.785 214.626 324.147 214.566C323.449 214.542 322.577 214.802 322.147 214.71C321.415 214.552 321.229 216.415 321.118 217.283C320.749 220.217 320.501 223.157 320.36 226.11C320.274 227.872 319.714 230.915 320.701 232.377C321.519 233.597 324.919 233.479 324.919 233.479L331.105 233.479C331.105 233.479 333.873 233.597 334.98 232.112C335.808 231.001 334.843 227.456 334.471 226.247Z" fill="#242424"/>
<path fill-rule="evenodd" clip-rule="evenodd" d="M322.878 212.895C323.194 212.849 323.712 212.775 324.206 212.792L324.211 212.792C324.68 212.809 325.182 212.819 325.704 212.829C326.855 212.851 328.097 212.875 329.267 212.985C329.794 213.034 330.313 213.166 330.791 213.433C331.281 213.707 331.633 214.071 331.893 214.447C332.136 214.801 332.299 215.17 332.416 215.455C332.468 215.582 332.519 215.714 332.566 215.833C332.572 215.85 332.579 215.867 332.585 215.884C332.639 216.022 332.689 216.149 332.742 216.277C334.034 219.37 335.175 222.526 336.166 225.721L336.167 225.725C336.364 226.365 336.725 227.645 336.929 228.942C337.03 229.587 337.102 230.298 337.075 230.968C337.051 231.572 336.939 232.453 336.403 233.173C335.436 234.469 333.899 234.919 332.955 235.097C332.437 235.195 331.969 235.233 331.633 235.248C331.463 235.255 331.322 235.257 331.219 235.257C331.167 235.256 331.125 235.256 331.093 235.255L331.078 235.254L324.942 235.254L324.919 235.255C324.887 235.256 324.842 235.257 324.786 235.257C324.674 235.258 324.519 235.258 324.331 235.253C323.959 235.244 323.444 235.218 322.888 235.146C322.344 235.076 321.697 234.954 321.088 234.728C320.52 234.518 319.739 234.128 319.228 233.368C318.392 232.129 318.326 230.483 318.353 229.314C318.368 228.671 318.42 228.032 318.47 227.471C318.48 227.358 318.49 227.249 318.499 227.145C318.538 226.708 318.571 226.343 318.587 226.024C318.73 223.029 318.982 220.043 319.357 217.062L319.357 217.06C319.362 217.019 319.368 216.972 319.374 216.92C319.425 216.506 319.515 215.772 319.687 215.143C319.779 214.806 319.943 214.305 320.262 213.871C320.607 213.403 321.348 212.778 322.407 212.953C322.409 212.953 322.412 212.953 322.415 212.953C322.499 212.946 322.613 212.932 322.799 212.906C322.824 212.902 322.85 212.899 322.878 212.895ZM324.857 231.705C324.878 231.705 324.898 231.704 324.918 231.704L331.105 231.704C331.128 231.704 331.15 231.705 331.173 231.706C331.176 231.706 331.178 231.706 331.18 231.706L331.105 233.479C331.18 231.706 331.181 231.706 331.18 231.706L331.177 231.706L331.174 231.706L331.173 231.706C331.173 231.706 331.173 231.706 331.173 231.706C331.174 231.706 331.177 231.706 331.18 231.706C331.189 231.706 331.207 231.707 331.233 231.707C331.286 231.707 331.37 231.706 331.476 231.701C331.693 231.692 331.987 231.667 332.299 231.608C332.933 231.489 333.32 231.292 333.498 231.117C333.492 231.148 333.488 231.161 333.489 231.162C333.49 231.162 333.506 231.119 333.556 231.052C333.556 231.052 333.556 231.051 333.556 231.052C333.54 231.073 333.521 231.095 333.498 231.117C333.508 231.068 333.522 230.976 333.528 230.827C333.542 230.481 333.505 230.023 333.421 229.491C333.256 228.436 332.95 227.341 332.774 226.77C332.775 226.771 332.775 226.772 332.775 226.772L334.47 226.247L332.774 226.768C332.774 226.769 332.774 226.77 332.774 226.77C331.817 223.681 330.714 220.633 329.467 217.646C329.395 217.474 329.331 217.311 329.277 217.17C329.27 217.152 329.263 217.135 329.256 217.117C329.208 216.995 329.17 216.895 329.131 216.801C329.075 216.665 329.035 216.58 329.008 216.528C328.988 216.525 328.965 216.522 328.936 216.519L328.935 216.519C327.895 216.421 326.887 216.403 325.813 216.383C325.259 216.373 324.687 216.362 324.084 216.34C323.924 216.335 323.706 216.363 323.293 216.421C323.213 216.433 323.123 216.445 323.027 216.457C322.975 216.736 322.937 217.044 322.899 217.347C322.892 217.4 322.885 217.453 322.879 217.506C322.516 220.391 322.271 223.285 322.133 226.194L322.133 226.196C322.113 226.595 322.072 227.054 322.032 227.496C322.023 227.593 322.014 227.689 322.006 227.783C321.957 228.334 321.915 228.877 321.902 229.398C321.877 230.455 321.997 231.051 322.132 231.316C322.166 231.335 322.226 231.364 322.321 231.399C322.58 231.495 322.936 231.572 323.344 231.625C323.74 231.677 324.126 231.697 324.417 231.704C324.561 231.708 324.677 231.708 324.755 231.707C324.794 231.707 324.822 231.706 324.84 231.706L324.857 231.705ZM329.085 216.544C329.085 216.544 329.084 216.544 329.083 216.544L329.085 216.544Z" fill="#242424"/>
<path d="M268.912 170.631C267.638 153.098 275.476 127.373 278.232 112.828L319.859 118.04L322.67 168.791C324.769 171.369 327.468 179.041 330.313 189.061C333.158 199.081 335.44 213.464 335.461 217.97C334.098 218.598 330.728 219.916 326.604 219.935C322.479 219.954 319.608 217.874 318.499 216.884C315.003 204.159 308.251 180.443 306.311 175.037C304.372 169.632 298.758 147.467 296.193 137.061C293.483 148.222 287.771 171.46 286.61 175.128C289.223 182.88 290.866 206.961 290.927 220.099C290.686 221.096 287.455 222.24 283.919 222.257C280.384 222.273 276.529 220.035 274.005 218.454C272.357 207.048 269.699 181.457 268.912 170.631Z" fill="#555551"/>
<path d="M267.434 52.8132C264.13 51.513 260.659 45.1511 259.548 41.7071C258.971 39.919 258.856 37.8988 257.927 36.364C257.299 35.328 256.316 34.7043 255.215 34.2723C253.364 33.5465 251.102 33.2486 249.004 32.8895C247.251 32.5896 245.516 31.9833 243.725 31.9963C242.094 32.0082 240.501 32.5402 239.087 33.3314C236.955 34.5239 235.169 36.4104 234.446 38.726C233.577 41.4987 234.482 44.2281 235.806 46.7401C237.178 49.3408 238.824 51.8605 240.47 54.2945C242.563 57.3874 244.995 60.3398 248.176 62.2104C248.766 62.5587 251.147 60.6766 251.477 60.6569C255.505 61.7049 256.443 69.2873 259.288 68.0059C265.499 69.2983 268.475 60.8983 270.907 56.91C272.248 54.7146 270.359 53.9642 267.434 52.8132Z" fill="#E4BC9B"/>
<path fill-rule="evenodd" clip-rule="evenodd" d="M247.74 30.8113C248.28 30.9357 248.77 31.0484 249.303 31.1395C249.595 31.1894 249.898 31.2391 250.21 31.2903C252.011 31.5855 254.1 31.9278 255.863 32.6195C257.158 33.1274 258.539 33.9474 259.445 35.4442C260.061 36.4616 260.372 37.5783 260.597 38.5329C260.674 38.8565 260.739 39.1547 260.801 39.4361C260.939 40.0629 261.058 40.6065 261.237 41.1616C261.74 42.7197 262.814 45.0302 264.157 47.0962C264.825 48.1237 265.534 49.0504 266.239 49.7779C266.96 50.5219 267.59 50.9665 268.084 51.1611L268.098 51.1665C268.811 51.4469 269.529 51.7295 270.154 52.0232C270.771 52.3128 271.429 52.6721 271.961 53.153C272.524 53.6617 273.027 54.3848 273.11 55.3531C273.189 56.2711 272.862 57.113 272.422 57.8336C272.022 58.49 271.615 59.2572 271.151 60.133C270.947 60.5183 270.731 60.9246 270.5 61.3517C269.773 62.6967 268.929 64.1745 267.936 65.5015C266.058 68.01 263.301 70.4042 259.421 69.8313C258.897 69.9615 258.354 69.9607 257.816 69.8082C257.119 69.6103 256.581 69.1996 256.183 68.8047C255.453 68.0801 254.837 67.0274 254.336 66.1729L254.292 66.097C253.728 65.1336 253.219 64.2662 252.634 63.5637C252.268 63.1251 251.926 62.8185 251.597 62.619C251.587 62.6253 251.577 62.6316 251.567 62.6381C251.349 62.7759 251.084 62.944 250.843 63.0901C250.473 63.3137 250.013 63.5766 249.569 63.759C249.349 63.849 249.057 63.9518 248.735 63.9997C248.451 64.042 247.863 64.0852 247.277 63.74C243.75 61.666 241.138 58.4475 239.001 55.2887C237.348 52.8463 235.656 50.2594 234.236 47.5676C232.85 44.9393 231.666 41.6648 232.752 38.196C233.641 35.3516 235.79 33.1417 238.22 31.782C239.822 30.8859 241.708 30.2355 243.712 30.221C244.803 30.213 245.834 30.3936 246.75 30.5894C247.108 30.6659 247.432 30.7405 247.74 30.8113ZM246.008 34.0609C245.17 33.8818 244.439 33.7658 243.738 33.7709C242.481 33.78 241.18 34.1938 239.954 34.88C238.121 35.9052 236.699 37.468 236.141 39.2546L236.14 39.2564C235.49 41.3325 236.113 43.5163 237.377 45.9118C238.7 48.4214 240.3 50.8739 241.941 53.2994C243.852 56.1245 245.941 58.6526 248.516 60.3327C248.656 60.2587 248.82 60.1648 249.006 60.0523C249.222 59.9215 249.412 59.8007 249.604 59.6789C249.722 59.6038 249.841 59.5283 249.967 59.45C250.11 59.3604 250.273 59.2612 250.424 59.18C250.499 59.1398 250.601 59.0877 250.714 59.0406L250.716 59.0399C250.79 59.0095 251.045 58.9041 251.372 58.8846L251.653 58.8679L251.925 58.9387C253.434 59.3315 254.542 60.3085 255.36 61.2905C256.138 62.2227 256.775 63.3111 257.291 64.1933C257.314 64.2317 257.336 64.2697 257.358 64.3072C257.944 65.3071 258.333 65.9365 258.685 66.2856C258.696 66.2967 258.706 66.3069 258.716 66.3162L259.085 66.1502L259.649 66.2677C261.719 66.6982 263.402 65.6342 265.094 63.374C265.925 62.2641 266.669 60.9748 267.378 59.6635C267.57 59.3076 267.763 58.9426 267.957 58.5785C268.446 57.6556 268.933 56.7378 269.391 55.9856L269.392 55.9843C269.456 55.8801 269.497 55.7989 269.524 55.7387C269.372 55.6168 269.101 55.4506 268.645 55.2364C268.14 54.9989 267.53 54.7579 266.785 54.4646C265.627 54.0091 264.584 53.1708 263.69 52.2486C262.78 51.31 261.932 50.1872 261.181 49.0312C259.685 46.7302 258.467 44.1377 257.859 42.2518C257.624 41.5246 257.447 40.7207 257.295 40.0291C257.242 39.7852 257.191 39.5552 257.142 39.3475C256.933 38.4613 256.722 37.8005 256.409 37.283C256.06 36.7078 255.475 36.2804 254.567 35.9244C253.186 35.3826 251.536 35.1094 249.714 34.8077C249.383 34.7529 249.046 34.6971 248.704 34.6387C248.08 34.5319 247.412 34.3787 246.806 34.2401C246.522 34.1751 246.253 34.1133 246.008 34.0609Z" fill="#242424"/>
<path d="M257.46 29.8361C256.455 27.3012 255.065 24.2279 252.245 23.3232C251.118 22.9628 249.837 22.9947 248.795 23.5494C248.632 22.9241 248.098 22.4031 247.414 22.3823C246.677 22.3633 246.051 22.9784 245.912 23.678C243.109 22.6352 239.957 23.7857 237.729 25.6275C236.366 26.7535 235.218 28.1137 234.113 29.4837C233.048 30.8095 232.046 32.1852 231.25 33.6966C230.71 34.7205 230.235 35.7779 230.147 36.9516C230.137 37.0875 230.124 37.2397 230.041 37.3444C229.932 37.4887 229.723 37.5171 229.543 37.4895C229.363 37.462 229.193 37.3923 229.01 37.3811C228.812 37.3674 228.633 37.4641 228.505 37.6223C228.472 37.6642 228.295 38.0563 228.316 38.0495C227.705 39.6963 231.48 41.9679 229.856 42.695C228.083 43.4934 230.301 44.4836 231.269 44.6151C231.821 44.6862 232.293 44.5103 232.703 44.2143C232.636 44.4152 232.568 44.6162 232.541 44.8199C232.478 45.2764 232.521 45.7692 232.82 46.1402C233.516 47.0216 234.674 46.5852 235.394 45.9945C236.28 45.2718 236.949 44.3078 237.64 43.4143C238.377 42.4674 239.15 41.563 239.982 40.6944C240.814 39.8257 241.729 39.047 242.644 38.2683C242.898 38.9578 243.414 39.5935 243.909 40.0884C244.735 40.9124 245.759 41.579 246.803 42.091C247.967 42.6582 249.182 42.9046 250.429 43.203C251.719 43.5111 252.788 44.1476 253.61 45.1991C253.82 45.4661 254.236 45.285 254.26 44.9734C254.302 44.4533 254.393 43.9408 254.536 43.4428C254.666 42.9799 256.006 45.0094 255.865 44.5485C255.01 41.661 254.934 41.3039 254.802 40.8477C254.654 40.3422 254.613 39.9972 254.727 39.5786C254.966 38.7065 255.756 38.0227 256.683 38.0975C257.08 38.1248 257.484 38.2906 257.807 38.5212C258.196 38.8087 258.352 39.1947 258.629 39.5492C258.75 39.97 260.568 40.6608 260.499 40.1608C259.865 35.8618 258.676 32.8796 257.465 29.8268L257.46 29.8361Z" fill="#242424"/>
<path d="M255.225 43.3351C254.777 43.0996 254.241 43.0599 253.834 43.3511C253.433 43.6401 253.276 44.1626 253.267 44.6522C253.265 45.1396 253.391 45.6237 253.464 46.1096C253.869 48.8917 252.3 51.6726 250.13 53.4613C248.403 54.886 246.339 55.8038 244.261 56.5888C243.335 56.9413 242.614 57.0829 243.094 58.1678C243.356 58.7676 243.785 59.5339 244.22 60.0325C244.724 60.6073 245.254 61.1663 245.782 61.7184C246.608 62.5847 247.694 63.5726 248.931 63.6901C251.715 63.9624 254.247 62.3078 255.99 60.2768C257.523 58.4887 259.567 55.2273 258.721 52.7475C258.327 51.5971 257.948 50.4263 257.579 49.2602C257.304 48.4061 257.064 47.525 256.761 46.6799C256.433 45.7819 256.416 44.6696 255.856 43.8768C255.691 43.6487 255.471 43.4611 255.216 43.3305L255.225 43.3351Z" fill="#242424"/>
<path d="M254.305 65.9309C255.585 65.7893 260.807 65.9318 264.873 62.796C269.427 58.447 268.896 52.4081 269.031 50.7993C272.633 50.7735 291.141 48.3088 295.257 50.1214C304.299 54.1042 303.568 62.2254 307.346 69.6971C314.499 83.8425 320.055 107.634 318.1 119.118L278.447 110.51C279.354 105.777 273 100.408 272.491 97.4257C271.983 94.4431 267.005 91.3644 264.825 89.2295C263.655 90.1707 258.656 91.9523 254.677 92.0169C250.698 92.0815 254.754 86.9019 253.454 86.3306C253.743 83.8259 246.903 79.1231 248.245 73.3084C248.661 71.503 249.939 70.342 250.585 69.287C252.011 66.9563 253.448 66.5024 254.305 65.9309Z" fill="#FEEB29"/>
<path d="M270.041 50.6646L273.681 50.0475C275.278 55.7391 275.714 61.1996 280.779 69.8468C282.015 71.9561 288.506 85.2291 296.427 87.6341C304.348 90.0391 320.153 101.13 319.919 108.629C319.685 116.128 326.452 149.396 322.246 152.565C318.039 155.734 287.578 155.962 283.77 155.046C279.963 154.13 268.259 155.099 267.827 152.565C267.482 150.538 272.856 125.149 278.155 110.335C277.48 109.865 276.602 108.696 277.125 106.975C275.973 106.104 275.161 104.719 275.081 103.168C273.079 100.341 263.533 91.5044 259.589 85.4891C253.879 76.7776 252.509 72.479 251.208 68.1384L253.35 66.3857C253.35 66.3857 254.008 67.2739 255.629 70.1691C257.249 73.0642 260.982 77.2342 263.315 78.7837L277.125 73.2425C276.699 72.2719 275.413 69.3823 273.681 65.5881C271.949 61.794 270.533 54.0582 270.041 50.6646Z" fill="#87B8F7"/>
<path fill-rule="evenodd" clip-rule="evenodd" d="M323.787 94.3428C321.117 95.2529 318.467 97.6093 316.905 100.647L315.991 102.426L317.769 103.34C320.78 104.888 324.27 105.339 326.969 104.621C328.325 104.26 329.672 103.547 330.538 102.31C331.454 101.002 331.624 99.4031 331.123 97.7721C330.617 96.1219 329.572 94.8817 328.078 94.2949C326.66 93.7378 325.131 93.8849 323.787 94.3428ZM326.616 98.0179C326.805 98.0921 327.093 98.2736 327.299 98.9456C327.498 99.5925 327.361 99.8731 327.261 100.017C327.11 100.232 326.73 100.545 325.94 100.755C324.835 101.049 323.306 101.031 321.713 100.601C322.759 99.359 324 98.4961 325.077 98.129C325.848 97.8665 326.351 97.914 326.616 98.0179Z" fill="#87B8F7"/>
<path fill-rule="evenodd" clip-rule="evenodd" d="M326.449 110.436C327.356 110.79 328.331 111.07 329.151 111.083L329.218 107.084C329.219 107.084 329.21 107.084 329.19 107.082C329.169 107.08 329.141 107.077 329.105 107.071C329.031 107.059 328.934 107.04 328.812 107.009C328.568 106.947 328.261 106.849 327.902 106.709C327.183 106.429 326.322 106.007 325.436 105.454C323.631 104.328 321.925 102.789 321.009 101.036L317.464 102.889C318.832 105.507 321.18 107.514 323.319 108.848C324.404 109.525 325.487 110.061 326.449 110.436Z" fill="#87B8F7"/>
<path d="M175.45 230.653C175.449 229.655 176.185 228.809 177.173 228.671L195.957 226.051L205.051 226.045C205.257 226.045 205.461 226.076 205.656 226.138L213.877 228.742C214.708 229.005 215.273 229.775 215.274 230.647L215.275 233.374C215.276 234.478 214.381 235.374 213.277 235.375L177.453 235.4C176.348 235.401 175.452 234.506 175.452 233.401L175.45 230.653Z" fill="#242424"/>
<path fill-rule="evenodd" clip-rule="evenodd" d="M286.256 123.595L204.913 225.326L200.227 221.579L281.57 119.848L286.256 123.595Z" fill="#B6B4B0"/>
<path fill-rule="evenodd" clip-rule="evenodd" d="M303.49 112.538C300.711 112.955 298.942 113.649 298.496 113.936L295.792 109.73C297.128 108.871 299.73 108.047 302.747 107.593C305.869 107.125 309.771 107.001 313.843 107.787C322.133 109.387 330.94 114.749 335.129 127.903L330.365 129.421C326.786 118.183 319.573 113.985 312.895 112.696C309.483 112.037 306.163 112.136 303.49 112.538Z" fill="#B6B4B0"/>
<path d="M255.77 107.719C255.854 105.603 253.416 99.0203 252.708 96.1442L264.534 94.8834C264.534 94.8834 267.065 100.569 267.224 104.822C267.328 107.587 267.275 110.734 268.268 114.929C269.261 119.124 268.351 125.42 267.723 127.705C267.114 129.925 266.128 134.59 266.6 137.575C267.166 141.152 267.53 145.983 265.619 148.739C265.102 149.485 260.712 148.34 260.712 148.34C260.712 148.34 260.018 152.914 257.389 152.696C254.424 152.45 256.102 150.105 256.051 145.66C256.001 141.214 259.238 140.628 259.208 137.985C259.178 135.341 257.548 126.195 256.679 121.038C255.81 115.88 255.665 110.364 255.77 107.719Z" fill="#E4BC9B"/>
<path fill-rule="evenodd" clip-rule="evenodd" d="M266.155 94.1617L264.534 94.8834C266.155 94.1617 266.155 94.1614 266.155 94.1617L266.159 94.1691L266.166 94.1847L266.19 94.24C266.21 94.2874 266.24 94.3555 266.277 94.4426C266.351 94.6166 266.455 94.8669 266.58 95.1792C266.829 95.803 267.163 96.6795 267.503 97.6955C268.169 99.6887 268.908 102.369 268.998 104.756C269.013 105.164 269.025 105.574 269.037 105.989C269.109 108.461 269.187 111.108 269.995 114.52C270.554 116.88 270.56 119.714 270.373 122.168C270.185 124.636 269.785 126.898 269.435 128.175C269.146 129.227 268.764 130.875 268.512 132.608C268.256 134.374 268.159 136.074 268.353 137.298C268.644 139.136 268.895 141.368 268.812 143.534C268.73 145.66 268.318 147.961 267.078 149.75C266.633 150.391 265.971 150.591 265.668 150.663C265.304 150.749 264.933 150.768 264.625 150.766C263.999 150.763 263.292 150.672 262.681 150.57C262.448 150.532 262.219 150.49 262 150.447C261.904 150.729 261.79 151.027 261.655 151.328C261.127 152.501 259.816 154.679 257.242 154.465C256.313 154.388 255.264 154.115 254.553 153.23C253.871 152.382 253.829 151.366 253.853 150.688C253.872 150.162 253.954 149.53 254.033 148.926C254.057 148.742 254.081 148.56 254.102 148.384C254.202 147.57 254.287 146.678 254.276 145.68C254.245 142.908 255.284 141.267 256.218 140.06C256.329 139.917 256.43 139.786 256.523 139.667C257.257 138.726 257.438 138.493 257.433 138.005C257.419 136.844 257.033 134.046 256.505 130.734C256.132 128.395 255.707 125.9 255.334 123.718C255.189 122.866 255.051 122.061 254.929 121.333C254.036 116.037 253.887 110.397 253.996 107.648C254.006 107.388 253.927 106.793 253.699 105.832C253.484 104.926 253.178 103.856 252.837 102.731C252.627 102.039 252.401 101.316 252.178 100.604C251.699 99.0729 251.236 97.5903 250.984 96.5686C250.862 96.0709 250.96 95.5447 251.254 95.1251C251.549 94.7055 252.01 94.4336 252.52 94.3793L264.346 93.1184C265.111 93.0368 265.842 93.4581 266.155 94.1617ZM261.16 146.623L261.167 146.625L261.198 146.633C261.227 146.64 261.27 146.651 261.326 146.665C261.439 146.692 261.602 146.732 261.8 146.777C262.2 146.868 262.728 146.979 263.262 147.068C263.723 147.145 264.14 147.196 264.465 147.211C264.941 146.262 265.204 144.962 265.264 143.397C265.335 141.564 265.122 139.592 264.847 137.853C264.568 136.091 264.728 133.966 264.999 132.098C265.275 130.197 265.691 128.403 266.011 127.235C266.288 126.227 266.658 124.198 266.833 121.898C267.01 119.584 266.975 117.174 266.54 115.338C265.643 111.55 265.558 108.539 265.487 106.057C265.475 105.654 265.464 105.265 265.45 104.889C265.38 103.023 264.775 100.734 264.136 98.8205C263.872 98.0326 263.612 97.3339 263.399 96.7894L254.99 97.686C255.151 98.2146 255.33 98.7858 255.517 99.3843C255.749 100.124 255.993 100.907 256.234 101.702C256.581 102.846 256.913 103.999 257.153 105.012C257.381 105.97 257.575 106.991 257.543 107.789C257.442 110.331 257.584 115.723 258.429 120.743C258.55 121.458 258.686 122.254 258.83 123.1C259.203 125.288 259.635 127.816 260.011 130.175C260.522 133.385 260.965 136.482 260.982 137.965C261.003 139.804 259.946 141.099 259.277 141.92C259.184 142.033 259.099 142.137 259.025 142.233C258.361 143.091 257.807 143.965 257.826 145.639C257.84 146.864 257.734 147.933 257.626 148.816C257.593 149.085 257.562 149.323 257.534 149.538C257.464 150.079 257.413 150.47 257.401 150.817C257.399 150.852 257.399 150.884 257.399 150.913C257.438 150.918 257.484 150.923 257.535 150.927C257.59 150.932 257.941 150.931 258.417 149.872C258.611 149.441 258.75 148.985 258.84 148.622C258.884 148.444 258.915 148.297 258.934 148.199C258.944 148.15 258.95 148.114 258.954 148.092L258.957 148.074C259.033 147.577 259.316 147.134 259.735 146.858C260.155 146.581 260.674 146.496 261.16 146.623C261.16 146.623 261.16 146.623 261.16 146.623Z" fill="#242424"/>
<path d="M283.66 122.058C283.66 122.058 290.664 113.028 296.824 111.51" stroke="#D3CFC9" stroke-width="6" stroke-linecap="round"/>
<path d="M304.648 117.774C307.753 114.602 309.182 110.563 311.442 106.796C316.416 102.63 320.624 97.8017 325.194 93.2952C327.885 90.6415 332.88 84.5197 333.079 79.5242C332.421 71.9059 320.851 68.4526 320.851 68.4526C319.194 68.0993 313.124 79.6483 313.124 79.6483C313.124 79.6483 319.659 82.6747 318.281 84.7071C316.166 87.8247 312.309 92.981 309.595 95.8031C308.631 96.8058 304.455 99.7624 303.53 100.415C301.67 101.721 298.826 101.338 296.623 102.625C293.029 104.725 288.703 108.611 288.703 108.611C288.703 114.754 295.46 111.74 295.46 111.74C291.592 115.332 289.716 117.775 289.716 117.775C289.716 117.775 300.17 122.35 304.648 117.774Z" fill="#E4BC9B"/>
<path fill-rule="evenodd" clip-rule="evenodd" d="M319.721 66.9212C320.037 66.7689 320.579 66.5805 321.22 66.7172C321.267 66.7271 321.312 66.7388 321.358 66.7523L320.85 68.4532C321.358 66.7523 321.358 66.7525 321.359 66.7527L321.36 66.7531L321.364 66.7542L321.374 66.7573L321.407 66.7674C321.435 66.7758 321.473 66.7878 321.521 66.8032C321.617 66.8341 321.754 66.8789 321.926 66.9381C322.269 67.0562 322.754 67.2317 323.334 67.4663C324.489 67.9335 326.049 68.6446 327.642 69.617C330.721 71.4959 334.441 74.6708 334.847 79.3719C334.854 79.4463 334.855 79.521 334.852 79.5955C334.734 82.5796 333.221 85.6896 331.561 88.2532C329.87 90.8647 327.862 93.1573 326.44 94.5597C325.027 95.9532 323.62 97.4098 322.195 98.8844C319.215 101.969 316.158 105.133 312.814 107.961C312.19 109.02 311.654 110.054 311.099 111.127C310.725 111.847 310.343 112.586 309.918 113.361C308.861 115.293 307.636 117.26 305.916 119.016C304.436 120.529 302.525 121.216 300.66 121.465C298.801 121.712 296.876 121.542 295.187 121.238C293.488 120.931 291.952 120.475 290.847 120.099C290.292 119.91 289.84 119.739 289.522 119.614C289.364 119.552 289.239 119.5 289.151 119.464C289.107 119.445 289.072 119.431 289.048 119.42L289.018 119.408L289.009 119.404L289.005 119.402C289.004 119.401 289.004 119.401 289.716 117.775C288.308 116.694 288.308 116.694 288.308 116.694L288.312 116.689L288.318 116.681L288.34 116.653C288.358 116.63 288.383 116.598 288.416 116.557C288.482 116.474 288.577 116.356 288.703 116.205C288.954 115.902 289.324 115.466 289.817 114.918C290.048 114.661 290.307 114.379 290.592 114.074C289.894 113.899 289.182 113.572 288.559 113C287.446 111.979 286.928 110.468 286.928 108.612C286.928 108.108 287.142 107.628 287.517 107.292L288.703 108.612C287.517 107.292 287.516 107.292 287.517 107.292L287.532 107.278L287.572 107.242C287.607 107.211 287.658 107.166 287.723 107.109C287.853 106.994 288.041 106.83 288.277 106.626C288.75 106.22 289.418 105.656 290.201 105.025C291.752 103.775 293.814 102.212 295.727 101.093C297.076 100.305 298.578 100.025 299.713 99.814C299.769 99.8037 299.824 99.7934 299.878 99.7833C301.17 99.5412 301.947 99.3575 302.508 98.9641C302.97 98.6387 304.23 97.7465 305.493 96.8135C306.821 95.8321 307.961 94.9416 308.315 94.5734C310.832 91.956 314.447 87.1584 316.579 84.0508C316.325 83.7316 315.853 83.3215 315.209 82.8761C314.555 82.4235 313.845 82.0173 313.287 81.7195C313.011 81.5721 312.779 81.4547 312.617 81.3751C312.536 81.3353 312.474 81.3052 312.433 81.2856L312.388 81.2642L312.378 81.2598C311.937 81.0554 311.598 80.6787 311.442 80.2184C311.286 79.7579 311.326 79.2535 311.552 78.8231L313.124 79.6489C311.552 78.8231 311.552 78.8233 311.552 78.8231L311.553 78.8222L311.572 78.7869L311.624 78.687C311.67 78.6002 311.738 78.4738 311.824 78.3136C311.996 77.9933 312.243 77.5374 312.544 76.9918C313.146 75.9025 313.969 74.4473 314.848 72.998C315.72 71.5604 316.676 70.0801 317.542 68.965C317.968 68.4156 318.424 67.8875 318.878 67.493C319.104 67.297 319.388 67.0811 319.721 66.9212ZM315.542 78.9076C316.06 79.2006 316.652 79.5579 317.228 79.9563C318.004 80.4927 318.889 81.1964 319.486 82.0083C320.07 82.8028 320.73 84.2573 319.749 85.7041C317.614 88.852 313.691 94.1046 310.874 97.0341C310.264 97.6685 308.835 98.7577 307.603 99.6684C306.306 100.626 305.018 101.538 304.553 101.866L304.55 101.868C303.283 102.758 301.753 103.044 300.616 103.257C300.588 103.262 300.56 103.267 300.532 103.273C299.245 103.514 298.305 103.699 297.518 104.159C295.838 105.14 293.94 106.57 292.429 107.788C291.681 108.391 291.043 108.93 290.592 109.318C290.571 109.336 290.55 109.354 290.53 109.372C290.628 110.015 290.842 110.277 290.959 110.384C291.144 110.555 291.487 110.7 292.096 110.705C292.697 110.71 293.354 110.575 293.903 110.413C294.168 110.335 294.388 110.257 294.537 110.2C294.612 110.171 294.668 110.148 294.703 110.134C294.72 110.127 294.732 110.122 294.738 110.119C294.74 110.118 294.741 110.118 294.742 110.118L294.741 110.118L294.738 110.119C295.53 109.767 296.462 110.038 296.941 110.762C297.419 111.487 297.304 112.451 296.668 113.042C294.959 114.628 293.653 115.981 292.738 116.981C293.622 117.256 294.685 117.54 295.817 117.744C297.302 118.011 298.829 118.127 300.191 117.946C301.545 117.765 302.621 117.308 303.379 116.533C304.765 115.118 305.807 113.479 306.804 111.656C307.146 111.032 307.497 110.356 307.86 109.657C308.506 108.415 309.188 107.102 309.919 105.883C310.021 105.714 310.15 105.562 310.302 105.435C313.595 102.677 316.497 99.6712 319.472 96.5909C320.928 95.0825 322.402 93.5561 323.948 92.032C325.217 90.7806 327.052 88.6855 328.581 86.3238C330.112 83.9589 331.185 81.5563 331.3 79.5665C330.997 76.7005 328.627 74.3773 325.793 72.6473C324.411 71.8041 323.037 71.1757 322.003 70.7574C321.608 70.5979 321.267 70.4703 320.997 70.3741C320.823 70.5551 320.605 70.8088 320.346 71.142C319.608 72.093 318.736 73.4337 317.883 74.8391C317.038 76.2329 316.24 77.6429 315.652 78.708C315.614 78.776 315.577 78.8426 315.542 78.9076ZM295.46 111.741L294.738 110.119C294.737 110.12 294.738 110.119 294.738 110.119C294.737 110.12 294.737 110.12 295.46 111.741ZM289.716 117.775L288.308 116.694C287.976 117.126 287.861 117.689 287.997 118.217C288.132 118.746 288.504 119.182 289.004 119.401L289.716 117.775Z" fill="#242424"/>
<path fill-rule="evenodd" clip-rule="evenodd" d="M297.989 110.87C298.642 112.392 297.938 114.157 296.415 114.81C294.113 115.799 291.555 117.951 289.433 120.089C288.407 121.122 287.547 122.086 286.945 122.79C286.644 123.141 286.41 123.426 286.253 123.619C286.175 123.715 286.116 123.789 286.079 123.836L286.038 123.887L286.031 123.897L286.03 123.898C285.014 125.206 283.13 125.444 281.821 124.429C280.512 123.413 280.274 121.529 281.29 120.22L283.66 122.058C281.29 120.22 281.29 120.219 281.29 120.219L281.293 120.215L281.299 120.208L281.316 120.186L281.376 120.11C281.427 120.045 281.5 119.954 281.593 119.839C281.779 119.61 282.047 119.285 282.385 118.89C283.06 118.101 284.021 117.024 285.175 115.862C287.41 113.61 290.638 110.761 294.049 109.297C295.571 108.643 297.335 109.347 297.989 110.87Z" fill="#B6B4B0"/>
<path d="M327.234 65.9294C313.58 57.9 303.013 48.2603 294.359 50.2869L312.297 84.7124C315.129 83.4945 321.485 79.9988 324.25 75.759C327.015 71.5192 327.392 67.4393 327.234 65.9294Z" fill="#FEEB29"/>
<path d="M268.836 147.755C267.955 149.694 265.424 155.188 262.274 152.514C259.124 149.839 261.456 146.154 261.456 146.154C261.456 146.154 265.737 139.132 268.194 140.568C270.65 142.005 269.969 145.26 268.836 147.755Z" fill="#E4BC9B"/>
<path fill-rule="evenodd" clip-rule="evenodd" d="M265.179 139.32C266.105 138.754 267.611 138.171 269.09 139.036C271.017 140.163 271.642 142.032 271.636 143.771C271.63 145.436 271.065 147.138 270.452 148.488L270.443 148.508C270.015 149.451 269.067 151.539 267.734 153.042C267.064 153.797 266.129 154.601 264.925 154.895C263.592 155.22 262.273 154.841 261.125 153.866C258.97 152.036 258.672 149.768 258.929 148.066C259.053 147.243 259.302 146.546 259.514 146.06C259.622 145.814 259.724 145.614 259.802 145.469C259.842 145.397 259.875 145.338 259.902 145.294C259.915 145.271 259.926 145.253 259.935 145.238L259.945 145.222L259.946 145.22L259.958 145.201L260 145.133C260.036 145.076 260.087 144.995 260.152 144.893C260.283 144.69 260.471 144.405 260.703 144.069C261.165 143.401 261.819 142.51 262.567 141.654C263.296 140.82 264.202 139.917 265.179 139.32ZM262.971 147.078L262.964 147.09L262.962 147.093C262.961 147.094 262.96 147.096 262.959 147.097C262.953 147.108 262.94 147.131 262.921 147.164C262.885 147.232 262.829 147.341 262.767 147.482C262.641 147.771 262.504 148.162 262.439 148.595C262.317 149.404 262.429 150.316 263.423 151.16C263.835 151.51 264.016 151.463 264.078 151.448C264.08 151.447 264.082 151.447 264.084 151.446C264.268 151.401 264.611 151.212 265.078 150.686C266.009 149.636 266.763 148.026 267.22 147.02C267.74 145.876 268.082 144.703 268.086 143.758C268.089 142.945 267.861 142.476 267.401 142.165C267.333 142.187 267.214 142.237 267.03 142.349C266.513 142.665 265.888 143.248 265.24 143.99C264.611 144.71 264.041 145.484 263.623 146.088C263.416 146.388 263.25 146.64 263.137 146.816C263.08 146.903 263.037 146.971 263.009 147.016L262.978 147.066L262.971 147.078ZM267.476 142.151C267.476 142.152 267.466 142.154 267.448 142.153C267.468 142.149 267.477 142.149 267.476 142.151Z" fill="#242424"/>
<path d="M261.79 101.058C257.831 102.466 252.828 102.816 249.691 101.73C249.691 101.73 245.626 82.5634 246.077 78.3655C246.528 74.1675 249.332 70.9052 249.332 70.9052L254.63 78.3655C254.63 78.3655 259.295 85.7092 261.79 88.5918C264.286 91.4745 269.467 97.0251 269.467 97.0251C267.978 98.0229 265.75 99.6501 261.79 101.058Z" fill="#FEEB29"/>
<path d="M204.95 214.617C205.628 213.778 206.848 213.628 207.709 214.277L210.404 216.308C211.286 216.972 211.463 218.226 210.798 219.108L205.453 226.203L195.576 226.21L204.95 214.617Z" fill="#555551"/>
</svg>
