<svg width="20" height="18" viewBox="0 0 20 18" fill="none" xmlns="http://www.w3.org/2000/svg">
<path d="M4 1C4 0.447715 4.44772 0 5 0H17C18.6569 0 20 1.34315 20 3V13C20 13.5523 19.5523 14 19 14C18.4477 14 18 13.5523 18 13V3C18 2.44772 17.5523 2 17 2H5C4.44772 2 4 1.55228 4 1Z" fill="#FBFAF9"/>
<path d="M4 9.00002C4 8.44774 4.44772 8.00002 5 8.00002H12C12.5523 8.00002 13 8.44774 13 9.00002C13 9.55231 12.5523 10 12 10H5C4.44772 10 4 9.55231 4 9.00002Z" fill="#FBFAF9"/>
<path d="M4 13C4 12.4477 4.44772 12 5 12H8C8.55228 12 9 12.4477 9 13C9 13.5523 8.55228 14 8 14H5C4.44772 14 4 13.5523 4 13Z" fill="#FBFAF9"/>
<path d="M0 6C0 4.34315 1.34315 3 3 3H14C15.6569 3 17 4.34315 17 6V15C17 16.6569 15.6569 18 14 18H3C1.34315 18 0 16.6569 0 15V6ZM15 6H2V15C2 15.5523 2.44772 16 3 16H14C14.5523 16 15 15.5523 15 15V6Z" fill="#FBFAF9"/>
</svg>
