<svg width="24" height="24" viewBox="0 0 24 24" fill="none" xmlns="http://www.w3.org/2000/svg">
<path d="M18 4C19.6569 4 21 5.34315 21 7V15.638L22.5848 17.5397C23.399 18.5167 22.7042 20 21.4325 20H2.56756C1.29581 20 0.601073 18.5167 1.41523 17.5397L3.00004 15.638V7C3.00004 5.34315 4.34319 4 6.00004 4H18ZM6.00004 6C5.44776 6 5.00004 6.44772 5.00004 7V15H19V7C19 6.44772 18.5523 6 18 6H6.00004ZM19.2974 18C19.7214 18 19.9529 17.5056 19.6815 17.1799C19.5866 17.0659 19.4458 17 19.2974 17H4.7026C4.55421 17 4.41349 17.0659 4.31849 17.1799C4.04711 17.5056 4.27869 18 4.7026 18H19.2974Z" fill="#FBFAF9"/>
<path d="M7 9C7 8.44772 7.44772 8 8 8H16C16.5523 8 17 8.44772 17 9C17 9.55228 16.5523 10 16 10H8C7.44772 10 7 9.55228 7 9ZM7 12C7 11.4477 7.44772 11 8 11H13C13.5523 11 14 11.4477 14 12C14 12.5523 13.5523 13 13 13H8C7.44772 13 7 12.5523 7 12Z" fill="#FBFAF9"/>
</svg>
