<svg width="24" height="24" viewBox="0 0 24 24" fill="none" xmlns="http://www.w3.org/2000/svg">
<path d="M18 4C18 3.44772 17.5523 3 17 3C16.4477 3 16 3.44772 16 4V4.65843L13.2025 3.43451C12.4359 3.09914 11.5641 3.09914 10.7976 3.43451L3.59919 6.58379C3.09321 6.80516 2.86249 7.39479 3.08385 7.90077C3.30522 8.40675 3.89485 8.63748 4.40083 8.41611L11.5992 5.26683C11.8547 5.15504 12.1453 5.15504 12.4008 5.26683L19.5992 8.41611C20.1052 8.63748 20.6948 8.40675 20.9162 7.90077C21.1375 7.39479 20.9068 6.80516 20.4008 6.58379L18 5.53343V4Z" fill="white"/>
<path d="M5 9C5.55228 9 6 9.44772 6 10V18C6 18.5523 6.44772 19 7 19H9V16C9 14.8954 9.89543 14 11 14H13C14.1046 14 15 14.8954 15 16V19H17C17.5523 19 18 18.5523 18 18V10C18 9.44772 18.4477 9 19 9C19.5523 9 20 9.44772 20 10V18C20 19.6569 18.6569 21 17 21H7C5.34315 21 4 19.6569 4 18V10C4 9.44772 4.44772 9 5 9Z" fill="white"/>
<path d="M11 10V11H13V10H11ZM9 9.5C9 8.67157 9.67157 8 10.5 8H13.5C14.3284 8 15 8.67157 15 9.5V11.5C15 12.3284 14.3284 13 13.5 13H10.5C9.67157 13 9 12.3284 9 11.5V9.5Z" fill="white"/>
</svg>
