<svg width="24" height="24" viewBox="0 0 24 24" fill="none" xmlns="http://www.w3.org/2000/svg">
<path d="M11.506 2.042C10.86 2.15 10.407 2.392 9.89998 2.9C9.38098 3.419 9.15098 3.856 9.04098 4.533C9.01698 4.68 8.99998 5.838 8.99998 7.39V10L7.62998 10.001C6.06198 10.001 5.89498 10.022 5.36198 10.285C4.54998 10.685 4.00098 11.579 4.00098 12.5C4.00098 13.133 4.27098 13.785 4.72298 14.243L5.00198 14.526L4.95898 14.973C4.80098 16.64 4.39398 17.968 3.47698 19.82C3.19898 20.38 3.03098 20.767 3.01598 20.884C2.99069 21.114 3.04621 21.3457 3.17301 21.5393C3.29981 21.7328 3.49001 21.8763 3.71098 21.945C3.88398 21.995 4.01998 22.004 4.29798 21.984C5.38398 21.906 6.42298 21.591 7.54998 21L7.99998 20.763V20.934C7.99998 21.363 8.22498 21.741 8.57698 21.905L8.77998 21.999H10.94C12.358 21.999 13.155 21.985 13.26 21.956C13.482 21.897 13.693 21.744 13.825 21.547L13.949 21.363C13.956 21.353 14.051 21.446 14.161 21.569C14.275 21.698 14.448 21.837 14.568 21.896L14.776 22H20.224L20.432 21.896C20.5567 21.8371 20.6672 21.7519 20.7559 21.6462C20.8446 21.5406 20.9095 21.417 20.946 21.284C21.038 20.968 20.997 20.793 20.684 20.167C19.803 18.41 19.206 16.49 19.043 14.89L19.005 14.519L19.28 14.24C19.7337 13.7735 19.9911 13.1507 19.999 12.5C19.999 11.581 19.445 10.683 18.633 10.282C18.106 10.023 17.935 10.001 16.37 10.001L15 10V7.39C15 5.838 14.983 4.68 14.959 4.533C14.9049 4.17713 14.787 3.83396 14.611 3.52C14.416 3.183 13.817 2.584 13.48 2.389C12.924 2.066 12.16 1.932 11.506 2.042ZM12.497 4.136C12.702 4.256 12.865 4.451 12.943 4.67C12.986 4.789 12.997 5.351 12.998 7.41L13 10H10.998L11.02 4.7L11.131 4.511C11.255 4.3 11.446 4.138 11.67 4.055C11.897 3.97 12.277 4.007 12.497 4.136ZM17.849 12.151C17.965 12.267 17.98 12.307 17.98 12.5C17.98 12.693 17.965 12.733 17.849 12.849L17.718 12.98H6.28198L6.15098 12.849C6.03498 12.734 6.01998 12.693 6.01998 12.502C6.01998 12.327 6.03898 12.266 6.11998 12.179C6.17159 12.1222 6.23246 12.0745 6.29998 12.038C6.34398 12.02 8.93098 12.008 12.049 12.012L17.718 12.02L17.849 12.151ZM17.057 15.09C17.067 15.139 17.087 15.288 17.101 15.42C17.229 16.62 17.648 18.129 18.315 19.79L18.399 20H15.442L14.535 18.981C13.569 17.895 13.479 17.82 13.095 17.774C12.898 17.7537 12.6994 17.7935 12.5254 17.8881C12.3514 17.9827 12.2101 18.1276 12.12 18.304C12.026 18.489 12.019 18.542 12.007 19.25L11.994 20H10.006L9.99298 19.29C9.98098 18.654 9.97098 18.563 9.89298 18.42C9.80774 18.2571 9.67937 18.1207 9.52188 18.0259C9.36439 17.931 9.18385 17.8812 8.99998 17.882C8.72998 17.882 8.51498 17.974 8.21398 18.22C7.90098 18.475 7.29398 18.871 6.81998 19.131C6.39398 19.364 5.84298 19.617 5.81698 19.59C5.80798 19.581 5.87398 19.396 5.96298 19.177C6.29898 18.356 6.61998 17.26 6.77598 16.4C6.85064 15.9456 6.912 15.489 6.95998 15.031C6.95998 15.014 9.22798 15 11.999 15H17.038L17.057 15.09Z" fill="#FBFAF9"/>
</svg>
