<svg width="24" height="24" viewBox="0 0 24 24" fill="none" xmlns="http://www.w3.org/2000/svg">
<path d="M2 20C2 19.4477 2.44772 19 3 19H21C21.5523 19 22 19.4477 22 20C22 20.5523 21.5523 21 21 21H3C2.44772 21 2 20.5523 2 20Z" fill="#FBFAF9"/>
<path d="M12.5 5C12.2239 5 12 5.22386 12 5.5V17C12 17.5523 11.5523 18 11 18C10.4477 18 10 17.5523 10 17V5.5C10 4.11929 11.1193 3 12.5 3C13.8807 3 15 4.11929 15 5.5V17C15 17.5523 14.5523 18 14 18C13.4477 18 13 17.5523 13 17V5.5C13 5.22386 12.7761 5 12.5 5ZM6.5 9C6.22386 9 6 9.22386 6 9.5V17C6 17.5523 5.55228 18 5 18C4.44772 18 4 17.5523 4 17V9.5C4 8.11929 5.11929 7 6.5 7C7.88071 7 9 8.11929 9 9.5V17C9 17.5523 8.55228 18 8 18C7.44772 18 7 17.5523 7 17V9.5C7 9.22386 6.77614 9 6.5 9ZM18.5 14C18.2239 14 18 14.2239 18 14.5V17C18 17.5523 17.5523 18 17 18C16.4477 18 16 17.5523 16 17V14.5C16 13.1193 17.1193 12 18.5 12C19.8807 12 21 13.1193 21 14.5V17C21 17.5523 20.5523 18 20 18C19.4477 18 19 17.5523 19 17V14.5C19 14.2239 18.7761 14 18.5 14Z" fill="#FBFAF9"/>
</svg>
